SplineFontDB: 3.0
FontName: LinLibertineOI
FullName: Linux Libertine O Italic
FamilyName: Linux Libertine O
Weight: Book
Copyright: Linux Libertine by Philipp H. Poll,\nOpen Font under Terms of following Free Software Licenses:\nGPL (General Public License) with font-exception and OFL (Open Font License).\nCreated with FontForge (http://fontforge.sf.net)\nSept 2003, 2004, 2005, 2006, 2007, 2008, 2009, 2010, 2011,2012
UComments: "2003-08-29: Created.+AAoA-2004-07-25: v(1.0) release candidate+AAoA-2005-12-28: v(1.1.0)stable+AAoA-2006-05-01: v(2.0.0)stable+AAoA-2007-01-10: v(2.3.0)stable" 
Version: 5.1.6
ItalicAngle: -12
UnderlinePosition: -98
UnderlineWidth: 40
Ascent: 754
Descent: 246
LayerCount: 2
Layer: 0 0 "Back"  1
Layer: 1 0 "Fore"  0
XUID: [1021 975 16237491 13016554]
FSType: 0
OS2Version: 3
OS2_WeightWidthSlopeOnly: 0
OS2_UseTypoMetrics: 0
CreationTime: 1155510122
PfmFamily: 17
TTFWeight: 400
TTFWidth: 5
LineGap: 0
VLineGap: 0
OS2TypoAscent: 894
OS2TypoAOffset: 0
OS2TypoDescent: -246
OS2TypoDOffset: 0
OS2TypoLinegap: 0
OS2WinAscent: 894
OS2WinAOffset: 0
OS2WinDescent: 246
OS2WinDOffset: 0
HheadAscent: 894
HheadAOffset: 0
HheadDescent: -246
HheadDOffset: 0
OS2FamilyClass: 261
OS2Vendor: 'PfEd'
Lookup: 1 0 0 "'sups' Hochgestellte"  {"'sups' Hochgestellte 1" ("superior" ) } ['sups' ('DFLT' <'dflt' > 'cyrl' <'dflt' > 'grek' <'dflt' > 'latn' <'AZE ' 'CRT ' 'DEU ' 'MOL ' 'ROM ' 'TRK ' 'dflt' > ) ]
Lookup: 1 0 0 "'sinf' Tiefgestellte"  {"'sinf' Wissenschaftliche Indices 1" ("inferior" ) } ['sinf' ('DFLT' <'dflt' > 'cyrl' <'dflt' > 'grek' <'dflt' > 'latn' <'AZE ' 'CRT ' 'DEU ' 'MOL ' 'ROM ' 'TRK ' 'dflt' > ) ]
Lookup: 260 0 0 "'mark' Markenpositionierung"  {"'mark' Unten Punkt"  } ['mark' ('DFLT' <'dflt' > 'cyrl' <'dflt' > 'grek' <'dflt' > 'latn' <'AZE ' 'CRT ' 'DEU ' 'MOL ' 'ROM ' 'TRK ' 'dflt' > ) ]

StartChar: uni210E
Encoding: 8462 8462 0
Width: 519
VWidth: 999
Flags: MW
ItalicCorrection: 29
TopAccentHorizontal: 379
HStem: -10 60<374 447.613> 380 59<347.371 445.5> 643 29<164 197> 678 20G<290.5 308.5>
DStem2: 83.643 -10 157.678 -10 0.21644 0.976296<28.2344 308.492 345.593 636.804> 337.288 -10 411.293 -10 0.21644 0.976296<95.6632 360.374>
AnchorPoint: "unten_punkt" 229 -111 basechar 0
LayerCount: 2
Fore
SplineSet
175.9 72 m 2
 167 34 168 -10 130 -10 c 0
 98.2 -10 89.1 0.5 89.1 17.2 c 0
 89.1 27 97 52 101.8 72 c 2
 211 563 l 2
 215.9 584.8 218 602 218 613 c 0
 218 635 210 641 197 641 c 2
 166 643 l 2
 162 643 161 645 161 648 c 2
 164 672 l 1
 205 675 277 688 304 698 c 1
 313 698 316 695 316 688 c 1
 316 688 305.5 647.9 291 583 c 2
 230.3 311.5 l 1
 321.5 418.2 374.2 439 426 439 c 0
 465 439 492 419 492 359 c 0
 492 341 487 318 479 283 c 2
 441 124 l 2
 435 98 430 76 430 67 c 0
 430 55 432.9 50 440 50 c 0
 450 50 479 70 505 100 c 1
 519 100 525 92 528 83 c 1
 482 24 437 -10 389 -10 c 0
 359 -10 348 4 348 23 c 0
 348 42 357 83 365 115 c 2
 403 275 l 2
 411 309 413 328 413 342 c 0
 413 373 399 379 378 379 c 0
 342 379 277 320 214 238 c 1
 175.9 72 l 2
EndSplineSet
Substitution2: "'sinf' Wissenschaftliche Indices 1" uni210E.inferior
Substitution2: "'sups' Hochgestellte 1" uni210E.superior
EndChar

StartChar: u1D434
Encoding: 119860 119860 1
Width: 667
VWidth: 999
Flags: W
TopAccentHorizontal: 475
HStem: -2 29<5.01562 68.791 190 218 422.344 459 648 662> 241 42<283.8 474> 638 20G<469 483>
DStem2: 437 622 286 296 0.518119 0.855308<-607.433 -412.453 -363.359 -357.067> 496 628 433 550 0.167348 -0.985898<66.3571 336.453 379.2 559.216>
AnchorPoint: "unten_punkt" 308 -108 basechar 0
LayerCount: 2
Fore
SplineSet
307 283 m 2
 474 283 l 1
 433 550 l 1
 431 550 l 1
 286 296 l 2
 284.5 293.6 283.8 291.6 283.8 289.9 c 0
 283.8 284.7 291.1 283 307 283 c 2
161 79 m 2
 156.2 70.7 153.8 62.7 153.8 55.9 c 0
 153.8 41.1 165.4 31.1 190 29 c 2
 217 27 l 2
 221 27 223.5 24 223 19 c 2
 221 0 l 1
 218 -2 l 1
 183 -1 132 0 93 0 c 0
 56 0 40 -1 4 -2 c 1
 3 0 l 1
 6 19 l 2
 6.8 24.4 10 27 15 27 c 0
 57 30 85 40 122 102 c 2
 437 622 l 2
 453 649 462 658 476 658 c 0
 490 658 493 647 496 628 c 2
 588 86 l 2
 594 47 610 32 648 28 c 2
 658 27 l 2
 663 27 666.5 24 666 19 c 2
 664 0 l 1
 662 -2 l 1
 627 -1 588 0 549 0 c 0
 512 0 458 -1 422 -2 c 1
 421 0 l 1
 423 19 l 2
 423.6 24.3 427 27 431 27 c 2
 459 29 l 2
 491.6 31.6 507.9 41.3 507.9 62.7 c 0
 507.9 65.6 507.6 68.7 507 72 c 2
 482 241 l 1
 282 241 l 2
 259 241 252 237 245 224 c 2
 161 79 l 2
EndSplineSet
EndChar

StartChar: u1D435
Encoding: 119861 119861 2
Width: 557
VWidth: 999
Flags: W
ItalicCorrection: 24
TopAccentHorizontal: 417
HStem: -2 34<19.1875 57 196.354 372.124> 332 34<250 399.612> 613 34<144 171 298.263 442.673>
VStem: 469.6 89<131.913 275.098> 485.7 76.2<448.468 580.368>
DStem2: 99.4834 -2 176.995 -2 0.207912 0.978148<84.0653 356.748 587.014 604.537>
AnchorPoint: "unten_punkt" 238 -108 basechar 0
LayerCount: 2
Fore
SplineSet
290 570 m 2
 250 366 l 1
 321 366 l 2
 401 366 465 396 482 481 c 0
 484.5 493.8 485.7 505.4 485.7 516 c 0
 485.7 590 429.2 613 382 613 c 0
 298 613 296 603 290 570 c 2
244 332 m 1
 194 78 l 2
 193.1 72.8 192.5 68.2 192.5 64 c 0
 192.5 41.3 208.5 32 265 32 c 0
 411 32 451 92 466 165 c 0
 468.4 177.5 469.6 189.8 469.6 201.6 c 0
 469.6 274.9 422.8 332 310 332 c 2
 244 332 l 1
20 19 m 2
 21 24 23 27 28 27 c 2
 57 29 l 2
 98 32 108 36 115 71 c 2
 213 574 l 2
 214.5 581.1 215.3 586.9 215.3 591.7 c 0
 215.3 610 203.5 613.6 171 616 c 2
 143 618 l 2
 138 618 137 621 137 625 c 2
 141 645 l 1
 144 647 l 1
 189 646 228 645 265 645 c 0
 304 645 348 647 382 647 c 0
 528.5 647 561.9 588.1 561.9 529.9 c 0
 561.9 517.4 560.3 504.9 558 493 c 0
 548 439 496 387 443 362 c 1
 443 360 l 1
 511.3 338.4 558.6 294.4 558.6 220.9 c 0
 558.6 209.3 557.4 197 555 184 c 0
 538 98 468 -2 277 -2 c 0
 191 -2 178 0 140 0 c 0
 102 0 63 -1 18 -2 c 1
 16 0 l 1
 20 19 l 2
EndSplineSet
EndChar

StartChar: u1D436
Encoding: 119862 119862 3
Width: 616
VWidth: 999
Flags: W
ItalicCorrection: 74
TopAccentHorizontal: 470
HStem: -10 41<263.539 442.931> 621 37<378.333 542.55>
VStem: 88.8 86<134.194 369.83> 632 29<458 520.049>
AnchorPoint: "unten_punkt" 333 -110 basechar 0
LayerCount: 2
Fore
SplineSet
338 -10 m 0
 163.6 -10 88.8 107.6 88.8 241.4 c 0
 88.8 265.6 91.2 290.3 96 315 c 0
 134 512 310 658 469 658 c 0
 587 658 616 616 670 613 c 1
 664 559 662 510 661 458 c 1
 632 454 l 1
 624 540 584 621 451 621 c 0
 375 621 223 537 183 334 c 0
 177.6 305.9 174.8 277.4 174.8 249.7 c 0
 174.8 133.4 224.7 31 345 31 c 0
 434 31 506 62 589 140 c 1
 600 140 605 134 608 125 c 1
 526 36 431 -10 338 -10 c 0
EndSplineSet
EndChar

StartChar: u1D437
Encoding: 119863 119863 4
Width: 667
VWidth: 999
Flags: W
ItalicCorrection: 46
TopAccentHorizontal: 366
HStem: -2 34<18.5312 57 194.19 406.662> 613 34<144 171 303.002 473.006>
VStem: 603 90.7<255.103 483.837>
AnchorPoint: "unten_punkt" 279 -107 basechar 0
LayerCount: 2
Fore
SplineSet
19 18 m 2
 20 23 24 27 28 27 c 2
 57 29 l 2
 91 31 110 42 116 74 c 2
 213 572 l 2
 214.3 578.9 215.1 584.8 215.1 589.6 c 0
 215.1 609.9 202.5 613.6 171 616 c 2
 145 618 l 2
 140 618 137 621 138 626 c 2
 141 645 l 1
 144 647 l 1
 189 646 228 645 265 645 c 0
 304 645 361 647 422 647 c 0
 583.2 647 693.7 529.5 693.7 375.3 c 0
 693.7 353.5 691.6 331 687 308 c 0
 640 62 449 -2 313 -2 c 0
 214 -2 177 0 140 0 c 0
 101 0 63 -1 18 -2 c 1
 16 0 l 1
 19 18 l 2
193 73 m 2
 192.1 68.2 191.5 64 191.5 60.2 c 0
 191.5 38.5 210 32 290 32 c 0
 425 32 555 82 594 284 c 0
 599.8 313.7 603 344.2 603 374.1 c 0
 603 499 546.1 613 379 613 c 0
 332 613 298 609 291 574 c 2
 193 73 l 2
EndSplineSet
EndChar

StartChar: u1D438
Encoding: 119864 119864 5
Width: 526
VWidth: 999
Flags: W
ItalicCorrection: 47
TopAccentHorizontal: 383
HStem: -2 29<13.5 53> 0 39<187.07 414.098> 323 38<245 398.75> 416 20G<437 463> 605 40<289.999 488.076> 618 29<139 167>
VStem: 398 31<255 293.293> 517 28<501 562.787>
DStem2: 111 72 188 72 0.190817 0.981626<4.37501 270.431 309.259 522.297>
AnchorPoint: "unten_punkt" 269 -107 basechar 0
LayerCount: 2
Fore
SplineSet
553 646 m 0
 553 638 549 542 545 501 c 1
 517 496 l 1
 509 565 499 605 427 605 c 2
 327 605 l 2
 304 605 290 595 285 571 c 2
 245 361 l 1
 367 361 l 2
 400 361 414 375 423 403 c 1
 430 428 l 2
 431 432 435 436 439 436 c 2
 460 436 l 1
 463 432 l 1
 452 392 445 362 442 342 c 0
 438 322 433 295 429 255 c 1
 424 252 l 1
 403 252 l 2
 398 252 397 257 398 260 c 2
 400 285 l 2
 400.3 288 400.5 290.8 400.5 293.4 c 0
 400.5 315.8 388.6 323 359 323 c 2
 237 323 l 1
 188 72 l 2
 187.3 68.1 186.9 64.7 186.9 61.6 c 0
 186.9 43.4 199 39 217 39 c 2
 347 39 l 2
 420 39 469 98 502 170 c 1
 531 165 l 1
 509 113 484 50 463 -2 c 1
 463 -2 387 0 341 0 c 2
 135 0 l 2
 98 0 58 -1 13 -2 c 1
 11 0 l 1
 15 20 l 2
 16 23 18 27 24 27 c 2
 53 29 l 2
 91 32 105 44 111 72 c 2
 208 571 l 2
 209 576.3 209.5 580.9 209.5 585.1 c 0
 209.5 605.5 196.9 613.5 167 616 c 2
 139 618 l 2
 132 618 132 622 133 625 c 2
 137 645 l 1
 139 647 l 1
 184 646 223 645 260 645 c 2
 503 645 l 2
 526 645 532 646 549 649 c 0
 552 649 553 648 553 646 c 0
EndSplineSet
EndChar

StartChar: u1D439
Encoding: 119865 119865 6
Width: 457
VWidth: 999
Flags: W
ItalicCorrection: 116
TopAccentHorizontal: 376
HStem: -2 29<14.6875 51 233 258> 323 38<245 398.75> 416 20G<437 463> 605 40<289.999 488.076> 618 29<139 167>
VStem: 398 31<255 293.293> 517 28<501 562.787>
DStem2: 94.8457 -2 172.846 -2 0.207912 0.978148<80.6272 347.454 386.286 386.286 584.005 598.455>
AnchorPoint: "unten_punkt" 131 -111 basechar 0
LayerCount: 2
Fore
SplineSet
359 323 m 2
 237 323 l 1
 189 74 l 2
 188 69 187.5 64.5 187.5 60.5 c 0
 187.5 39.6 201.1 31.5 233 29 c 2
 257 27 l 2
 262 27 265 24 264 19 c 2
 260 0 l 1
 258 -2 l 1
 213 -1 174 0 135 0 c 0
 98 0 59 -1 14 -2 c 1
 12 0 l 1
 16 19 l 2
 17 24 20 27 25 27 c 2
 51 29 l 2
 92 32 106 46 111 74 c 2
 208 571 l 2
 209.1 576.5 209.6 581.3 209.6 585.6 c 0
 209.6 605.6 197.5 613.5 167 616 c 2
 139 618 l 2
 132 618 132 622 133 625 c 2
 137 645 l 1
 139 647 l 1
 184 646 223 645 260 645 c 2
 504 645 l 2
 527 645 532 646 550 649 c 0
 552 649 553 648 553 646 c 0
 553 638 548 542 545 501 c 1
 517 496 l 1
 509 565 499 605 427 605 c 2
 327 605 l 2
 304 605 290 595 285 571 c 2
 245 361 l 1
 367 361 l 2
 400 361 414 375 423 403 c 1
 430 428 l 2
 431 432 435 436 439 436 c 2
 460 436 l 1
 463 432 l 1
 452 392 445 362 442 342 c 0
 438 322 433 295 429 255 c 1
 424 252 l 1
 403 252 l 2
 398 252 397 257 398 260 c 2
 400 285 l 2
 400.3 288 400.5 290.8 400.5 293.4 c 0
 400.5 315.8 388.6 323 359 323 c 2
EndSplineSet
EndChar

StartChar: u1D43A
Encoding: 119866 119866 7
Width: 664
VWidth: 999
Flags: W
ItalicCorrection: 62
TopAccentHorizontal: 483
HStem: -10 36<298.891 478.293> 271 36<494 517 649.459 700.951> 621 37<384.045 560.462>
VStem: 83.6 87.9<154.492 358.027> 649 30<459 522.487>
DStem2: 513.378 -10 590.175 -10 0.21644 0.976296<115.709 254.496>
AnchorPoint: "unten_punkt" 345 -110 basechar 0
LayerCount: 2
Fore
SplineSet
487 658 m 0
 604 658 630 613 688 613 c 1
 681 541 679 501 679 459 c 1
 649 453 l 1
 641 539 606 621 467 621 c 0
 337 621 211 502 177 327 c 0
 173.4 307.8 171.5 287.9 171.5 267.8 c 0
 171.5 149.5 235.8 26 382 26 c 0
 434 26 493 42 532 74 c 1
 562 227 l 2
 562.9 231.8 563.4 236 563.4 239.8 c 0
 563.4 260.4 549.1 266.5 517 269 c 2
 493 271 l 2
 489 271 486 274 487 279 c 2
 492 305 l 1
 494 307 l 1
 539 306 578 305 615 305 c 0
 654 305 675 306 704 307 c 1
 706 305 l 1
 701 279 l 2
 700 274 696 272 691 271 c 0
 663 268 646 262 640 227 c 2
 617 111 l 2
 615 100 618 92 627 83 c 1
 550 25 466 -10 353 -10 c 0
 184.3 -10 83.6 100 83.6 243.2 c 0
 83.6 263.8 85.7 285.2 90 307 c 0
 133 527 322 658 487 658 c 0
EndSplineSet
EndChar

StartChar: u1D43B
Encoding: 119867 119867 8
Width: 673
VWidth: 999
Flags: W
ItalicCorrection: 124
TopAccentHorizontal: 451
HStem: -2 29<19.958 54 237 270.515 409.958 444 627 660.515> 321 42<247 557> 618 29<135.485 169 352 386.042 525.485 559 742 776.042>
DStem2: 99.4206 -2 176.421 -2 0.207912 0.978148<60.3633 614.198> 489.421 -2 566.421 -2 0.207912 0.978148<60.3633 614.198>
AnchorPoint: "unten_punkt" 320 -107 basechar 0
LayerCount: 2
Fore
SplineSet
603 569 m 2
 608.9 598.8 597.9 611.6 559 615 c 2
 525 618 l 1
 522 623 525 643 528 647 c 1
 572 646 617 645 655 645 c 0
 694 645 730 646 775 647 c 1
 779 638 777 622 773 618 c 1
 742 615 l 2
 701 611 686 597 680 569 c 2
 583 76 l 2
 577 45.5 588.1 33.4 627 30 c 2
 661 27 l 1
 664 22 661 2 658 -2 c 1
 614 -1 569 0 531 0 c 0
 492 0 456 -1 411 -2 c 1
 407 7 409 23 413 27 c 1
 444 30 l 2
 484.7 33.9 500.4 47.8 506 76 c 2
 554.2 321 l 1
 241.2 321 l 1
 193 76 l 2
 187 45.5 198.1 33.4 237 30 c 2
 271 27 l 1
 274 22 271 2 268 -2 c 1
 224 -1 179 0 141 0 c 0
 102 0 66 -1 21 -2 c 1
 17 7 19 23 23 27 c 1
 54 30 l 2
 94.7 33.9 110.4 47.8 116 76 c 2
 213 569 l 2
 218.9 598.8 207.9 611.6 169 615 c 2
 135 618 l 1
 132 623 135 643 138 647 c 1
 182 646 227 645 265 645 c 0
 304 645 340 646 385 647 c 1
 389 638 387 622 383 618 c 1
 352 615 l 2
 311 611 296 597 290 569 c 2
 249.5 363 l 1
 562.5 363 l 1
 603 569 l 2
EndSplineSet
EndChar

StartChar: u1D43C
Encoding: 119868 119868 9
Width: 280
VWidth: 999
Flags: W
ItalicCorrection: 127
TopAccentHorizontal: 286
HStem: -2 29<19.958 54 237 270.515> 618 29<135.485 169 352 386.042>
DStem2: 99.4206 -2 176.421 -2 0.207912 0.978148<60.3633 614.198>
AnchorPoint: "unten_punkt" 127 -109 basechar 0
LayerCount: 2
Fore
SplineSet
213 569 m 2
 218.9 598.8 207.9 611.6 169 615 c 2
 135 618 l 1
 132 623 135 643 138 647 c 1
 182 646 227 645 265 645 c 0
 304 645 340 646 385 647 c 1
 389 638 387 622 383 618 c 1
 352 615 l 2
 311 611 296 597 290 569 c 2
 193 76 l 2
 187 45.5 198.1 33.4 237 30 c 2
 271 27 l 1
 274 22 271 2 268 -2 c 1
 224 -1 179 0 141 0 c 0
 102 0 66 -1 21 -2 c 1
 17 7 19 23 23 27 c 1
 54 30 l 2
 94.7 33.9 110.4 47.8 116 76 c 2
 213 569 l 2
EndSplineSet
EndChar

StartChar: u1D43D
Encoding: 119869 119869 10
Width: 315
VWidth: 999
Flags: W
ItalicCorrection: 126
TopAccentHorizontal: 317
HStem: -172 45<-28.3965 71.7992> 618 29<173.09 240.486 360.127 419.91>
LayerCount: 2
Fore
SplineSet
326 523 m 2
 243 103 l 2
 214.3 -42.1 150 -93 102 -130 c 0
 57 -165 23 -172 -19 -172 c 0
 -37.8 -172 -81.6 -156.2 -81.6 -124.3 c 0
 -81.6 -97.3 -50.1 -79 -36 -79 c 0
 -7 -79 4 -96 10 -109 c 0
 15 -119 26 -127 39 -127 c 0
 70 -127 124.3 -100.4 160 81 c 2
 247 523 l 2
 250.9 542.8 253.1 558.3 253.1 570.3 c 0
 253.1 608.4 231.3 615.7 175 618 c 1
 169.3 626.6 171.8 642.6 177 647 c 1
 223 646 255.7 645 306 645 c 0
 349.7 645 372 646 418 647 c 1
 423.7 638.4 421.2 622.4 416 618 c 1
 360 615 342.6 606.9 326 523 c 2
EndSplineSet
EndChar

StartChar: u1D43E
Encoding: 119870 119870 11
Width: 637
VWidth: 999
Flags: W
ItalicCorrection: 105
TopAccentHorizontal: 436
HStem: -2 29<19.958 54 237 270.515 598 604> 309 38<246 297.166> 618 29<135.485 169 352 386.042 514 533 643.253 717.949>
DStem2: 99.4206 -2 176.421 -2 0.207912 0.978148<60.3633 614.198> 331 386 410 407 0.744049 0.668125<6.88094 311.517>
AnchorPoint: "unten_punkt" 292 -110 basechar 0
LayerCount: 2
Fore
SplineSet
213 569 m 2
 218.9 598.8 207.9 611.6 169 615 c 2
 135 618 l 1
 132 623 135 643 138 647 c 1
 182 646 227 645 265 645 c 0
 304 645 340 646 385 647 c 1
 389 638 387 622 383 618 c 1
 352 615 l 2
 311 611 296 597 290 569 c 2
 246.3 347 l 1
 283.1 349.1 307.1 364.1 331 386 c 2
 527 562 l 2
 545.3 579.2 556.2 592.6 556.2 601.9 c 0
 556.2 609.4 549.1 614.2 533 616 c 2
 514 618 l 2
 510 618 507 621 508 626 c 2
 511 645 l 1
 514 647 l 1
 559 646 586 645 625 645 c 0
 663 645 674 646 719 647 c 1
 722 645 l 1
 718 626 l 2
 717 621 711 618 706 618 c 0
 666 613 628 607 574 558 c 2
 410 407 l 2
 372 372 367 365 365 358 c 1
 364 350 365 343 372 333 c 2
 532 73 l 2
 550 42 571 32 598 28 c 2
 604 27 l 2
 608 26 612 24 611 19 c 2
 608 0 l 1
 604 -2 l 1
 559 -1 542 0 505 0 c 0
 476 0 457 -1 437 -2 c 1
 436 0 l 1
 437 6 l 2
 438.9 14.5 440.8 24.3 440.8 34.9 c 0
 440.8 46.8 438.4 59.8 431 73 c 2
 313 271 l 2
 298 298 273 309 239 309 c 1
 241.3 321.5 l 1
 193 76 l 2
 187 45.5 198.1 33.4 237 30 c 2
 271 27 l 1
 274 22 271 2 268 -2 c 1
 224 -1 179 0 141 0 c 0
 102 0 66 -1 21 -2 c 1
 17 7 19 23 23 27 c 1
 54 30 l 2
 94.7 33.9 110.4 47.8 116 76 c 2
 213 569 l 2
EndSplineSet
EndChar

StartChar: u1D43F
Encoding: 119871 119871 12
Width: 519
VWidth: 999
Flags: W
TopAccentHorizontal: 359
HStem: -2 29<20.958 55> 0 39<198.148 402.802> 618 29<135.485 169 352 386.042>
DStem2: 100.42 -2 176.657 -2 0.207912 0.978148<95.678 612.846>
AnchorPoint: "unten_punkt" 252 -110 basechar 0
LayerCount: 2
Fore
SplineSet
117 76 m 2
 213 569 l 2
 218.8 598.8 207.9 611.6 169 615 c 2
 135 618 l 1
 132 623 135 643 138 647 c 1
 182 646 227 645 265 645 c 0
 304 645 340 646 385 647 c 1
 389 638 387 622 383 618 c 1
 352 615 l 2
 311 611 295.5 597.1 290 569 c 2
 196 89 l 2
 195.1 84.2 194.6 79.8 194.6 75.6 c 0
 194.6 52.6 208.3 39 232 39 c 2
 342 39 l 2
 415 39 461 108.7 489 170 c 1
 498.7 172.3 511 168.7 517 163 c 1
 496 111 474 54 459 -2 c 1
 459 -2 371 0 345 0 c 2
 142 0 l 2
 103 0 67 -1 22 -2 c 1
 18 7 20 23 24 27 c 1
 55 30 l 2
 95.7 33.9 111.6 48 117 76 c 2
EndSplineSet
EndChar

StartChar: u1D440
Encoding: 119872 119872 13
Width: 804
VWidth: 999
Flags: W
ItalicCorrection: 90
TopAccentHorizontal: 527
HStem: -2 29<18 54 163 191 576.028 612 756 787> 618 29<185 216 834 871.965>
DStem2: 104 86 141 86 0.27758 0.960703<-15.6121 466.033> 329 646 269 524 0.183717 -0.982979<108.9 532.01> 443 138 394 5 0.516399 0.856348<-17.618 478.542> 655 87 728 87 0.124285 0.992247<-12.705 450.991>
AnchorPoint: "unten_punkt" 363 -110 basechar 0
LayerCount: 2
Fore
SplineSet
655 87 m 2
 715 534 l 1
 713 534 l 1
 394 5 l 2
 389 -3 384 -6 379 -6 c 0
 373 -6 368 -2 366 5 c 2
 269 524 l 1
 267 524 l 1
 141 86 l 2
 138.4 76.8 136.9 67.9 136.9 59.9 c 0
 136.9 42.9 143.9 30.4 163 29 c 2
 187 27 l 2
 192 27 195.3 24.1 195 19 c 2
 194 0 l 1
 191 -2 l 1
 163 -1 126 0 103 0 c 0
 80 0 47 -1 18 -2 c 1
 16 0 l 1
 18 19 l 2
 18.5 24.1 22 27 28 27 c 2
 54 29 l 2
 84 31 97 59 104 86 c 2
 245 574 l 2
 247.1 581.8 248.4 588.3 248.4 593.7 c 0
 248.4 608.3 239.2 614.3 216 616 c 2
 189 618 l 2
 182 618 180.6 620.8 181 625 c 2
 183 645 l 1
 185 647 l 1
 329 646 l 1
 427 137 l 2
 428 128 429 124 432 124 c 0
 434 124 437 128 443 138 c 2
 746 647 l 1
 872 647 l 1
 874 645 l 1
 872 625 l 2
 871.3 618.5 864.8 618.4 860 618 c 2
 834 616 l 2
 805 614 792 600 789 574 c 2
 728 87 l 2
 727 79.1 726.3 71.6 726.3 64.9 c 0
 726.3 44.4 732.2 30.8 756 29 c 2
 782 27 l 2
 788 26.5 791.5 24.2 791 19 c 2
 789 0 l 1
 787 -2 l 1
 742 -1 708 0 679 0 c 0
 651 0 622 -1 576 -2 c 1
 574 0 l 1
 576 19 l 2
 576.5 24 581.5 26.7 586 27 c 2
 612 29 l 2
 638.7 31.1 652 61 655 87 c 2
EndSplineSet
EndChar

StartChar: u1D441
Encoding: 119873 119873 14
Width: 666
VWidth: 999
Flags: W
ItalicCorrection: 142
TopAccentHorizontal: 446
HStem: -10 21G<549 563.5> -2 29<14.0286 53 201 228> 618 29<145 182.018 572 603 750 785.972>
DStem2: 96.1695 -10 139.169 -10 0.207912 0.978148<93.9283 518.398> 277 647 274 455 0.491667 -0.870783<123.851 572.483> 530.039 -10 576.411 -10 0.207912 0.978148<160.426 593.434>
AnchorPoint: "unten_punkt" 328 -109 basechar 0
LayerCount: 2
Fore
SplineSet
687 557 m 2
 583 21 l 2
 579 2 570 -10 557 -10 c 0
 541 -10 530 -1 523 14 c 1
 274 455 l 2
 261 477 253 488 247 488 c 0
 240 488 235 473 228 439 c 2
 160 88 l 2
 158.9 82.7 158.4 77.5 158.4 72.6 c 0
 158.4 49.6 170.5 31.4 201 29 c 2
 226 27 l 2
 230.5 26.6 232.6 24.5 232 19 c 2
 230 0 l 1
 228 -2 l 1
 183 -1 148 0 124 0 c 0
 100 0 59 -1 14 -2 c 1
 12 0 l 1
 14 18 l 2
 14.5 22.9 19.1 26.3 28 27 c 2
 53 29 l 2
 92.5 32.2 111 61 117 88 c 2
 207 550 l 1
 206 576 185 615 154 618 c 0
 147 619 139.5 621 140 626 c 2
 142 645 l 1
 145 647 l 1
 277 647 l 1
 520 203 l 2
 541 166 550 148 558 148 c 0
 564 148 566 159 570 178 c 2
 644 557 l 2
 644.9 562.1 645.5 567.3 645.5 572.4 c 0
 645.5 594.1 635.4 613.6 603 616 c 2
 579 618 l 2
 574.2 618.4 566.3 621.5 567 626 c 2
 570 645 l 1
 572 647 l 1
 617 646 658 645 682 645 c 0
 705 645 741 646 786 647 c 1
 788 645 l 1
 786 626 l 2
 785.5 621.2 779.8 618.2 777 618 c 2
 750 616 l 2
 712 613 693 587 687 557 c 2
EndSplineSet
EndChar

StartChar: u1D442
Encoding: 119874 119874 15
Width: 668
VWidth: 999
Flags: W
ItalicCorrection: 58
TopAccentHorizontal: 485
HStem: -10 34<284.934 428.867> 624 34<367.544 514.015>
VStem: 87.4 90.9<131.227 364.409> 617.3 89<275.856 513.791>
AnchorPoint: "unten_punkt" 310 -113 basechar 0
LayerCount: 2
Fore
SplineSet
436 624 m 0
 349 624 227 537 187 327 c 0
 181.1 297.2 178.3 269.5 178.3 243.7 c 0
 178.3 103.3 259.8 24 357 24 c 0
 467 24 572 131 607 310 c 0
 614 346.5 617.3 379.9 617.3 410.1 c 0
 617.3 552 544 624 436 624 c 0
699 329 m 0
 660 129 515 -10 331 -10 c 0
 188.3 -10 87.4 82 87.4 234.4 c 0
 87.4 258.2 89.9 283.4 95 310 c 0
 133 506 284 658 455 658 c 0
 601.1 658 706.3 558.9 706.3 402.9 c 0
 706.3 379.5 704 354.8 699 329 c 0
EndSplineSet
EndChar

StartChar: u1D443
Encoding: 119875 119875 16
Width: 499
VWidth: 999
Flags: W
ItalicCorrection: 95
TopAccentHorizontal: 396
HStem: -2 29<18.6875 54 237 272> 282 34<242.483 390.694> 620 34<304.759 449.328> 620 25<144 179 310.5 390.801>
VStem: 488.6 85.6<431.277 589.454>
DStem2: 115 71 193 71 0.191235 0.981544<2.51685 240.061 269.673 521.852>
AnchorPoint: "unten_punkt" 140 -110 basechar 0
LayerCount: 2
Fore
SplineSet
291 574 m 2
 242 321 l 1
 252 318 285 316 309 316 c 0
 402 316 462 360 483 468 c 0
 486.8 487.5 488.6 504.6 488.6 519.5 c 0
 488.6 602.1 434.7 620 378 620 c 0
 309 620 296 603 291 574 c 2
115 71 m 2
 213 574 l 2
 213.6 577.4 213.9 580.6 213.9 583.5 c 0
 213.9 607.8 193.3 615.1 179 616 c 2
 142 618 l 2
 138 618 136 620 137 624 c 2
 141 645 l 1
 144 647 l 1
 179 646 228 645 266 645 c 0
 305 645 367 654 392 654 c 0
 540.4 654 574.2 577.4 574.2 517.9 c 0
 574.2 506.4 572.9 495.5 571 486 c 0
 555 401 482 282 307 282 c 0
 273 282 256 285 236 292 c 1
 193 71 l 2
 192.1 66.4 191.6 62.2 191.6 58.5 c 0
 191.6 38.1 205.7 30.7 237 29 c 2
 272 27 l 2
 276 27 279 24 278 19 c 2
 274 0 l 1
 272 -2 l 1
 227 -1 179 0 141 0 c 0
 101 0 53 -1 18 -2 c 1
 16 0 l 1
 20 19 l 2
 21 24 24 27 29 27 c 2
 54 29 l 2
 93 32 110 43 115 71 c 2
EndSplineSet
EndChar

StartChar: u1D444
Encoding: 119876 119876 17
Width: 668
VWidth: 999
Flags: W
ItalicCorrection: 58
TopAccentHorizontal: 468
HStem: -209 57<446.624 559.29> -114 44<194.413 290.308> -10 34<284.934 428.867> -2 30<360.977 402.7> 624 34<367.544 514.015>
VStem: 87.4 90.9<131.227 364.409> 617.3 89<275.856 513.791>
LayerCount: 2
Fore
SplineSet
436 624 m 0
 349 624 227 537 187 327 c 0
 181.1 297.2 178.3 269.5 178.3 243.7 c 0
 178.3 103.3 259.8 24 357 24 c 0
 467 24 572 131 607 310 c 0
 614 346.5 617.3 379.9 617.3 410.1 c 0
 617.3 552 544 624 436 624 c 0
126.9 -128.4 m 0
 169.5 -85.9 230.9 -39.5 294.5 -7.9 c 1
 171.3 6.6 87.4 95.3 87.4 234.4 c 0
 87.4 258.2 89.9 283.4 95 310 c 0
 133 506 284 658 455 658 c 0
 601.1 658 706.3 558.9 706.3 402.9 c 0
 706.3 379.5 704 354.8 699 329 c 0
 664.9 154 549.6 25.7 398 -3.6 c 1
 365.4 -11.8 311.4 -32.9 253.4 -71.4 c 1
 260.2 -70.5 266.4 -70 272 -70 c 0
 378 -70 440 -152 524 -152 c 0
 552 -152 589 -142 615 -115 c 1
 629 -127 l 1
 581 -183 535 -209 475 -209 c 0
 350 -209 308 -114 219 -114 c 0
 211.5 -114 198 -117.2 182.9 -126.2 c 1
 167.3 -140.4 151.9 -156 137 -173 c 1
 104 -153 l 1
 110.6 -144.1 118.4 -135.9 126.9 -128.4 c 0
EndSplineSet
EndChar

StartChar: u1D445
Encoding: 119877 119877 18
Width: 555
VWidth: 999
Flags: W
ItalicCorrection: 39
TopAccentHorizontal: 389
HStem: -10 31<524.724 562.48> -2 29<18.6875 41.5 249.5 262 521.658 563> 291 34<242 324.096> 620 34<306.557 450.376> 620 25<144 179 312.375 385.849>
VStem: 489.6 84.4<430.828 588.037>
DStem2: 96.821 -10 174.821 -10 0.21644 0.976296<88.0576 329.194 358.482 358.482 595.303 604.671> 409 308 343 253 0.355995 -0.934488<0.0250535 295.079>
AnchorPoint: "unten_punkt" 248 -111 basechar 0
LayerCount: 2
Fore
SplineSet
381 620 m 0
 313 620 296 603 291 574 c 2
 242 325 l 1
 290 325 l 2
 383 325 461 353 485 478 c 0
 488.1 494.1 489.6 508.5 489.6 521.3 c 0
 489.6 602.1 431.9 620 381 620 c 0
387 654 m 0
 447 654 506 649 543 604 c 0
 563.6 578.9 574 550.1 574 516.6 c 0
 574 504.7 572.6 492.2 570 479 c 0
 549 374 453 322 409 308 c 1
 489 98 l 2
 506 55 523 21 566 21 c 1
 563 -3 l 1
 552 -8 535 -10 521 -10 c 0
 463 -10 430 32 411 79 c 2
 343 253 l 2
 333 276 316 291 236 291 c 1
 193 72 l 2
 192 67.2 191.5 62.8 191.5 59 c 0
 191.5 38.9 205.1 31.5 237 29 c 2
 262 27 l 2
 266 27 269 24 268 19 c 2
 265 0 l 1
 262 -2 l 1
 217 -1 178 0 140 0 c 0
 102 0 63 -1 18 -2 c 1
 16 0 l 1
 20 19 l 2
 21 24 24 27 29 27 c 2
 54 29 l 2
 95 32 110 44 115 72 c 2
 213 574 l 2
 213.6 577.4 213.9 580.6 213.9 583.5 c 0
 213.9 607.8 193.3 615.1 179 616 c 2
 142 618 l 2
 138 618 136 620 137 624 c 2
 141 645 l 1
 144 647 l 1
 189 646 227 645 265 645 c 0
 303 645 363 654 387 654 c 0
EndSplineSet
EndChar

StartChar: u1D446
Encoding: 119878 119878 19
Width: 454
VWidth: 999
Flags: W
ItalicCorrection: 59
TopAccentHorizontal: 372
HStem: -10 36<152.661 302.45> 624 34<279.414 408.091>
VStem: 64 30<91.9855 165> 141.8 72.2<441.013 545.881> 371.9 83.9<124.383 242.897> 454 31<499 570.04>
AnchorPoint: "unten_punkt" 204 -111 basechar 0
LayerCount: 2
Fore
SplineSet
493 626 m 1xf8
 490 572 485 545 485 497 c 1
 454 499 l 1xf4
 448 565 435 624 343 624 c 0
 280 624 228 583 216 522 c 0
 214.6 514.8 214 508 214 501.5 c 0
 214 432.6 286.9 391.3 320 376 c 0
 387 345 455.8 300.5 455.8 211.6 c 0
 455.8 200 454.5 187.4 452 174 c 0
 432 72 326 -10 215 -10 c 0
 134 -10 109 5 51 5 c 1
 59 56 61 89 64 165 c 1
 94 168 l 1
 95 68 145 26 230 26 c 0
 303 26 352 58 368 139 c 0
 370.6 152.7 371.9 165 371.9 176.1 c 0
 371.9 236.2 335 268 289 291 c 0
 219.1 326 141.8 373.3 141.8 461.9 c 0
 141.8 472.3 142.8 483.3 145 495 c 0
 166 601 275 658 359 658 c 0
 448 658 442 634 493 626 c 1xf8
EndSplineSet
EndChar

StartChar: u1D447
Encoding: 119879 119879 20
Width: 544
VWidth: 999
Flags: W
ItalicCorrection: 132
TopAccentHorizontal: 427
HStem: -2 29<165.958 200 383 416.515> 606 39<183.962 358.111 441.664 594.752> 638 20G<151.5 169.75 628.5 643.75>
VStem: 626 30<515.629 560.135>
DStem2: 245.421 -2 322.421 -2 0.207912 0.978148<60.4079 609.951>
AnchorPoint: "unten_punkt" 277 -109 basechar 0
LayerCount: 2
Fore
SplineSet
229 645 m 2
 563 645 l 2
 598.8 645 612 652.5 645 658 c 1
 642.5 618 645 575 656 518 c 1
 644.3 513.3 636 513 626 513 c 1
 609 580 594 606 542 606 c 2
 488 606 l 2
 454 606 441 598 434 564 c 2
 339 76 l 2
 333.1 45.6 344.1 33.4 383 30 c 2
 417 27 l 1
 420 22 417 2 414 -2 c 1
 370 -1 325 0 287 0 c 0
 248 0 212 -1 167 -2 c 1
 163 7 165 23 169 27 c 1
 200 30 l 2
 241 34 256 48 262 76 c 2
 357 567 l 2
 361.8 595.9 356.4 606 317 606 c 2
 248 606 l 2
 195 606 170 586 141 520.5 c 1
 132 520.5 118.6 522.7 111 527.5 c 1
 133 580.5 145 609 158 658 c 1
 181.5 654 202.9 645 229 645 c 2
EndSplineSet
EndChar

StartChar: u1D448
Encoding: 119880 119880 21
Width: 634
VWidth: 999
Flags: W
ItalicCorrection: 146
TopAccentHorizontal: 456
HStem: -10 41<263.768 424.515> 618 29<128 153 336 371.312 547 573 722 757.312>
VStem: 123.8 78.8<90.0313 308.188>
DStem2: 76.4631 -10 153.147 -10 0.21644 0.976296<205.889 607.049> 495.374 -10 538.383 -10 0.21644 0.976296<135.28 606.241>
AnchorPoint: "unten_punkt" 308 -109 basechar 0
LayerCount: 2
Fore
SplineSet
306 -10 m 0
 230.9 -10 123.8 22.1 123.8 166 c 0
 123.8 186.9 126.1 210.1 131 236 c 2
 197 572 l 2
 197.9 576.8 198.4 581.1 198.4 584.9 c 0
 198.4 605.9 184.3 613.5 153 616 c 2
 128 618 l 2
 124 618 121 621 122 626 c 2
 125 645 l 1
 128 647 l 1
 173 646 211 645 249 645 c 0
 287 645 327 646 372 647 c 1
 374 645 l 1
 370 626 l 2
 369 621 366 618 361 618 c 2
 336 616 l 2
 296 613 280 600 274 572 c 2
 215 269 l 2
 209.1 236.8 202.6 203.4 202.6 171.4 c 0
 202.6 138.8 209.3 107.8 230 81 c 0
 253 52 288 31 334 31 c 0
 497 31 537 165 559 277 c 2
 616 570 l 2
 617 575.2 617.5 579.9 617.5 584.1 c 0
 617.5 604.8 604.6 613.5 573 616 c 2
 547 618 l 2
 544 618 540 621 541 626 c 2
 545 645 l 1
 547 647 l 1
 592 646 630 645 652 645 c 0
 674 645 713 646 758 647 c 1
 760 645 l 1
 756 626 l 2
 755 621 752 618 747 618 c 2
 722 616 l 2
 681 613 665 598 660 570 c 2
 606 295 l 2
 572 117 503 -10 306 -10 c 0
EndSplineSet
EndChar

StartChar: u1D449
Encoding: 119881 119881 22
Width: 597
VWidth: 999
Flags: W
ItalicCorrection: 148
TopAccentHorizontal: 451
HStem: 618 29<110.489 166.953 284.995 344.511 513.489 570.778 669.67 724.511>
DStem2: 269 572 187.999 556.004 0.14701 -0.989135<-29.6115 450.681> 340 127 314 11 0.487966 0.872863<-3.48752 524.736>
AnchorPoint: "unten_punkt" 263 -110 basechar 0
LayerCount: 2
Fore
SplineSet
617 553 m 2
 635.5 586 668 612 721 618 c 1
 727 624 727 641 721 647 c 1
 684 646 653 645 627 645 c 0
 601 645 557 646 517 647 c 1
 511 641 511 624 517 618 c 1
 567.3 614 594.1 600.2 573 561 c 2
 340 127 l 2
 338 125 336 123.5 333 127 c 1
 269 572 l 2
 264.2 605.2 306 616 341 618 c 1
 347 624 347 641 341 647 c 1
 308 646 259 645 220 645 c 0
 180 645 154 646 114 647 c 1
 108 641 108 624 114 618 c 1
 156 612.5 179.7 612 188 556 c 2
 269 11 l 2
 271.2 -4 277 -12 287 -12 c 0
 297 -12 305.7 -3.8 314 11 c 2
 617 553 l 2
EndSplineSet
EndChar

StartChar: u1D44A
Encoding: 119882 119882 23
Width: 909
VWidth: 999
Flags: W
ItalicCorrection: 151
TopAccentHorizontal: 580
HStem: -10 21G<285.75 295 613.375 621.75> 618 29<135.489 187.444 312.163 370.511 821.489 881.499 987.204 1039.51>
DStem2: 296 572 216.999 546.004 0.111658 -0.993747<-30.0796 421.952> 337 152 312 12 0.479936 0.877303<0 349.906> 626 486 549.5 434.5 0.113504 -0.993538<39.4386 342.229> 665 146 639 11 0.485506 0.874233<0 501.679>
AnchorPoint: "unten_punkt" 439 -107 basechar 0
LayerCount: 2
Fore
SplineSet
217 546 m 2
 210.8 600 187.2 610 139 618 c 1
 133 624 133 641 139 647 c 1
 175 646 214 645 247 645 c 0
 284 645 334 646 367 647 c 1
 373 641 373 624 367 618 c 1
 332 616 292.6 605.4 296 572 c 2
 330 218 l 1
 337 152 l 1
 375 216 l 1
 572 583.5 l 1
 615 583.7 l 1
 615 583.7 622.1 520 626 486 c 2
 658 207 l 1
 665 146 l 1
 702 215 l 1
 889 561 l 2
 910.5 599.9 875.3 614 825 618 c 1
 819 624 819 641 825 647 c 1
 865 646 912 645 938 645 c 0
 964 645 1003 646 1036 647 c 1
 1042 641 1042 624 1036 618 c 1
 983 612 958.5 586.3 940 553 c 2
 639 11 l 2
 629 -7.1 625.5 -10 618 -10 c 0
 608.8 -10 603.1 -5.6 601 12 c 2
 559 367 l 2
 554.9 401.5 552 412.5 549.5 434.5 c 0
 549 436.8 545.5 437 544.5 437 c 0
 538.3 425.7 522.9 397.2 508 370 c 2
 312 12 l 2
 302.2 -5.8 299 -10 291 -10 c 0
 280.5 -10 278.9 -4.7 277 12 c 2
 217 546 l 2
EndSplineSet
EndChar

StartChar: u1D44B
Encoding: 119883 119883 24
Width: 628
VWidth: 999
Flags: W
ItalicCorrection: 124
TopAccentHorizontal: 452
HStem: -2 29<7.04979 69.5677 176 192 403 431 584.5 624> 618 29<141 179.5 317 356.172 541 569 660.18 727.999>
VStem: 326.6 93.9<289.031 369.625>
DStem2: 144 104 171 77 0.670259 0.742128<-38.431 262.682 375.53 668.559> 304 572 220 549 0.438126 -0.898914<-30.4014 207.046 289.912 544.419>
AnchorPoint: "unten_punkt" 287 -107 basechar 0
LayerCount: 2
Fore
SplineSet
134 625 m 2
 138 644 l 1
 141 647 l 1
 179 646 217 645 240 645 c 0
 263 645 312 646 357 647 c 1
 357 647 357 644 358 644 c 2
 355 625 l 2
 354 620 351 618 349 618 c 2
 317 616 l 2
 300 614.9 293.9 609.9 293.9 601.2 c 0
 293.9 594 298.1 584.2 304 572 c 2
 384 396 l 2
 388 389 391 385 393 385 c 0
 396 385 401 389 408 397 c 2
 566 572 l 2
 578.7 586.4 586.8 597.7 586.8 605.3 c 0
 586.8 611.4 581.5 615.1 569 616 c 2
 541 618 l 2
 537 618 534 620 535 625 c 2
 539 645 l 1
 541 647 l 1
 580 646 614 645 636 645 c 0
 658 645 691 646 730 647 c 1
 732 645 l 1
 728 625 l 2
 728 622 726 618 718 618 c 0
 660 616 633 588 600 552 c 2
 440 375 l 2
 429 363 423 354 421 345 c 0
 420.7 343.3 420.5 341.6 420.5 339.8 c 0
 420.5 331.5 424.2 322.7 430 312 c 2
 537 102 l 2
 556 63 582 30 624 27 c 0
 629 27 630 23 630 20 c 2
 626 0 l 1
 624 -2 l 1
 585 -1 545 0 523 0 c 0
 501 0 448 -1 403 -2 c 1
 400 0 l 1
 404 20 l 2
 405 24 407 27 411 27 c 2
 431 29 l 2
 454.1 31.4 463.2 34.4 463.2 43.6 c 0
 463.2 49.9 458.9 59.2 452 73 c 2
 362 261 l 2
 358 269 354 272 350 272 c 0
 348 272 341 266 333 258 c 2
 171 77 l 2
 160.5 64.4 152.4 52.9 152.4 44.2 c 0
 152.4 36.4 158.9 30.9 176 29 c 2
 194 27 l 2
 199 26 199 23 199 20 c 2
 195 0 l 1
 192 -2 l 1
 147 -1 122 0 84 0 c 0
 56 0 32 -1 3 -2 c 1
 3 0 l 1
 7 20 l 2
 8 25 13 27 19 27 c 0
 75 30 117 74 144 104 c 2
 312 291 l 2
 319 299 325 308 326 314 c 0
 326.4 316 326.6 318 326.6 320 c 0
 326.6 327.7 323.6 335.2 318 344 c 1
 220 549 l 2
 192 607 164 615 148 618 c 0
 139 620 133 621 134 625 c 2
EndSplineSet
EndChar

StartChar: u1D44C
Encoding: 119884 119884 25
Width: 552
VWidth: 999
Flags: W
ItalicCorrection: 131
TopAccentHorizontal: 405
HStem: -2 29<162.958 197 380 413.515> 618 29<123.795 141 300 334.949 488.966 521 632 660.452>
DStem2: 279 576 202 547 0.351542 -0.936172<-31.3472 255.499> 241.708 -2 318.708 -2 0.21644 0.976296<61.679 291.066> 368 335 388 310 0.565843 0.824513<0 322.09>
AnchorPoint: "unten_punkt" 270 -109 basechar 0
LayerCount: 2
Fore
SplineSet
336 76 m 2
 330 46 341.1 33.4 380 30 c 2
 414 27 l 1
 417 22 414 2 411 -2 c 1
 367 -1 322 0 284 0 c 0
 245 0 209 -1 164 -2 c 1
 160 7 162 23 166 27 c 1
 197 30 l 2
 238 34 254 48 259 76 c 2
 294 259 l 2
 296 269.2 297.3 278.9 297.3 284 c 0
 297.3 288 296.4 295.5 294 302 c 2
 202 547 l 2
 182 600 174.9 611.5 141 616 c 2
 126 618 l 1
 123 623 121 642 124 647 c 1
 152 646 191 645 228 645 c 0
 266 645 296 646 335 647 c 1
 337 643 336 623 333 618 c 1
 300 615 l 2
 266.1 611.9 269.9 602.4 279 576 c 2
 364 335 l 1
 368 335 l 1
 526 576 l 2
 546 605 545 612.8 521 615 c 2
 489 618 l 1
 487 622 488 643 491 647 c 1
 529 646 560 645 582 645 c 0
 604 645 633 646 662 647 c 1
 665 643 661 623 658 618 c 1
 632 616 l 2
 597 613 584 595 563 565 c 2
 388 310 l 2
 381 299 377.4 285.1 374 268 c 2
 336 76 l 2
EndSplineSet
EndChar

StartChar: u1D44D
Encoding: 119885 119885 26
Width: 578
VWidth: 999
Flags: W
ItalicCorrection: 115
TopAccentHorizontal: 420
HStem: 0 39<166.913 476.366> 605 40<249.242 543.09> 638 20G<199.5 224.5 647 661.021>
DStem2: 54 38 178 72 0.662125 0.749393<85.5204 742.481>
AnchorPoint: "unten_punkt" 267 -107 basechar 0
LayerCount: 2
Fore
SplineSet
528 -2 m 1
 528 -2 432 0 407 0 c 2
 57 0 l 2
 44.6 0 40.8 3.9 40.8 11.8 c 0
 40.8 19.7 46.8 30.8 54 38 c 2
 532 579 l 2
 538 586 542 592 543 597 c 0
 545 603 542 605 535 605 c 2
 314 605 l 2
 242 605 215 555 181 486 c 1
 153 491 l 1
 169 532 192 604 207 658 c 1
 242 655 237 645 282 645 c 2
 590 645 l 1
 620 648 641 655 653 655 c 0
 669 655 673.2 652.6 673.2 647.1 c 0
 673.2 638.3 665.4 620.6 639 591 c 2
 178 72 l 1
 172 63 168 57 167 52 c 0
 165 43 172 39 188 39 c 2
 412 39 l 2
 485 39 524 98 557 170 c 1
 586 165 l 1
 565 113 543 54 528 -2 c 1
EndSplineSet
EndChar

StartChar: u1D44E
Encoding: 119886 119886 27
Width: 486
VWidth: 999
Flags: HMW
ItalicCorrection: 26
TopAccentHorizontal: 310
HStem: -10 55<170.549 234.503 365.503 434.019> 408 31<284.925 388.623>
VStem: 78 80<53.9716 233.216> 323 78<25.5 151.086>
DStem2: 333 90 411 120 0.216598 0.976261<-10.2278 43.8187>
AnchorPoint: "unten_punkt" 174 -108 basechar 0
LayerCount: 2
Fore
SplineSet
410 433 m 1
 430 428 456 431 480 431 c 1
 411 120 l 2
 407 101 401 73 401 64 c 0
 401 52 410 50 413 50 c 0
 423 50 442 66 469 103 c 1
 482 103 486.8 95.5 492 87 c 1
 466 30 426 -10 364 -10 c 0
 330 -10 323 16 323 35 c 0
 323 47 326 67 333 90 c 2
 346 132 l 1
 344 134 l 1
 284 45 228 -10 175 -10 c 0
 91 -10 78 69 78 125 c 0
 78 282 223 439 330 439 c 0
 370 439 383 436 410 433 c 1
360 219 m 1
 385 283 395 389 395 389 c 1
 376 401 354 408 333 408 c 0
 241 408 158 247 158 141 c 0
 158 85 168 45 202 45 c 0
 234 45 311 129 360 219 c 1
EndSplineSet
Substitution2: "'sups' Hochgestellte 1" u1D44E.superior
Substitution2: "'sinf' Wissenschaftliche Indices 1" u1D44E.inferior
EndChar

StartChar: u1D44F
Encoding: 119887 119887 28
Width: 478
VWidth: 999
Flags: W
ItalicCorrection: 34
TopAccentHorizontal: 239
HStem: -10 35<180.183 261.792> 392 47<318.296 395.469> 643 29<158 191> 678 20G<284.5 302.5>
VStem: 410 82<226.319 378.435>
DStem2: 77.3174 -10 152.817 -10 0.207912 0.978148<67.5663 341.726 370.184 636.879>
AnchorPoint: "unten_punkt" 214 -108 basechar 0
LayerCount: 2
Fore
SplineSet
285 583 m 2
 230 336 l 1
 232 335 l 1
 267 376 318 439 387 439 c 0
 478 439 492 388 492 320 c 0
 492 217.9 400.4 89.7 309 27 c 0
 274 3 235.2 -10 204 -10 c 0
 114 -10 88 44 102 106 c 2
 205 563 l 2
 210 585 212 602 212 613 c 0
 212 635 204 641 191 641 c 2
 160 643 l 2
 156 643 155 645 155 648 c 2
 158 672 l 1
 199 675 271 688 298 698 c 1
 307 698 310 695 310 688 c 1
 310 688 299.5 647.9 285 583 c 2
410 301 m 0
 410 369 387 392 357 392 c 0
 309 392 264 331 217 276 c 1
 183 132 l 2
 166.9 63.7 172.9 25 209 25 c 0
 285.3 25 410 156 410 301 c 0
EndSplineSet
Substitution2: "'sups' Hochgestellte 1" u1D44F.superior
Substitution2: "'sinf' Wissenschaftliche Indices 1" u1D44F.inferior
EndChar

StartChar: u1D450
Encoding: 119888 119888 29
Width: 389
VWidth: 999
Flags: W
ItalicCorrection: 54
TopAccentHorizontal: 313
HStem: -10 59<191.798 290.055> 408 31<258.993 347.33>
VStem: 83 82<76.8014 267.349> 354 69<318.591 404.079>
AnchorPoint: "unten_punkt" 163 -113 basechar 0
LayerCount: 2
Fore
SplineSet
209 -10 m 0
 168.4 -10 133.6 9.1 113 38 c 0
 89.5 70.9 83 115.9 83 149 c 0
 83 238.8 116.4 316.3 165.1 368.5 c 0
 206.5 412.9 271 439 311 439 c 0
 419.5 439 423 382 423 343 c 0
 423 318 398 298 371 298 c 0
 354 298 344 314 344 330 c 0
 344 336 346.4 346.7 349 351 c 0
 352 356 354 364 354 370 c 0
 354 403 326 408 312 408 c 0
 235 408 165 320 165 171 c 0
 165 110.6 175.1 91.2 190 72 c 0
 204.4 53.4 223.3 49 240 49 c 0
 293 49 333 81.5 372 125.5 c 1
 381 125.5 391 118.5 394 108.5 c 1
 346 41.5 281 -10 209 -10 c 0
EndSplineSet
Substitution2: "'sinf' Wissenschaftliche Indices 1" u1D450.inferior
Substitution2: "'sups' Hochgestellte 1" u1D450.superior
EndChar

StartChar: u1D451
Encoding: 119889 119889 30
Width: 489
VWidth: 999
Flags: W
ItalicCorrection: 78
TopAccentHorizontal: 188
HStem: -10 46<174.281 244.196> 403 36<273.906 363.453> 643 29<395 428> 678 20G<521.5 539.5>
VStem: 81 80<43.9116 243.051> 328 78<25.5 116.433>
DStem2: 321.253 -10 395.954 -10 0.207912 0.978148<402.802 635.437>
AnchorPoint: "unten_punkt" 221 -107 basechar 0
LayerCount: 2
Fore
SplineSet
345 194 m 0
 374 247 391 293 391 316 c 0
 391 351 366 403 328 403 c 0
 236 403 161 256 161 150 c 0
 161 94 168 36 200 36 c 0
 239 36 296 104 345 194 c 0
345 116 m 1
 342 118 l 1
 282 30 235 -10 183 -10 c 0
 95 -10 81 79 81 134 c 0
 81 291 218 439 325 439 c 0
 363 439 392 414 404 384 c 1
 405 384 l 1
 442 563 l 2
 446.5 584.9 449 602 449 613 c 0
 449 635 441 641 428 641 c 2
 397 643 l 2
 393 643 392 645 392 648 c 2
 395 672 l 1
 436 675 508 688 535 698 c 1
 544 698 547 695 547 688 c 1
 547 688 537 648 522 583 c 2
 416 120 l 2
 412 101 406 73 406 64 c 0
 406 52 415 50 418 50 c 0
 428 50 447 66 474 103 c 1
 487 103 491.8 95.5 497 87 c 1
 471 30 431 -10 369 -10 c 0
 335 -10 328 16 328 35 c 0
 328 47 332 66 338 90 c 2
 345 116 l 1
EndSplineSet
Substitution2: "'sinf' Wissenschaftliche Indices 1" u1D451.inferior
Substitution2: "'sups' Hochgestellte 1" u1D451.superior
EndChar

StartChar: u1D452
Encoding: 119890 119890 31
Width: 401
VWidth: 999
Flags: W
ItalicCorrection: 43
TopAccentHorizontal: 302
HStem: -10 60<189.668 291.453> 408 31<259.407 348.982>
VStem: 83 83<72.8566 229.761> 355 69<308.115 404.501>
AnchorPoint: "unten_punkt" 158 -108 basechar 0
LayerCount: 2
Fore
SplineSet
355 370 m 0
 355 399 342 408 306 408 c 0
 264.1 408 209.1 378.5 173.8 237.4 c 1
 249.8 247.2 355 280.3 355 370 c 0
167 199 m 1
 166 191 166 170 166 165 c 0
 166 74 197 50 242 50 c 0
 290 50 313 59 370 117 c 1
 382 117 388 112 393 101 c 1
 334 25 273 -10 206 -10 c 0
 123 -10 83 57 83 142 c 0
 83 269 155 439 329 439 c 0
 401 439 424 390 424 365 c 0
 424 327 428 250 167 199 c 1
EndSplineSet
Substitution2: "'sinf' Wissenschaftliche Indices 1" u1D452.inferior
Substitution2: "'sups' Hochgestellte 1" u1D452.superior
EndChar

StartChar: u1D453
Encoding: 119891 119891 32
Width: 323
VWidth: 999
Flags: W
ItalicCorrection: 168
TopAccentHorizontal: 376
HStem: -238 33<9.82305 66.5608> 390 39<104.205 189 276 387.897> 669 29<344.692 386.97>
VStem: 391 80<600.122 668.321>
AnchorPoint: "unten_punkt" 222 -111 basechar 0
LayerCount: 2
Fore
SplineSet
78.6 -175 m 0
 115.3 -117.6 132 46 148 141 c 0
 160.6 216.1 165 276 189 390 c 1
 105 390 l 2
 102 390 100 390 100 392 c 0
 100 394 103 406 104 409 c 0
 106 417 114 425.2 132 426 c 2
 198 429 l 1
 236 606.5 277.7 645.1 310 671 c 0
 330 687 356.9 698 378 698 c 0
 438 698 471 664 471 626 c 0
 471 617 464 594 435 594 c 0
 403 594 395 620 391 641 c 0
 387 660 384.5 669 370 669 c 0
 357.5 669 345 660.7 330 633 c 0
 315.5 606.2 301.5 561.2 287 486 c 2
 276 429 l 1
 386 429 l 2
 391 429 393 427 393 424 c 0
 393 423 388 402 388 402 c 2
 386 394 371 390 362 390 c 2
 269 390 l 1
 266 373 l 2
 251.2 289.1 234.9 208.2 218.9 130 c 0
 180 -60 157.6 -136 130 -175 c 0
 99 -218 55 -238 14 -238 c 0
 -54 -238 -78.4 -214.3 -78.4 -192 c 0
 -78.4 -175 -68.9 -156 -41.3 -156 c 0
 -19.3 -156 0.2 -174.7 8.8 -188.5 c 0
 14.6 -197.7 19.4 -205 33 -205 c 0
 48 -205 67.5 -192.4 78.6 -175 c 0
EndSplineSet
EndChar

StartChar: u1D454
Encoding: 119892 119892 33
Width: 477
VWidth: 999
Flags: W
ItalicCorrection: 59
TopAccentHorizontal: 330
HStem: -238 33<134.945 318.505> 132 30<228.398 306.96> 399 40<408.227 494.702> 409 30<230.526 310.518>
VStem: 7 67<-164.04 -81.0241> 116 56<53.0338 121.393> 124 74<201.494 370.484> 341 74<203.417 378.878> 362 65<-170.623 -79.7387>
AnchorPoint: "unten_punkt" 197 -319 basechar 0
LayerCount: 2
Fore
SplineSet
161 -3 m 1
 136 -21 74 -65 74 -113 c 0
 74 -168 128 -205 240 -205 c 0
 328 -205 362 -165 362 -127 c 0
 362 -92 338 -70 282 -44 c 0
 249 -29 179 -7 161 -3 c 1
415 291 m 0
 415 192 350 132 263 132 c 0
 235 132 211 139 195 149 c 1
 186 132 172 108 172 88 c 0
 172 40 245 38 325 14 c 0
 379 -2 427 -35 427 -100 c 0
 427 -199 336 -238 199 -238 c 0
 118 -238 7 -217 7 -136 c 0
 7 -76 89 -21 142 8 c 1
 116 23 116 46 116 56 c 0
 116 91 145 139 170 165 c 1
 143 197 124 239 124 283 c 0
 124 363 168 439 280 439 c 0
 324.3 439 356 423 378 397 c 1
 413 429 451 439 477 439 c 0
 500 439 516 423 516 405 c 0
 516 386 503 372 485 372 c 0
 468.9 372 462 381 457 389 c 0
 454 394 451 399 442 399 c 0
 435 399 410 388 395 374 c 1
 409 354 415 318 415 291 c 0
341 291 m 0
 341 359 319 409 276 409 c 0
 210 409 198 354 198 282 c 0
 198 234 207 162 268 162 c 0
 328 162 341 229 341 291 c 0
EndSplineSet
Substitution2: "'sinf' Wissenschaftliche Indices 1" u1D454.inferior
Substitution2: "'sups' Hochgestellte 1" u1D454.superior
EndChar

StartChar: u1D456
Encoding: 119894 119894 34
Width: 276
VWidth: 999
Flags: W
ItalicCorrection: 41
TopAccentHorizontal: 253
HStem: -10 60<133 206.602> 395 28<118.543 162> 416 20G<229 251.6> 522 96<209.332 288.668>
VStem: 201 96<530.332 609.668>
AnchorPoint: "unten_punkt" 136 -107 basechar 0
LayerCount: 2
Fore
SplineSet
201 570 m 0x98
 201 596 223 618 249 618 c 0
 275 618 297 596 297 570 c 0
 297 544 275 522 249 522 c 0
 223 522 201 544 201 570 c 0x98
245.3 320.2 m 2
 200 124 l 2
 194.1 98.4 189 76 189 67 c 0
 189 55 191.9 50 199 50 c 0
 209 50 238 70 264 100 c 1
 278 100 284 92 287 83 c 1
 241 24 196 -10 148 -10 c 0
 118 -10 107 4 107 23 c 0
 107 42 117 83 124 115 c 2
 171 321 l 2
 177.7 349 180 362.9 180 372 c 0
 180 382 174 391 162 392 c 2
 122 395 l 1
 116 404 114.3 415 121 423 c 1xd8
 168 429 213 436 245 436 c 0xb8
 258.2 436 265.5 428.6 265.5 414.9 c 0
 265.5 397.8 254.3 359.3 245.3 320.2 c 2
EndSplineSet
Substitution2: "'sinf' Wissenschaftliche Indices 1" u1D456.inferior
Substitution2: "'sups' Hochgestellte 1" u1D456.superior
EndChar

StartChar: u1D457
Encoding: 119895 119895 35
Width: 259
VWidth: 999
Flags: W
ItalicCorrection: 63
TopAccentHorizontal: 260
HStem: -196 36<-2.19756 53.8029> 395 28<123.549 167> 416 20<234 256.624> 522 96<214.332 293.668>
VStem: 185 85.5<307.764 424.126> 206 96<530.332 609.668>
DStem2: 66.2421 -196 141.601 -196 0.207912 0.978148<223.024 579.858>
LayerCount: 2
Fore
SplineSet
251.3 320.2 m 2
 233 234 l 2
 181.5 -9.10001 129 -196 4 -196 c 0
 -40 -196 -78 -180 -78 -148 c 0
 -78 -126.9 -62.2 -117 -49 -117 c 0
 0.299999 -117 -5.2 -160 22 -160 c 0
 40 -160 74 -142 96 -56 c 0
 114.3 15.5 123.5 78.5 145 176 c 2
 177 321 l 2
 183 349 185 362.9 185 372 c 0
 185 382 179 391 167 392 c 2
 127 395 l 1
 121 404 119.3 415 126 423 c 1
 173 430 218 436 250 436 c 0
 263.2 436 270.5 428.6 270.5 414.9 c 0
 270.5 402 260 360 251.3 320.2 c 2
206 570 m 0
 206 596 228 618 254 618 c 0
 280 618 302 596 302 570 c 0
 302 544 280 522 254 522 c 0
 228 522 206 544 206 570 c 0
EndSplineSet
Substitution2: "'sinf' Wissenschaftliche Indices 1" u1D457.inferior
Substitution2: "'sups' Hochgestellte 1" u1D457.superior
EndChar

StartChar: u1D458
Encoding: 119896 119896 36
Width: 486
VWidth: 999
Flags: W
ItalicCorrection: 54
TopAccentHorizontal: 375
HStem: -10 52<368.1 439.07> 237.3 34.7<207.303 240.799> 368 71<413.017 494.927> 643 29<152 185> 678 20G<278.5 296.5>
DStem2: 71.3927 -10 145.427 -10 0.207912 0.978148<28.0831 272.824 304.032 636.863> 325 202 241 221 0.405404 -0.914138<-65.7359 182.783> 306 337 270 260 0.748997 0.662574<-77.9821 103.36>
AnchorPoint: "unten_punkt" 223 -107 basechar 0
LayerCount: 2
Fore
SplineSet
88.8 72 m 2
 199 563 l 2
 204 585 206 602 206 613 c 0
 206 635 198 641 185 641 c 2
 154 643 l 2
 150 643 149 645 149 648 c 2
 152 672 l 1
 193 675 265 688 292 698 c 1
 301 698 304 695 304 688 c 1
 304 688 294 648 279 583 c 2
 207 272 l 1
 228 272 249 288 266 302.7 c 2
 306 337 l 1
 378 401 439 439 471 439 c 0
 498 439 520 432 520 404 c 0
 520 373 488 354 474 354 c 0
 440 354 444 368 418 368 c 0
 398 368 371 350 322 306 c 2
 270 260 l 1
 270 256 l 1
 303 247 309.3 233.4 325 202 c 0
 339 174 352 135 380 80 c 0
 390.4 59.6 396.9 42 416 42 c 0
 427 42 448 61 468 90 c 1
 479 90 483 85 490 77 c 1
 458 21 423 -10 389 -10 c 0
 348 -10 323 21 290.4 93 c 0
 270 138.2 259 189 241 221 c 0
 236 230 229 237.3 221.4 237.3 c 0
 214 237.3 207 237 199 234 c 1
 162.9 72 l 2
 155 35 155 -10 117 -10 c 0
 85.2 -10 76.1 0.5 76.1 17.2 c 0
 76.1 27 84 52 88.8 72 c 2
EndSplineSet
Substitution2: "'sinf' Wissenschaftliche Indices 1" u1D458.inferior
Substitution2: "'sups' Hochgestellte 1" u1D458.superior
EndChar

StartChar: u1D459
Encoding: 119897 119897 37
Width: 266
VWidth: 999
Flags: W
ItalicCorrection: 65
TopAccentHorizontal: 252
HStem: -10 60<116.25 195.526> 643 29<159 192> 678 20G<285.5 303.5>
VStem: 93 79<24.5 151.032>
DStem2: 79.5802 -10 154.88 -10 0.207912 0.978148<91.9704 636.616>
AnchorPoint: "unten_punkt" 115 -107 basechar 0
LayerCount: 2
Fore
SplineSet
286 583 m 2
 184 127 l 2
 175 87 172 72 172 64 c 0
 172 56 176 50 184 50 c 0
 196 50 228 72 258 108 c 1
 271 108 276 101 280 91 c 1
 234.5 15.5 180.2 -10 135 -10 c 0
 97.5 -10 93 15 93 34 c 0
 93 53 99.9 87 107 119 c 2
 206 563 l 2
 210.9 584.8 213 602 213 613 c 0
 213 635 205 641 192 641 c 2
 161 643 l 2
 157 643 156 645 156 648 c 2
 159 672 l 1
 200 675 272 688 299 698 c 1
 308 698 311 695 311 688 c 1
 311 688 300.5 647.9 286 583 c 2
EndSplineSet
Substitution2: "'sinf' Wissenschaftliche Indices 1" u1D459.inferior
Substitution2: "'sups' Hochgestellte 1" u1D459.superior
EndChar

StartChar: u1D45A
Encoding: 119898 119898 38
Width: 783
VWidth: 999
Flags: W
ItalicCorrection: 23
TopAccentHorizontal: 492
HStem: -10 60<655.446 706.815> 379 60<371.054 454.095 616.924 694.885> 395 28<129.549 173>
VStem: 191 85.5<322.184 424.006> 431 77<266.587 378.676> 606.3 80.6<7.90054 129.992> 672 77<234.352 377.423>
DStem2: 106.643 -10 180.678 -10 0.21644 0.976296<28.2344 304.711 344.852 390.782> 356.643 -10 430.678 -10 0.21644 0.976296<28.2343 302.35> 596.51 -10 667.392 -10 0.21644 0.976296<89.0576 359.479>
AnchorPoint: "unten_punkt" 382 -105 basechar 0
LayerCount: 2
Fore
SplineSet
182 321 m 2xda
 188 349 191 362.9 191 372 c 0
 191 382 185 391 173 392 c 2
 133 395 l 1
 127 404 125.3 415 132 423 c 1xba
 179 429 224 436 256 436 c 0
 269.2 436 276.5 428.6 276.5 414.9 c 0
 276.5 397.8 264 359 254.3 320.2 c 2
 252 311 l 1
 254 310 l 1
 313 386 378 439 450 439 c 0
 478 439 508 422 508 352 c 0
 508 339 507 321 504 305 c 1
 562 378 617 439 688 439 c 0
 719 439 749 415 749 352 c 0xda
 749 333 745 302 739 279 c 2
 692 101 l 2
 689 89.7 686.9 64.6 686.9 61 c 0
 686.9 56 688.6 50 694 50 c 0
 712 50 740 77 764 115 c 1
 777 115 784 110 786 101 c 1
 752 19 697 -10 638 -10 c 0
 624 -10 606.3 3.4 606.3 23.4 c 0xdc
 606.3 32 613.8 72.8 624 114 c 2
 663 271 l 2
 671 302 672 331 672 342 c 0
 672 372 662 379 643 379 c 0
 611 379 572 348 487 229 c 1
 448.9 72 l 2
 440 34 441 -10 403 -10 c 0
 371.2 -10 362.1 0.5 362.1 17.2 c 0
 362.1 27 370 51.9 374.8 72 c 2
 423 275 l 2
 430 306 431 330 431 342 c 0
 431 372 425 379 405 379 c 0
 373 379 317 346 239 233 c 1
 198.9 72 l 2
 189 34 191 -10 153 -10 c 0
 121.2 -10 112.1 0.5 112.1 17.2 c 0
 112.1 27 120 52 124.8 72 c 2
 182 321 l 2xda
EndSplineSet
Substitution2: "'sups' Hochgestellte 1" u1D45A.superior
Substitution2: "'sinf' Wissenschaftliche Indices 1" u1D45A.inferior
EndChar

StartChar: u1D45B
Encoding: 119899 119899 39
Width: 518
VWidth: 999
Flags: W
ItalicCorrection: 22
TopAccentHorizontal: 364
HStem: -10 60<363 438.688> 379 60<344.297 437.5> 395 28<105.549 149>
VStem: 167 87.5<292.307 424.126> 337 85<7.74219 134.469> 405 79<246.617 377.592>
DStem2: 84.3924 -10 160.427 -10 0.207912 0.978148<28.0832 307.769> 327.43 -10 404.517 -10 0.207912 0.978148<95.4022 360.837>
AnchorPoint: "unten_punkt" 235 -111 basechar 0
LayerCount: 2
Fore
SplineSet
433 124 m 2
 427 98 422 76 422 67 c 0
 422 55 424.9 50 432 50 c 0
 442 50 471 70 497 100 c 1
 511 100 517 92 520 83 c 1
 474 24 426 -10 378 -10 c 0
 348 -10 337 4 337 23 c 0
 337 42 346 83 354 115 c 2
 392 275 l 2
 398.7 303.1 405 330.7 405 343 c 0
 405 374 391 379 370 379 c 0
 334 379 279 320 216 238 c 1
 177.9 72 l 2
 169 34 170 -10 132 -10 c 0
 100.2 -10 89.1 0.5 89.1 17.2 c 0
 89.1 27 97 52 101.8 72 c 2
 158 321 l 2
 164 349 167 363.9 167 372 c 0
 167 382 161 391 149 392 c 2
 109 395 l 1
 103 404 101.3 415 108 423 c 1
 155 430 202 436 234 436 c 0
 247.2 436 254.5 428.6 254.5 414.9 c 0
 254.5 400 246.4 357.1 233.3 320.2 c 2
 230 311 l 1
 231 310 l 1
 323 418 366 439 418 439 c 0
 457 439 484 419 484 359 c 0
 484 341 479 318 471 283 c 2
 433 124 l 2
EndSplineSet
Substitution2: "'sups' Hochgestellte 1" u1D45B.superior
Substitution2: "'sinf' Wissenschaftliche Indices 1" u1D45B.inferior
EndChar

StartChar: u1D45C
Encoding: 119900 119900 40
Width: 447
VWidth: 999
Flags: W
ItalicCorrection: 38
TopAccentHorizontal: 329
HStem: -10 37<199.174 296.264> 406 33<250.797 346.617>
VStem: 78 83<66.1742 274.021> 382 83<164.675 372.962>
AnchorPoint: "unten_punkt" 186.2 -107 basechar 0
LayerCount: 2
Fore
SplineSet
161 170 m 0
 161 65 204 27 233 27 c 0
 270.5 27 311 45 339 88 c 0
 375.5 144 382 230.4 382 270 c 0
 382 300.4 379.3 336.6 366.5 362 c 0
 352.3 390.1 336 406 306 406 c 0
 200 406 161 260 161 170 c 0
78 162 m 0
 78 282 157 439 324 439 c 0
 447 439 465 349 465 277 c 0
 465 158.8 397.1 52.9 310 9 c 0
 280.6 -5.8 250.3 -10 218 -10 c 0
 91 -10 78 109 78 162 c 0
EndSplineSet
Substitution2: "'sinf' Wissenschaftliche Indices 1" u1D45C.inferior
Substitution2: "'sups' Hochgestellte 1" u1D45C.superior
EndChar

StartChar: u1D45D
Encoding: 119901 119901 41
Width: 489
VWidth: 999
Flags: W
ItalicCorrection: 40
TopAccentHorizontal: 381
HStem: -235 30<-19 10 171 194> -10 35<215.551 315.623> 393 46<290.514 399.716>
VStem: 427 82<180.219 364.13>
DStem2: 46.6331 -238 121.633 -238 0.207912 0.978148<61.7966 283.441 315.78 328.351 571.658 640.586>
AnchorPoint: "unten_punkt" 248 -110 basechar 0
LayerCount: 2
Fore
SplineSet
266 404 m 1
 293 420 330 439 381 439 c 0
 481 439 509 373 509 289 c 0
 509 217 482 149 428 83 c 0
 384.4 29.7 326.2 -10 255 -10 c 0
 225.5 -10 197 7 182 23 c 1
 138 -161 l 2
 130 -195 156 -200 171 -202 c 2
 190 -205 l 2
 194 -206 196 -208 196 -213 c 2
 196 -233 l 1
 194 -235 l 1
 194 -235 126 -233 87 -233 c 0
 51 -233 -17 -238 -17 -238 c 1
 -19 -236 l 1
 -19 -217 l 2
 -19 -211 -14 -210 -9 -209 c 2
 10 -206 l 2
 42 -201 57 -189 63 -161 c 2
 166 298 l 1
 138 275 116 257 94 228 c 1
 76 228 66.9 234.8 63 249 c 1
 91 284 128 314 178 350 c 1
 191 409 l 2
 199 447 199 491 237 491 c 0
 269 491 279 481 279 464 c 0
 279 452 269.6 421.9 266 404 c 1
427 273 m 0
 427 322 417 393 349 393 c 0
 311 393 282 375 257 359 c 1
 191 67 l 1
 212 38 239 25 265 25 c 0
 303 25 342.6 55.2 369.2 96.5 c 0
 407 155.2 427 224.5 427 273 c 0
EndSplineSet
Substitution2: "'sinf' Wissenschaftliche Indices 1" u1D45D.inferior
Substitution2: "'sups' Hochgestellte 1" u1D45D.superior
EndChar

StartChar: u1D45E
Encoding: 119902 119902 42
Width: 491
VWidth: 999
Flags: W
ItalicCorrection: 36
TopAccentHorizontal: 339
HStem: -235 30<213 242 404 427> -10 42<188.648 262.902> 403 36<281.695 384.393>
VStem: 81 84<54.2114 251.973> 405 102<322 440> 465 40<427 435.766>
DStem2: 277.925 -238 353.93 -238 0.21644 0.976296<64.1529 346.993>
AnchorPoint: "unten_punkt" 169 -110 basechar 0
LayerCount: 2
Fore
SplineSet
405 330 m 0
 405 371 380 403 344 403 c 0
 242 403 165 278 165 158 c 0
 165 102 179.7 32 219 32 c 0
 256 32 344 115 367 180 c 0
 386 236 405 314 405 330 c 0
295 -161 m 2
 361 99 l 1
 358 100 l 1
 296 14 247 -10 198 -10 c 0
 104 -10 81 72 81 147 c 0
 81 319 234 439 340 439 c 0
 381 439 413 418 436 386 c 1
 465 427 l 2
 476.1 442.7 489 446 496 446 c 0
 499 446 507 444 507 436 c 0
 507 431 506.1 425.9 505 421 c 2
 371 -161 l 2
 363.2 -195 388.8 -199.6 404 -202 c 2
 423 -205 l 2
 427 -205.6 429 -208 429 -213 c 2
 429 -233 l 1
 427 -235 l 1
 427 -235 359 -233 320 -233 c 0
 284 -233 215 -238 215 -238 c 1
 213 -236 l 1
 213 -217 l 2
 213 -211 218.1 -209.8 223 -209 c 2
 242 -206 l 2
 274.3 -200.9 288 -188.8 295 -161 c 2
EndSplineSet
Substitution2: "'sinf' Wissenschaftliche Indices 1" u1D45E.inferior
Substitution2: "'sups' Hochgestellte 1" u1D45E.superior
EndChar

StartChar: u1D45F
Encoding: 119903 119903 43
Width: 357
VWidth: 999
Flags: MW
ItalicCorrection: 92
TopAccentHorizontal: 282
HStem: -10 21G<114.083 149.007> 372 67<327.919 402.982> 395 28<107.549 151>
DStem2: 83.643 -10 157.678 -10 0.21644 0.976296<28.5011 323.589 345.068 390.999>
AnchorPoint: "unten_punkt" 113 -110 basechar 0
LayerCount: 2
Fore
SplineSet
221 285 m 1xa0
 225 284 l 1
 269 377 327 439 377 439 c 0
 414 439 429 413 429 392 c 0
 429 365 411 336 384 336 c 0
 370 336 357 349 350 357 c 0
 344 364 339 369 329 369 c 0
 306 369 250 276 202 189 c 1
 172.9 72 l 2
 163 33 162 -10 127 -10 c 0
 98 -10 89.1 0.5 89.1 17.2 c 0
 89.1 33 97 50.5 101.8 72 c 2
 157 321 l 2
 164 349 164 362.9 164 372 c 0xc0
 164 382 158 391 146 392 c 2
 106 395 l 1
 100 404 98.3 415 105 423 c 1
 152 429 193 436 225 436 c 0
 238.2 436 246.5 426.3 246.5 410.9 c 0
 246.5 393.8 238 359 229.3 320.2 c 2
 221 285 l 1xa0
EndSplineSet
Substitution2: "'sinf' Wissenschaftliche Indices 1" u1D45F.inferior
Substitution2: "'sups' Hochgestellte 1" u1D45F.superior
EndChar

StartChar: u1D460
Encoding: 119904 119904 44
Width: 353
VWidth: 999
Flags: W
ItalicCorrection: 44
TopAccentHorizontal: 297
HStem: -10 33<146.319 243.724> 406 33<207.655 289.553>
VStem: 59 84<25.1188 93.8681> 123 64<287.053 380.712> 271 75<47.7795 151.196> 295 82<334.363 401.75>
AnchorPoint: "unten_punkt" 169 -111 basechar 0
LayerCount: 2
Fore
SplineSet
174 -10 m 0
 105 -6 59 31 59 68 c 0
 59 79 67 103 96 103 c 0
 126 103 140 73 143 50 c 0
 146 28 160 23 186 23 c 0
 231 23 271 42 271 97 c 0
 271 118 263 151 210 187 c 0
 145 231 123 274 123 314 c 0
 123 375 176 439 263 439 c 0
 325 439 377 395 377 359 c 0
 377 343 369 325 341 325 c 0
 315 325 298 353 295 377 c 0
 292 398 275 406 250 406 c 0
 207 406 187 370 187 335 c 0
 187 310 197 292 227 272 c 0
 319 211 346 165 346 118 c 0
 346 44 287 -10 189 -10 c 0
 184 -10 179 -10 174 -10 c 0
EndSplineSet
Substitution2: "'sinf' Wissenschaftliche Indices 1" u1D460.inferior
Substitution2: "'sups' Hochgestellte 1" u1D460.superior
EndChar

StartChar: u1D461
Encoding: 119905 119905 45
Width: 307
VWidth: 999
Flags: MW
ItalicCorrection: 76
TopAccentHorizontal: 257
HStem: -10 60<138.5 218.126> 390 39<108.202 180 263 364.943>
DStem2: 87.6231 -10 161.628 -10 0.21644 0.976296<92.8782 410.512 466.552 573.478>
AnchorPoint: "unten_punkt" 133 -107 basechar 0
LayerCount: 2
Fore
SplineSet
186 429 m 1
 199 479 l 2
 208.6 516 207 561 243 561 c 0
 275 561 283 551 283 534 c 0
 283 522 274.2 492.7 270 474 c 2
 260 429 l 1
 359 429 l 1
 370 421 361 395 349 390 c 1
 251 390 l 1
 192 127 l 2
 184.4 93.1 181 73 181 64 c 0
 181 52 191 50 194 50 c 0
 210 50 228 60 274 112 c 1
 286 112 293 106 296 93 c 1
 261.5 31 195.5 -10 151 -10 c 0
 120 -10 102 0 102 36 c 0
 102 55 108.7 85.6 116 118 c 2
 177 390 l 1
 107 390 l 2
 104 390 101 390 101 392 c 0
 101 394 104 406 105 409 c 0
 107 417 114 425 133 426 c 2
 186 429 l 1
EndSplineSet
Substitution2: "'sinf' Wissenschaftliche Indices 1" u1D461.inferior
Substitution2: "'sups' Hochgestellte 1" u1D461.superior
EndChar

StartChar: u1D462
Encoding: 119906 119906 46
Width: 521
VWidth: 999
Flags: MW
ItalicCorrection: 36
TopAccentHorizontal: 356
HStem: -10 60<176.33 259.538 403.501 455.102> 379 60<170.386 253.475>
DStem2: 97.4109 -10 172.307 -10 0.21644 0.976296<117.425 382.151> 350.288 -10 420.293 -10 0.21644 0.976296<94.7975 168.491 212.755 447.949>
AnchorPoint: "unten_punkt" 226.4 -111 basechar 0
LayerCount: 2
Fore
SplineSet
506 352 m 2
 450 124 l 2
 444 98 439 76 439 67 c 0
 439 55 442 50 449 50 c 0
 459 50 488 70 514 100 c 1
 528 100 534 92 537 83 c 1
 491 24 446 -10 398 -10 c 0
 368 -10 361 4 361 23 c 0
 361 42 369 83 378 115 c 2
 389 154 l 1
 386 156 l 1
 315 52 265 -10 187 -10 c 0
 152 -10 120 13 120 70 c 0
 120 89 123 111 130 137 c 2
 174 305 l 2
 181 331 187 353 187 362 c 0
 187 374 184 379 177 379 c 0
 167 379 134 359 108 329 c 1
 94 329 88 337 85 346 c 1
 131 405 188 439 236 439 c 0
 266 439 272 425 272 406 c 0
 272 387 259 346 251 314 c 2
 208 151 l 2
 201 124 199 103 199 87 c 0
 199 60 211 50 229 50 c 0
 279 50 328 121 402 247 c 1
 431 357 l 2
 441 395 439 439 477 439 c 0
 509 439 519 429 519 412 c 0
 519 400 509.6 369.9 506 352 c 2
EndSplineSet
Substitution2: "'sinf' Wissenschaftliche Indices 1" u1D462.inferior
Substitution2: "'sups' Hochgestellte 1" u1D462.superior
EndChar

StartChar: u1D463
Encoding: 119907 119907 47
Width: 472
VWidth: 999
Flags: W
ItalicCorrection: 67
TopAccentHorizontal: 347
HStem: -12 21G<263.208 275.256> 357 82<162.208 226.5>
VStem: 447 72.4<298.406 412.157>
DStem2: 271 309 196 296 0.169636 -0.985507<-63.611 235.315>
LayerCount: 2
Fore
SplineSet
304.6 76 m 1
 309 73.5 l 1
 322.9 84.8 359 131.6 371.6 148.5 c 0
 410.2 200.1 447 277.7 447 321.5 c 0
 447 337.9 441.2 358.6 426 381.5 c 0
 422.7 386.4 420.5 395.8 420.5 402 c 0
 420.5 426.3 437.7 439 467 439 c 0
 505.5 439 519.4 420 519.4 391.6 c 0
 519.4 356.4 507.2 319.8 492.3 285 c 0
 464.1 218.9 418.3 158.4 396.5 127.5 c 0
 382.1 107.1 344.1 58.9 313.2 24.5 c 0
 294.3 3.5 280.5 -12 270 -12 c 0
 256.4 -12 245.6 7.9 238 52 c 2
 196 296 l 2
 188.4 340.3 182.5 357 173 357 c 0
 154 357 131 335.7 103 308.7 c 1
 91.8 310.2 84.4 316.5 81.7 326.8 c 1
 116.7 380.1 174.5 439 208 439 c 0
 245 439 257 402 271 309 c 2
 304.6 76 l 1
EndSplineSet
Substitution2: "'sinf' Wissenschaftliche Indices 1" u1D463.inferior
Substitution2: "'sups' Hochgestellte 1" u1D463.superior
EndChar

StartChar: u1D464
Encoding: 119908 119908 48
Width: 688
Flags: W
ItalicCorrection: 67
TopAccentHorizontal: 318
HStem: -12 21G<260.5 268.833 497.667 507.755> 357 82<162.208 226.5>
VStem: 663 72.4<298.205 412.157>
DStem2: 271 309 196 296 0.169636 -0.985507<-63.6174 215.681> 307.5 94.5 306.6 27 0.497606 0.867403<0 203.651>
AnchorPoint: "unten_punkt" 355 -110 basechar 0
LayerCount: 2
Fore
SplineSet
265 -12 m 0
 256 -12 246.7 1.6 238 52 c 2
 196 296 l 2
 188.4 340.3 182.5 357 173 357 c 0
 154 357 131 335.7 103 308.7 c 1
 91.8 310.2 84.4 316.5 81.7 326.8 c 1
 116.7 380.1 174.5 439 208 439 c 0
 245 439 256.2 401.9 271 309 c 2
 305 96 l 1
 307.5 94.5 l 1
 331 130.5 396.4 249.5 438 346 c 1
 454 354 470.5 357.5 487 358 c 1
 494 340.5 502.7 307.1 511.9 269 c 0
 524.9 214.9 538.3 148.4 546.8 96 c 1
 554.4 94 l 1
 567.5 108.4 583.6 127.6 599.1 148.5 c 0
 637.1 199.9 663 276.5 663 321.5 c 0
 663 337.9 657.2 358.6 642 381.5 c 0
 638.7 386.4 636.5 395.8 636.5 402 c 0
 636.5 426.3 653.7 439 683 439 c 0
 721.5 439 735.4 420 735.4 391.6 c 0
 735.4 356.4 723.2 319.8 708.3 285 c 0
 680.1 218.9 644.8 157.4 623 126.5 c 0
 608.6 106.1 576.9 61.1 548 25 c 0
 528 0 513.5 -12 502 -12 c 0
 493.3 -12 486 -2 479 46.3 c 0
 469.3 113.1 454 194 439.5 258 c 1
 433.5 257 l 1
 398.9 181.9 343.8 85.5 306.6 27 c 0
 290.9 2.3 272.7 -12 265 -12 c 0
EndSplineSet
Substitution2: "'sinf' Wissenschaftliche Indices 1" u1D464.inferior
Substitution2: "'sups' Hochgestellte 1" u1D464.superior
EndChar

StartChar: u1D465
Encoding: 119909 119909 49
Width: 475
VWidth: 999
Flags: W
ItalicCorrection: 81
TopAccentHorizontal: 336
HStem: -10 64<57.1484 148.041> -10 49<343 425.287> 362.5 76.5<165.817 235.5 441.379 530.282> 376 63<413.477 516.905>
DStem2: 157 73 195 68 0.577937 0.816082<-31.4944 139.248 253.07 404.713> 276 367 215.004 308.999 0.313289 -0.949658<-8.98377 92.342 136.614 140.633 185.854 348.942>
AnchorPoint: "unten_punkt" 224 -110 basechar 0
LayerCount: 2
Fore
SplineSet
215 309 m 2x80
 208.7 326.5 202 343.3 197.5 351 c 0
 192.5 359.5 182.5 362.5 169.5 362.5 c 0
 149 362.5 116 346.5 104 340.8 c 1
 96 348.5 92.4 360.6 91 371.5 c 1
 126 397.5 199.5 439 223 439 c 0
 248 439 259.4 419.2 276 367 c 2
 304 279 l 1
 354 351 l 2
 403.2 421.8 436 439 486 439 c 0xa0
 509 439 536 424 536 399 c 0
 536 376 518 356 504 356 c 0
 494 356 478.4 360.2 471 366 c 0
 462 373 449 376 441 376 c 0
 434 376 409.7 372.2 394 349 c 2
 318 237 l 1
 372 76 l 2
 380.2 51.7 387 39 396 39 c 0
 407 39 420 47 446 80 c 1
 457 78.2 466.2 70.2 470 61 c 1
 439 9 395 -10 360 -10 c 0x50
 326 -10 315.7 6 303 46 c 2
 264.5 167.5 l 1
 195 68 l 2
 151.2 5.2 127 -10 93 -10 c 0
 70 -10 35 2 35 28 c 0
 35 50 51 66 73 66 c 0
 83 66 93 64 102 60 c 0
 110 56 121 54 129 54 c 0
 136 54 146.6 57.8 157 73 c 2
 250.5 210.5 l 1
 215 309 l 2x80
EndSplineSet
Substitution2: "'sinf' Wissenschaftliche Indices 1" u1D465.inferior
Substitution2: "'sups' Hochgestellte 1" u1D465.superior
EndChar

StartChar: u1D466
Encoding: 119910 119910 50
Width: 503
VWidth: 999
Flags: W
ItalicCorrection: 66
TopAccentHorizontal: 337
HStem: -234 61<101.5 172.427> 362.5 76.5<165.817 235.5>
VStem: 477 72.4<298.491 412.157>
DStem2: 262 -62 307 -70 0.544988 0.838444<-134.114 34.4231 109.102 306.757>
AnchorPoint: "unten_punkt" 368 -107 basechar 0
LayerCount: 2
Fore
SplineSet
352.5 0 m 1
 307 -70 l 2
 242.5 -169.2 163 -234 110 -234 c 0
 93 -234 49 -225 49 -192 c 0
 49 -161 74 -141 95 -141 c 0
 103 -141 123 -149 130 -155 c 0
 136 -160 155 -173 165 -173 c 0
 179 -173 221 -129 262 -62 c 1
 273.9 -36.5 243.5 207.2 213 309 c 0
 207.6 327.1 202 343.3 197.5 351 c 0
 192.5 359.5 182.5 362.5 169.5 362.5 c 0
 149 362.5 116 346.5 104 340.8 c 1
 96 348.5 92.4 360.6 91 371.5 c 1
 126 397.5 199.5 439 223 439 c 0
 248 439 261 418 275 365 c 1
 305 241.4 312 147 318 30.5 c 1
 324.5 27.5 l 1
 350.2 65.1 401.6 148.5 401.6 148.5 c 2
 436.2 202.8 477 277.7 477 321.5 c 0
 477 337.9 471.2 358.6 456 381.5 c 0
 452.7 386.4 450.5 395.8 450.5 402 c 0
 450.5 426.3 467.7 439 497 439 c 0
 535.5 439 549.4 420 549.4 391.6 c 0
 549.4 356.4 537.2 319.8 522.3 285 c 0
 494.1 218.9 372.1 32.4 352.5 0 c 1
EndSplineSet
Substitution2: "'sinf' Wissenschaftliche Indices 1" u1D466.inferior
Substitution2: "'sups' Hochgestellte 1" u1D466.superior
EndChar

StartChar: u1D467
Encoding: 119911 119911 51
Width: 436
VWidth: 488
Flags: MW
ItalicCorrection: 51
TopAccentHorizontal: 330
HStem: -10 77<251.946 365.067> 41 61<175.905 215.473> 354 58<256.44 403.515> 363 76<159.224 334.769>
DStem2: 116 91 175.905 101.999 0.651293 0.758827<-103.467 -17.4213 47.362 47.362 48.4216 357.705>
AnchorPoint: "unten_punkt" 187 -111 basechar 0
LayerCount: 2
Fore
SplineSet
438 444 m 1
 467 429 l 1
 457 413 437 392 412 362 c 0
 355.5 292.1 245.7 179.9 175.9 102 c 1
 267.9 102 262.4 67 313 67 c 0
 341 67 370 72 408 133 c 1
 420 133 427.1 129.7 433 123 c 1
 386 15 353 -10 310 -10 c 0
 282 -10 249 0 224 15 c 0
 192 35 165 41 148 41 c 0
 138 41 113 25 91 -12 c 1
 83 -11 76 -9 68 -6 c 1
 62 -5 57 0 54 7 c 1
 58 21 96 68 116 91 c 2
 356.5 355.8 l 1
 346.6 354.4 338.6 354 325 354 c 0
 296 354 258 363 213 363 c 0
 167 363 150 353 129 307 c 1
 118 307 109 308 102 315 c 1
 119 374 164 439 199 439 c 0
 227 439 257 434 305 426 c 1
 352 416 366 412 384 412 c 0
 400 412 415 418 438 444 c 1
EndSplineSet
Substitution2: "'sinf' Wissenschaftliche Indices 1" u1D467.inferior
Substitution2: "'sups' Hochgestellte 1" u1D467.superior
EndChar

StartChar: u1D6E2
Encoding: 120546 120546 52
Width: 667
VWidth: 999
Flags: W
TopAccentHorizontal: 475
HStem: -2 29<5.01562 68.791 190 218 422.344 459 648 662> 241 42<283.8 474> 638 20<469 483>
DStem2: 496 628 433 550 0.167348 -0.985898<66.3571 336.453 379.2 559.216> 437 622 286 296 0.518119 0.855308<-607.433 -412.453 -363.359 -357.067>
LayerCount: 2
Fore
SplineSet
307 283 m 2
 474 283 l 1
 433 550 l 1
 431 550 l 1
 286 296 l 2
 284.5 293.6 283.8 291.6 283.8 289.9 c 0
 283.8 284.7 291.1 283 307 283 c 2
161 79 m 2
 156.2 70.7 153.8 62.7 153.8 55.9 c 0
 153.8 41.1 165.3 31.1 190 29 c 2
 217 27 l 2
 221 27 223.5 24 223 19 c 2
 221 0 l 1
 218 -2 l 1
 183 -1 132 0 93 0 c 0
 56 0 40 -1 4 -2 c 1
 3 0 l 1
 6 19 l 2
 6.8 24.4 10 27 15 27 c 0
 57 30 85 40 122 102 c 2
 437 622 l 2
 453 649 462 658 476 658 c 0
 490 658 493 647 496 628 c 2
 588 86 l 2
 594 47 610 32 648 28 c 2
 658 27 l 2
 663 27 666.5 24 666 19 c 2
 664 0 l 1
 662 -2 l 1
 627 -1 588 0 549 0 c 0
 512 0 458 -1 422 -2 c 1
 421 0 l 1
 423 19 l 2
 423.6 24.3 427 27 431 27 c 2
 459 29 l 2
 491.6 31.6 507.9 41.3 507.9 62.7 c 0
 507.9 65.6 507.6 68.7 507 72 c 2
 482 241 l 1
 282 241 l 2
 259 241 252 237 245 224 c 2
 161 79 l 2
EndSplineSet
EndChar

StartChar: u1D6E3
Encoding: 120547 120547 53
Width: 557
VWidth: 999
Flags: W
ItalicCorrection: 24
TopAccentHorizontal: 417
HStem: -2 34<19.1875 57 196.354 372.124> 332 34<250 399.612> 613 34<144 171 298.263 442.673>
VStem: 469.6 89<131.913 275.098> 485.7 76.2<448.468 580.368>
DStem2: 99.4834 -2 176.995 -2 0.207912 0.978148<84.0653 356.748 587.014 604.537>
LayerCount: 2
Fore
SplineSet
290 570 m 2
 250 366 l 1
 321 366 l 2
 401 366 465 396 482 481 c 0
 484.5 493.8 485.7 505.4 485.7 516 c 0
 485.7 590 429.2 613 382 613 c 0
 298 613 296 603 290 570 c 2
244 332 m 1
 194 78 l 2
 193.1 72.8 192.5 68.2 192.5 64 c 0
 192.5 41.3 208.5 32 265 32 c 0
 411 32 451 92 466 165 c 0
 468.4 177.5 469.6 189.8 469.6 201.6 c 0
 469.6 274.9 422.8 332 310 332 c 2
 244 332 l 1
20 19 m 2
 21 24 23 27 28 27 c 2
 57 29 l 2
 98 32 108 36 115 71 c 2
 213 574 l 2
 214.5 581.1 215.3 586.9 215.3 591.7 c 0
 215.3 610 203.5 613.6 171 616 c 2
 143 618 l 2
 138 618 137 621 137 625 c 2
 141 645 l 1
 144 647 l 1
 189 646 228 645 265 645 c 0
 304 645 348 647 382 647 c 0
 528.5 647 561.9 588.1 561.9 529.9 c 0
 561.9 517.4 560.3 504.9 558 493 c 0
 548 439 496 387 443 362 c 1
 443 360 l 1
 511.3 338.4 558.6 294.4 558.6 220.9 c 0
 558.6 209.3 557.4 197 555 184 c 0
 538 98 468 -2 277 -2 c 0
 191 -2 178 0 140 0 c 0
 102 0 63 -1 18 -2 c 1
 16 0 l 1
 20 19 l 2
EndSplineSet
EndChar

StartChar: u1D6E4
Encoding: 120548 120548 54
Width: 516
VWidth: 999
Flags: W
ItalicCorrection: 118
TopAccentHorizontal: 415
HStem: -2 28<14.6875 98.8875 198.749 269> 605 39<287.26 544.648> 617 28<128 202.594>
VStem: 578 27<484 553.425>
DStem2: 114 70 194 70 0.174569 0.984645<3.09913 527.669>
LayerCount: 2
Fore
SplineSet
255 643 m 2
 333 644 l 1
 614 644 l 1
 605 484 l 1
 578 479 l 1
 575 552 556 605 491 605 c 2
 325 605 l 2
 303 605 288 599 283 572 c 2
 194 70 l 2
 194 66 193 62 193 59 c 0
 193 38 207 26 242 26 c 2
 268 26 l 2
 273 26 275 23 274 18 c 2
 271 0 l 1
 269 -2 l 1
 269 -2 176 0 140 0 c 0
 101 0 14 -2 14 -2 c 1
 12 0 l 1
 16 18 l 1
 16 23 21 26 25 26 c 2
 52 26 l 2
 91 26 108 40 114 70 c 2
 203 572 l 2
 204 579 205 585 205 590 c 0
 205 611 193 617 159 617 c 2
 129 617 l 2
 125 617 122 620 123 625 c 2
 125 643 l 1
 128 645 l 1
 230 644 242 643 255 643 c 2
EndSplineSet
EndChar

StartChar: u1D6E5
Encoding: 120549 120549 55
Width: 636
VWidth: 487
Flags: W
TopAccentHorizontal: 434
HStem: -2 33<86 517> 631 20G<401 470>
DStem2: 29 18 86 31 0.507258 0.861794<40.1171 649.962> 470 650 398 555 0.213328 -0.976981<77.4535 614.777>
LayerCount: 2
Fore
SplineSet
467 651 m 1
 469 651 l 1
 470 650 l 1
 608 18 l 2
 608 14 609 12 609 9 c 0
 609 8 608 7 608 6 c 2
 608 4 l 2
 608 3 607 2 607 1 c 1
 606 1 605 0 604 0 c 0
 601 -2 595 -2 588 -2 c 2
 42 -2 l 2
 30 -2 23 -1 22 2 c 0
 21 3 21 3 21 4 c 2
 21 4 21 4 22 5 c 1
 22 5 22 5 22 6 c 0
 23 9 26 13 29 18 c 2
 401 650 l 1
 402 651 l 1
 404 651 l 1
 467 651 l 1
398 555 m 1
 86 31 l 1
 517 31 l 1
 398 555 l 1
EndSplineSet
EndChar

StartChar: u1D6E6
Encoding: 120550 120550 56
Width: 526
VWidth: 999
Flags: W
ItalicCorrection: 47
TopAccentHorizontal: 383
HStem: -2 29<13.5 53> 0 39<187.07 414.098> 323 38<245 398.75> 416 20<437 463> 605 40<289.999 488.076> 618 29<139 167>
VStem: 398 31<255 293.293> 517 28<501 562.787>
DStem2: 111 72 188 72 0.190817 0.981626<4.37501 270.431 309.259 522.297>
LayerCount: 2
Fore
SplineSet
553 646 m 0
 553 638 549 542 545 501 c 1
 517 496 l 1
 509 565 499 605 427 605 c 2
 327 605 l 2
 304 605 290 595 285 571 c 2
 245 361 l 1
 367 361 l 2
 400 361 414 375 423 403 c 1
 430 428 l 2
 431 432 435 436 439 436 c 2
 460 436 l 1
 463 432 l 1
 452 392 445 362 442 342 c 0
 438 322 433 295 429 255 c 1
 424 252 l 1
 403 252 l 2
 398 252 397 257 398 260 c 2
 400 285 l 2
 400.3 288 400.5 290.8 400.5 293.4 c 0
 400.5 315.8 388.6 323 359 323 c 2
 237 323 l 1
 188 72 l 2
 187.3 68.1 186.9 64.7 186.9 61.6 c 0
 186.9 43.4 199 39 217 39 c 2
 347 39 l 2
 420 39 469 98 502 170 c 1
 531 165 l 1
 509 113 484 50 463 -2 c 1
 463 -2 387 0 341 0 c 2
 135 0 l 2
 98 0 58 -1 13 -2 c 1
 11 0 l 1
 15 20 l 2
 16 23 18 27 24 27 c 2
 53 29 l 2
 91 32 105 44 111 72 c 2
 208 571 l 2
 209 576.3 209.5 580.9 209.5 585.1 c 0
 209.5 605.5 196.9 613.5 167 616 c 2
 139 618 l 2
 132 618 132 622 133 625 c 2
 137 645 l 1
 139 647 l 1
 184 646 223 645 260 645 c 2
 503 645 l 2
 526 645 532 646 549 649 c 0
 552 649 553 648 553 646 c 0
EndSplineSet
EndChar

StartChar: u1D6E7
Encoding: 120551 120551 57
Width: 578
VWidth: 999
Flags: W
ItalicCorrection: 115
TopAccentHorizontal: 420
HStem: 0 39<166.913 476.366> 605 40<249.242 543.09> 638 20<199.5 224.5 647 661.021>
DStem2: 54 38 178 72 0.662125 0.749393<85.5204 742.481>
LayerCount: 2
Fore
SplineSet
528 -2 m 1
 528 -2 432 0 407 0 c 2
 57 0 l 2
 44.6 0 40.8 3.9 40.8 11.8 c 0
 40.8 19.7 46.8 30.8 54 38 c 2
 532 579 l 2
 538 586 542 592 543 597 c 0
 545 603 542 605 535 605 c 2
 314 605 l 2
 242 605 215 555 181 486 c 1
 153 491 l 1
 169 532 192 604 207 658 c 1
 242 655 237 645 282 645 c 2
 590 645 l 1
 620 648 641 655 653 655 c 0
 669 655 673.2 652.6 673.2 647.1 c 0
 673.2 638.3 665.4 620.6 639 591 c 2
 178 72 l 1
 172 63 168 57 167 52 c 0
 165 43 172 39 188 39 c 2
 412 39 l 2
 485 39 524 98 557 170 c 1
 586 165 l 1
 565 113 543 54 528 -2 c 1
EndSplineSet
EndChar

StartChar: u1D6E8
Encoding: 120552 120552 58
Width: 673
VWidth: 999
Flags: W
ItalicCorrection: 124
TopAccentHorizontal: 451
HStem: -2 29<19.958 54 237 270.515 409.958 444 627 660.515> 321 42<247 557> 618 29<135.485 169 352 386.042 525.485 559 742 776.042>
DStem2: 99.4206 -2 176.421 -2 0.207912 0.978148<60.3633 614.198> 489.421 -2 566.421 -2 0.207912 0.978148<60.3633 614.198>
LayerCount: 2
Fore
SplineSet
603 569 m 2
 608.9 598.8 597.9 611.6 559 615 c 2
 525 618 l 1
 522 623 525 643 528 647 c 1
 572 646 617 645 655 645 c 0
 694 645 730 646 775 647 c 1
 779 638 777 622 773 618 c 1
 742 615 l 2
 701 611 686 597 680 569 c 2
 583 76 l 2
 577 45.5 588.1 33.4 627 30 c 2
 661 27 l 1
 664 22 661 2 658 -2 c 1
 614 -1 569 0 531 0 c 0
 492 0 456 -1 411 -2 c 1
 407 7 409 23 413 27 c 1
 444 30 l 2
 484.7 33.9 500.4 47.8 506 76 c 2
 554.2 321 l 1
 241.2 321 l 1
 193 76 l 2
 187 45.5 198.1 33.4 237 30 c 2
 271 27 l 1
 274 22 271 2 268 -2 c 1
 224 -1 179 0 141 0 c 0
 102 0 66 -1 21 -2 c 1
 17 7 19 23 23 27 c 1
 54 30 l 2
 94.7 33.9 110.4 47.8 116 76 c 2
 213 569 l 2
 218.9 598.8 207.9 611.6 169 615 c 2
 135 618 l 1
 132 623 135 643 138 647 c 1
 182 646 227 645 265 645 c 0
 304 645 340 646 385 647 c 1
 389 638 387 622 383 618 c 1
 352 615 l 2
 311 611 296 597 290 569 c 2
 249.5 363 l 1
 562.5 363 l 1
 603 569 l 2
EndSplineSet
EndChar

StartChar: u1D6E9
Encoding: 120553 120553 59
Width: 668
VWidth: 487
Flags: W
ItalicCorrection: 58
TopAccentHorizontal: 455
HStem: -10 34<284.934 428.867> 297 56<297.709 538.856> 624 34<367.544 514.015>
VStem: 87.4 90.9<131.227 364.409> 272 28<390 404.951> 537 28<246 261> 617.3 89<275.856 513.791>
LayerCount: 2
Fore
SplineSet
509 353 m 2
 541 353 555 356 561 390 c 2
 562 396 l 2
 563 402 566 404 570 404 c 2
 593 404 l 1
 593 404 582 360 577 332 c 0
 571 298 565 246 565 246 c 1
 543 246 l 2
 541 246 536 247 537 254 c 2
 538 261 l 2
 539 266 539 270 539 273 c 0
 539 295 524 297 499 297 c 2
 328 297 l 2
 295 297 282 294 276 261 c 1
 275 254 l 1
 273 248 270 246 266 246 c 2
 244 246 l 1
 244 246 257 298 263 332 c 0
 268 360 272 405 272 405 c 1
 294 405 l 1
 301 404 301 400 300 397 c 2
 299 390 l 2
 298 384 297 379 297 375 c 0
 297 354 310 353 338 353 c 2
 509 353 l 2
436 624 m 0
 349 624 227 537 187 327 c 0
 181.1 297.2 178.3 269.5 178.3 243.7 c 0
 178.3 103.3 259.8 24 357 24 c 0
 467 24 572 131 607 310 c 0
 614 346.5 617.3 379.9 617.3 410.1 c 0
 617.3 552 544 624 436 624 c 0
699 329 m 0
 660 129 515 -10 331 -10 c 0
 188.3 -10 87.4 82 87.4 234.4 c 0
 87.4 258.2 89.9 283.4 95 310 c 0
 133 506 284 658 455 658 c 0
 601.1 658 706.3 558.9 706.3 402.9 c 0
 706.3 379.5 704 354.8 699 329 c 0
EndSplineSet
EndChar

StartChar: u1D6EA
Encoding: 120554 120554 60
Width: 280
VWidth: 999
Flags: W
ItalicCorrection: 127
TopAccentHorizontal: 286
HStem: -2 29<19.958 54 237 270.515> 618 29<135.485 169 352 386.042>
DStem2: 99.4206 -2 176.421 -2 0.207912 0.978148<60.3633 614.198>
LayerCount: 2
Fore
SplineSet
213 569 m 2
 218.9 598.8 207.9 611.6 169 615 c 2
 135 618 l 1
 132 623 135 643 138 647 c 1
 182 646 227 645 265 645 c 0
 304 645 340 646 385 647 c 1
 389 638 387 622 383 618 c 1
 352 615 l 2
 311 611 296 597 290 569 c 2
 193 76 l 2
 187 45.5 198.1 33.4 237 30 c 2
 271 27 l 1
 274 22 271 2 268 -2 c 1
 224 -1 179 0 141 0 c 0
 102 0 66 -1 21 -2 c 1
 17 7 19 23 23 27 c 1
 54 30 l 2
 94.7 33.9 110.4 47.8 116 76 c 2
 213 569 l 2
EndSplineSet
EndChar

StartChar: u1D6EB
Encoding: 120555 120555 61
Width: 637
VWidth: 999
Flags: W
ItalicCorrection: 105
TopAccentHorizontal: 436
HStem: -2 29<19.958 54 237 270.515 598 604> 309 38<246 297.166> 618 29<135.485 169 352 386.042 514 533 643.253 717.949>
DStem2: 99.4206 -2 176.421 -2 0.207912 0.978148<60.3633 614.198> 331 386 410 407 0.744049 0.668125<6.88094 311.517>
LayerCount: 2
Fore
SplineSet
213 569 m 2
 218.9 598.8 207.9 611.6 169 615 c 2
 135 618 l 1
 132 623 135 643 138 647 c 1
 182 646 227 645 265 645 c 0
 304 645 340 646 385 647 c 1
 389 638 387 622 383 618 c 1
 352 615 l 2
 311 611 296 597 290 569 c 2
 246.3 347 l 1
 283.1 349.1 307.1 364.1 331 386 c 2
 527 562 l 2
 545.3 579.2 556.2 592.6 556.2 601.9 c 0
 556.2 609.4 549.1 614.2 533 616 c 2
 514 618 l 2
 510 618 507 621 508 626 c 2
 511 645 l 1
 514 647 l 1
 559 646 586 645 625 645 c 0
 663 645 674 646 719 647 c 1
 722 645 l 1
 718 626 l 2
 717 621 711 618 706 618 c 0
 666 613 628 607 574 558 c 2
 410 407 l 2
 372 372 367 365 365 358 c 1
 364 350 365 343 372 333 c 2
 532 73 l 2
 550 42 571 32 598 28 c 2
 604 27 l 2
 608 26 612 24 611 19 c 2
 608 0 l 1
 604 -2 l 1
 559 -1 542 0 505 0 c 0
 476 0 457 -1 437 -2 c 1
 436 0 l 1
 437 6 l 2
 438.9 14.5 440.8 24.3 440.8 34.9 c 0
 440.8 46.8 438.4 59.8 431 73 c 2
 313 271 l 2
 298 298 273 309 239 309 c 1
 241.3 321.5 l 1
 193 76 l 2
 187 45.5 198.1 33.4 237 30 c 2
 271 27 l 1
 274 22 271 2 268 -2 c 1
 224 -1 179 0 141 0 c 0
 102 0 66 -1 21 -2 c 1
 17 7 19 23 23 27 c 1
 54 30 l 2
 94.7 33.9 110.4 47.8 116 76 c 2
 213 569 l 2
EndSplineSet
EndChar

StartChar: u1D6EC
Encoding: 120556 120556 62
Width: 621
VWidth: 487
Flags: W
TopAccentHorizontal: 419
HStem: 0 29<-7.3125 63.4262 120.011 191 364.688 449.725 551.673 605>
DStem2: 83 73 132 73 0.482872 0.875691<-8.98947 532.04> 441 636 376 519 0.172082 -0.985083<104.069 567.834>
LayerCount: 2
Fore
SplineSet
132 73 m 2
 124 59 120 49 120 42 c 0
 120 30 135 29 172 29 c 2
 190 29 l 2
 194 29 198 26 197 21 c 2
 193 2 l 1
 191 0 l 1
 191 0 119 3 80 3 c 0
 44 3 -8 0 -8 0 c 1
 -10 2 l 1
 -6 21 l 2
 -5 26 -2 29 3 29 c 2
 14 29 l 2
 57 29 66 41 83 73 c 2
 394 637 l 2
 402 652 412 660 422 660 c 0
 433 660 438 652 441 636 c 2
 539 75 l 2
 544 46 552 31 592 31 c 2
 604 31 l 2
 608 31 612 28 611 23 c 2
 608 4 l 1
 605 2 l 1
 605 2 528 5 489 5 c 0
 454 5 364 2 364 2 c 1
 363 4 l 1
 366 23 l 2
 367 28 370 31 375 31 c 2
 402 31 l 2
 443 31 456 42 456 62 c 0
 456 66 455 70 454 75 c 2
 393 432 l 1
 376 519 l 1
 331 434 l 1
 132 73 l 2
EndSplineSet
EndChar

StartChar: u1D6ED
Encoding: 120557 120557 63
Width: 804
VWidth: 999
Flags: W
ItalicCorrection: 90
TopAccentHorizontal: 527
HStem: -2 29<18 54 163 191 576.028 612 756 787> 618 29<185 216 834 871.965>
DStem2: 104 86 141 86 0.27758 0.960703<-15.6121 466.033> 329 646 269 524 0.183717 -0.982979<108.9 532.01> 443 138 394 5 0.516399 0.856348<-17.618 478.542> 655 87 728 87 0.124285 0.992247<-12.705 450.991>
LayerCount: 2
Fore
SplineSet
655 87 m 2
 715 534 l 1
 713 534 l 1
 394 5 l 2
 389 -3 384 -6 379 -6 c 0
 373 -6 368 -2 366 5 c 2
 269 524 l 1
 267 524 l 1
 141 86 l 2
 138.5 76.8 136.9 67.9 136.9 59.9 c 0
 136.9 42.9 143.9 30.4 163 29 c 2
 187 27 l 2
 192 27 195.3 24.1 195 19 c 2
 194 0 l 1
 191 -2 l 1
 163 -1 126 0 103 0 c 0
 80 0 47 -1 18 -2 c 1
 16 0 l 1
 18 19 l 2
 18.5 24.1 22 27 28 27 c 2
 54 29 l 2
 84 31 97 59 104 86 c 2
 245 574 l 2
 247.2 581.8 248.4 588.3 248.4 593.7 c 0
 248.4 608.3 239.2 614.3 216 616 c 2
 189 618 l 2
 182 618 180.6 620.8 181 625 c 2
 183 645 l 1
 185 647 l 1
 329 646 l 1
 427 137 l 2
 428 128 429 124 432 124 c 0
 434 124 437 128 443 138 c 2
 746 647 l 1
 872 647 l 1
 874 645 l 1
 872 625 l 2
 871.3 618.5 864.8 618.4 860 618 c 2
 834 616 l 2
 805 614 792 600 789 574 c 2
 728 87 l 2
 727 79.1 726.3 71.6 726.3 64.9 c 0
 726.3 44.4 732.2 30.8 756 29 c 2
 782 27 l 2
 788 26.5 791.5 24.2 791 19 c 2
 789 0 l 1
 787 -2 l 1
 742 -1 708 0 679 0 c 0
 651 0 622 -1 576 -2 c 1
 574 0 l 1
 576 19 l 2
 576.5 24 581.5 26.7 586 27 c 2
 612 29 l 2
 638.7 31.1 652 61 655 87 c 2
EndSplineSet
EndChar

StartChar: u1D6EE
Encoding: 120558 120558 64
Width: 666
VWidth: 999
Flags: W
ItalicCorrection: 142
TopAccentHorizontal: 446
HStem: -10 21<549 563.5> -2 29<14.0286 53 201 228> 618 29<145 182.018 572 603 750 785.972>
DStem2: 96.1695 -10 139.169 -10 0.207912 0.978148<93.9283 518.398> 277 647 274 455 0.491667 -0.870783<123.851 572.483> 530.039 -10 576.411 -10 0.207912 0.978148<160.426 593.434>
LayerCount: 2
Fore
SplineSet
687 557 m 2
 583 21 l 2
 579 2 570 -10 557 -10 c 0
 541 -10 530 -1 523 14 c 1
 274 455 l 2
 261 477 253 488 247 488 c 0
 240 488 235 473 228 439 c 2
 160 88 l 2
 158.9 82.7 158.4 77.5 158.4 72.6 c 0
 158.4 49.6 170.5 31.4 201 29 c 2
 226 27 l 2
 230.5 26.6 232.6 24.5 232 19 c 2
 230 0 l 1
 228 -2 l 1
 183 -1 148 0 124 0 c 0
 100 0 59 -1 14 -2 c 1
 12 0 l 1
 14 18 l 2
 14.5 22.9 19.1 26.3 28 27 c 2
 53 29 l 2
 92.5 32.2 111 61 117 88 c 2
 207 550 l 1
 206 576 185 615 154 618 c 0
 147 619 139.5 621 140 626 c 2
 142 645 l 1
 145 647 l 1
 277 647 l 1
 520 203 l 2
 541 166 550 148 558 148 c 0
 564 148 566 159 570 178 c 2
 644 557 l 2
 644.9 562.1 645.5 567.3 645.5 572.4 c 0
 645.5 594.1 635.4 613.6 603 616 c 2
 579 618 l 2
 574.2 618.4 566.3 621.5 567 626 c 2
 570 645 l 1
 572 647 l 1
 617 646 658 645 682 645 c 0
 705 645 741 646 786 647 c 1
 788 645 l 1
 786 626 l 2
 785.5 621.2 779.8 618.2 777 618 c 2
 750 616 l 2
 712 613 693 587 687 557 c 2
EndSplineSet
EndChar

StartChar: u1D6EF
Encoding: 120559 120559 65
Width: 648
VWidth: 487
Flags: W
ItalicCorrection: 80
TopAccentHorizontal: 428
HStem: -4 67<110.566 573.58> 284 56<231.709 527.856> 582 68<190.069 199 199.001 660.954>
VStem: 81 26<121.517 161> 140 27<496 539.79> 206 28<377 392.359> 526 28<233 248> 602 27<129.784 161> 661 27<496 535.483>
LayerCount: 2
Fore
SplineSet
498 340 m 2
 530 340 544 343 550 377 c 1
 551 384 l 1
 553 389 555 392 559 392 c 2
 582 392 l 1
 582 392 571 347 566 319 c 0
 560 286 554 233 554 233 c 1
 532 233 l 2
 530 233 525 234 526 241 c 2
 527 248 l 2
 528 252 528 257 528 260 c 0
 528 282 513 284 488 284 c 2
 262 284 l 2
 229 284 216 281 210 248 c 1
 209 241 l 2
 207 234 203 233 200 233 c 2
 178 233 l 1
 178 233 190 286 196 319 c 0
 202 348 206 393 206 393 c 1
 228 392 l 2
 235 392 235 387 234 384 c 2
 233 377 l 2
 232 372 231 367 231 362 c 0
 231 342 244 340 272 340 c 2
 498 340 l 2
688 496 m 1
 661 496 l 1
 663 512 664 525 664 536 c 0
 664 581 647 582 594 582 c 2
 265 582 l 2
 196 582 188 579 167 496 c 1
 140 496 l 1
 141 497 170 636 174 650 c 1
 199 650 l 1
 199 647 201 646 205 646 c 2
 671 646 l 2
 675 646 679 647 681 650 c 1
 708 650 l 1
 706 640 692 528 688 496 c 1
81 161 m 1
 107 161 l 1
 106 145 105 132 105 121 c 0
 105 68 124 64 162 63 c 1
 499 63 l 2
 569 63 580 72 602 161 c 1
 629 161 l 1
 592 -4 l 1
 564 -4 l 1
 563 -1 561 0 558 0 c 2
 101 0 l 2
 97 0 93 -2 92 -4 c 1
 59 -4 l 1
 81 161 l 1
EndSplineSet
EndChar

StartChar: u1D6F0
Encoding: 120560 120560 66
Width: 668
VWidth: 999
Flags: W
ItalicCorrection: 58
TopAccentHorizontal: 485
HStem: -10 34<284.934 428.867> 624 34<367.544 514.015>
VStem: 87.4 90.9<131.227 364.409> 617.3 89<275.856 513.791>
LayerCount: 2
Fore
SplineSet
436 624 m 0
 349 624 227 537 187 327 c 0
 181.1 297.2 178.3 269.5 178.3 243.7 c 0
 178.3 103.3 259.8 24 357 24 c 0
 467 24 572 131 607 310 c 0
 614 346.5 617.3 379.9 617.3 410.1 c 0
 617.3 552 544 624 436 624 c 0
699 329 m 0
 660 129 515 -10 331 -10 c 0
 188.3 -10 87.4 82 87.4 234.4 c 0
 87.4 258.2 89.9 283.4 95 310 c 0
 133 506 284 658 455 658 c 0
 601.1 658 706.3 558.9 706.3 402.9 c 0
 706.3 379.5 704 354.8 699 329 c 0
EndSplineSet
EndChar

StartChar: u1D6F1
Encoding: 120561 120561 67
Width: 691
VWidth: 487
Flags: W
ItalicCorrection: 118
TopAccentHorizontal: 465
HStem: -1 29<19.6875 104.542 202.734 274 419.049 503.542 601.734 673> 604 39<291.62 604.695> 619 27<131 203.233 705.917 784.996>
DStem2: 119 72 199 72 0.172666 0.98498<1.96007 522.448> 518 72 598 72 0.174569 0.984645<2.11436 514.126>
LayerCount: 2
Fore
SplineSet
518 72 m 2
 604 560 l 2
 605 567 605 573 605 579 c 0
 605 595 599 604 575 604 c 2
 329 604 l 2
 298 604 291 593 285 560 c 2
 199 72 l 2
 198 67 198 63 198 60 c 0
 198 38 212 28 246 28 c 2
 272 28 l 2
 277 28 280 25 279 20 c 2
 276 1 l 1
 274 -1 l 1
 274 -1 187 1 148 1 c 0
 112 1 19 -1 19 -1 c 1
 17 1 l 1
 21 20 l 1
 21 25 25 28 30 28 c 2
 56 28 l 2
 97 28 114 44 119 72 c 2
 207 574 l 2
 208 579 208 583 208 587 c 0
 208 613 191 619 164 619 c 2
 134 619 l 2
 127 619 127 623 127 626 c 2
 131 646 l 1
 138 646 243 643 257 643 c 0
 319 643 385 643 456 643 c 0
 518 643 584 643 656 643 c 0
 662 643 787 646 789 646 c 1
 785 627 l 2
 785 623 780 619 775 619 c 2
 746 619 l 1
 718 618 692 604 687 574 c 2
 598 72 l 2
 597 67 597 63 597 60 c 0
 597 38 611 28 645 28 c 2
 671 28 l 2
 676 28 679 25 678 20 c 2
 675 1 l 1
 673 -1 l 1
 673 -1 586 1 547 1 c 0
 511 1 418 -1 418 -1 c 1
 416 1 l 1
 419 20 l 2
 420 25 424 28 429 28 c 2
 455 28 l 2
 496 28 513 44 518 72 c 2
EndSplineSet
EndChar

StartChar: u1D6F2
Encoding: 120562 120562 68
Width: 499
VWidth: 999
Flags: W
ItalicCorrection: 95
TopAccentHorizontal: 396
HStem: -2 29<18.6875 54 237 272> 282 34<242.483 390.694> 620 25<144 179 310.5 390.801> 620 34<304.759 449.328>
VStem: 488.6 85.6<431.277 589.454>
DStem2: 115 71 193 71 0.191235 0.981544<2.51685 240.061 269.673 521.852>
LayerCount: 2
Fore
SplineSet
291 574 m 2
 242 321 l 1
 252 318 285 316 309 316 c 0
 402 316 462 360 483 468 c 0
 486.8 487.5 488.6 504.6 488.6 519.5 c 0
 488.6 602.1 434.7 620 378 620 c 0
 309 620 296 603 291 574 c 2
115 71 m 2
 213 574 l 2
 213.6 577.4 213.9 580.6 213.9 583.5 c 0
 213.9 607.8 193.3 615.1 179 616 c 2
 142 618 l 2
 138 618 136 620 137 624 c 2
 141 645 l 1
 144 647 l 1
 179 646 228 645 266 645 c 0
 305 645 367 654 392 654 c 0
 540.4 654 574.2 577.4 574.2 517.9 c 0
 574.2 506.4 572.9 495.5 571 486 c 0
 555 401 482 282 307 282 c 0
 273 282 256 285 236 292 c 1
 193 71 l 2
 192.1 66.4 191.6 62.2 191.6 58.5 c 0
 191.6 38.1 205.7 30.7 237 29 c 2
 272 27 l 2
 276 27 279 24 278 19 c 2
 274 0 l 1
 272 -2 l 1
 227 -1 179 0 141 0 c 0
 101 0 53 -1 18 -2 c 1
 16 0 l 1
 20 19 l 2
 21 24 24 27 29 27 c 2
 54 29 l 2
 93 32 110 43 115 71 c 2
EndSplineSet
EndChar

StartChar: u1D6F3
Encoding: 120563 120563 69
Width: 693
VWidth: 999
Flags: W
ItalicCorrection: 53
TopAccentHorizontal: 464
HStem: -12 34<292.658 448.882> 302 45<190 624> 623 34<371.963 523.138>
VStem: 85 94<137.014 302> 633 93<347 503.016>
LayerCount: 2
Fore
SplineSet
624 302 m 1
 182 302 l 1
 180 284 179 266 179 249 c 0
 179 104 259 22 372 22 c 0
 485 22 590 128 624 302 c 1
630 347 m 1
 632 365 633 382 633 397 c 0
 633 547 552 623 444 623 c 0
 351 623 231 543 190 347 c 1
 630 347 l 1
720 329 m 0
 685 129 537 -12 346 -12 c 0
 194 -12 85 85 85 243 c 0
 85 264 87 287 91 310 c 0
 126 506 284 657 463 657 c 0
 610 657 726 555 726 394 c 0
 726 373 724 352 720 329 c 0
EndSplineSet
EndChar

StartChar: u1D6F4
Encoding: 120564 120564 70
Width: 594
VWidth: 487
Flags: W
ItalicCorrection: 55
TopAccentHorizontal: 402
HStem: 0 43<109 483.66> 0 22<13 43.4878> 603 43<253 565.882> 622 24<124 150.385>
VStem: 597 22<506 543.46>
DStem2: 52 41 109 43 0.700866 0.713293<41.376 377.605> 253 603 180 576 0.457643 -0.889136<0 289.806>
LayerCount: 2
Fore
SplineSet
629 646 m 1
 619 506 l 1
 597 503 l 1
 595 526 582 554 577 564 c 0
 569 581 559 591 548 597 c 0
 540 601 532 603 521 603 c 2
 253 603 l 1
 393 331 l 1
 391 330 l 1
 109 43 l 1
 430 43 l 2
 442 43 453 45 460 48 c 0
 474 55 486 65 500 82 c 0
 513 97 539 129 552 162 c 1
 574 160 l 1
 530 0 l 1
 9 0 l 1
 13 22 l 1
 25 22 36 24 52 41 c 2
 317 310 l 1
 180 576 l 1
 159 612 134 622 120 622 c 1
 124 646 l 1
 629 646 l 1
EndSplineSet
EndChar

StartChar: u1D6F5
Encoding: 120565 120565 71
Width: 544
VWidth: 999
Flags: W
ItalicCorrection: 132
TopAccentHorizontal: 427
HStem: -2 29<165.958 200 383 416.515> 606 39<183.962 358.111 441.664 594.752> 638 20<151.5 169.75 628.5 643.75>
VStem: 626 30<515.629 560.135>
DStem2: 245.421 -2 322.421 -2 0.207912 0.978148<60.4079 609.951>
LayerCount: 2
Fore
SplineSet
229 645 m 2xd0
 563 645 l 2xd0
 598.8 645 612 652.5 645 658 c 1xb0
 642.5 618 645 575 656 518 c 1
 644.3 513.3 636 513 626 513 c 1
 609 580 594 606 542 606 c 2
 488 606 l 2
 454 606 441 598 434 564 c 2
 339 76 l 2
 333.1 45.6 344.1 33.4 383 30 c 2
 417 27 l 1
 420 22 417 2 414 -2 c 1
 370 -1 325 0 287 0 c 0
 248 0 212 -1 167 -2 c 1
 163 7 165 23 169 27 c 1
 200 30 l 2
 241 34 256 48 262 76 c 2
 357 567 l 2
 361.8 595.9 356.4 606 317 606 c 2
 248 606 l 2xd0
 195 606 170 586 141 520.5 c 1
 132 520.5 118.6 522.7 111 527.5 c 1
 133 580.5 145 609 158 658 c 1xb0
 181.5 654 202.9 645 229 645 c 2xd0
EndSplineSet
EndChar

StartChar: u1D6F6
Encoding: 120566 120566 72
Width: 552
VWidth: 999
Flags: W
ItalicCorrection: 131
TopAccentHorizontal: 405
HStem: -2 29<162.958 197 380 413.515> 618 29<123.795 141 300 334.949 488.966 521 632 660.452>
DStem2: 279 576 202 547 0.351542 -0.936172<-31.3472 255.499> 241.708 -2 318.708 -2 0.21644 0.976296<61.679 291.066> 368 335 388 310 0.565843 0.824513<0 322.09>
LayerCount: 2
Fore
SplineSet
336 76 m 2
 330 46 341.1 33.4 380 30 c 2
 414 27 l 1
 417 22 414 2 411 -2 c 1
 367 -1 322 0 284 0 c 0
 245 0 209 -1 164 -2 c 1
 160 7 162 23 166 27 c 1
 197 30 l 2
 238 34 254 48 259 76 c 2
 294 259 l 2
 296 269.2 297.3 278.9 297.3 284 c 0
 297.3 288 296.4 295.5 294 302 c 2
 202 547 l 2
 182 600 174.9 611.5 141 616 c 2
 126 618 l 1
 123 623 121 642 124 647 c 1
 152 646 191 645 228 645 c 0
 266 645 296 646 335 647 c 1
 337 643 336 623 333 618 c 1
 300 615 l 2
 266.1 611.9 269.9 602.4 279 576 c 2
 364 335 l 1
 368 335 l 1
 526 576 l 2
 546 605 545 612.8 521 615 c 2
 489 618 l 1
 487 622 488 643 491 647 c 1
 529 646 560 645 582 645 c 0
 604 645 633 646 662 647 c 1
 665 643 661 623 658 618 c 1
 632 616 l 2
 597 613 584 595 563 565 c 2
 388 310 l 2
 381 299 377.4 285.1 374 268 c 2
 336 76 l 2
EndSplineSet
EndChar

StartChar: u1D6F7
Encoding: 120567 120567 73
Width: 670
VWidth: 487
Flags: W
ItalicCorrection: 44
TopAccentHorizontal: 454
HStem: -1 28<214.75 298.695 399.166 469> 113 26<269.579 321 406 465.637> 510 26<318.684 391 476 517.861> 618 29<328 398.266 497.051 581.984>
VStem: 91 79<208.337 376.165> 616 78<279.443 435.865>
DStem2: 314 71 395 71 0.172333 0.985039<2.15086 40.6079 82.8373 445.702 485.961 522.493>
LayerCount: 2
Fore
SplineSet
321 111 m 1
 123 123 91 223 91 288 c 0
 91 302 93 314 94 324 c 0
 108 404 197 521 396 536 c 1
 402 574 l 2
 403 579 403 583 403 586 c 0
 403 608 389 618 355 618 c 2
 329 618 l 2
 325 618 321 621 322 626 c 2
 326 645 l 1
 328 647 l 1
 328 647 415 644 454 644 c 0
 489 644 583 647 583 647 c 1
 584 645 l 1
 581 626 l 2
 580 621 577 618 572 618 c 2
 545 618 l 2
 504 618 488 602 483 574 c 2
 476 536 l 1
 613 524 694 452 694 360 c 0
 694 351 693 341 691 331 c 0
 673 231 561 129 402 113 c 1
 395 71 l 2
 394 67 394 63 394 59 c 0
 394 37 408 27 441 27 c 2
 468 27 l 2
 472 27 476 24 475 19 c 2
 471 0 l 1
 469 -1 l 1
 469 -1 382 1 343 1 c 0
 308 1 214 -1 214 -1 c 1
 212 0 l 1
 216 19 l 2
 217 24 220 27 225 27 c 2
 251 27 l 2
 292 27 309 43 314 71 c 2
 321 111 l 1
326 138 m 1
 391 510 l 1
 302 504 198 468 174 331 c 0
 171 316 170 301 170 288 c 0
 170 190 240 146 326 138 c 1
611 324 m 0
 614 340 616 354 616 368 c 0
 616 460 552 497 471 507 c 1
 406 139 l 1
 564 156 599 255 611 324 c 0
EndSplineSet
EndChar

StartChar: u1D6F8
Encoding: 120568 120568 74
Width: 628
VWidth: 999
Flags: W
ItalicCorrection: 124
TopAccentHorizontal: 452
HStem: -2 29<7.04979 69.5677 176 192 403 431 584.5 624> 618 29<141 179.5 317 356.172 541 569 660.18 727.999>
VStem: 326.6 93.9<289.031 369.625>
DStem2: 144 104 171 77 0.670259 0.742128<-38.431 262.682 375.53 668.559> 304 572 220 549 0.438126 -0.898914<-30.4014 207.046 289.912 544.419>
LayerCount: 2
Fore
SplineSet
134 625 m 2
 138 644 l 1
 141 647 l 1
 179 646 217 645 240 645 c 0
 263 645 312 646 357 647 c 1
 357 647 357 644 358 644 c 2
 355 625 l 2
 354 620 351 618 349 618 c 2
 317 616 l 2
 300 614.9 293.9 609.9 293.9 601.2 c 0
 293.9 594 298.1 584.2 304 572 c 2
 384 396 l 2
 388 389 391 385 393 385 c 0
 396 385 401 389 408 397 c 2
 566 572 l 2
 578.7 586.4 586.8 597.7 586.8 605.3 c 0
 586.8 611.4 581.5 615.1 569 616 c 2
 541 618 l 2
 537 618 534 620 535 625 c 2
 539 645 l 1
 541 647 l 1
 580 646 614 645 636 645 c 0
 658 645 691 646 730 647 c 1
 732 645 l 1
 728 625 l 2
 728 622 726 618 718 618 c 0
 660 616 633 588 600 552 c 2
 440 375 l 2
 429 363 423 354 421 345 c 0
 420.7 343.3 420.5 341.6 420.5 339.8 c 0
 420.5 331.5 424.2 322.7 430 312 c 2
 537 102 l 2
 556 63 582 30 624 27 c 0
 629 27 630 23 630 20 c 2
 626 0 l 1
 624 -2 l 1
 585 -1 545 0 523 0 c 0
 501 0 448 -1 403 -2 c 1
 400 0 l 1
 404 20 l 2
 405 24 407 27 411 27 c 2
 431 29 l 2
 454.1 31.4 463.2 34.4 463.2 43.6 c 0
 463.2 49.9 458.9 59.2 452 73 c 2
 362 261 l 2
 358 269 354 272 350 272 c 0
 348 272 341 266 333 258 c 2
 171 77 l 2
 160.5 64.4 152.4 52.9 152.4 44.2 c 0
 152.4 36.4 158.9 30.9 176 29 c 2
 194 27 l 2
 199 26 199 23 199 20 c 2
 195 0 l 1
 192 -2 l 1
 147 -1 122 0 84 0 c 0
 56 0 32 -1 3 -2 c 1
 3 0 l 1
 7 20 l 2
 8 25 13 27 19 27 c 0
 75 30 117 74 144 104 c 2
 312 291 l 2
 319 299 325 308 326 314 c 0
 326.4 316 326.6 318 326.6 320 c 0
 326.6 327.7 323.6 335.2 318 344 c 1
 220 549 l 2
 192 607 164 615 148 618 c 0
 139 620 133 621 134 625 c 2
EndSplineSet
EndChar

StartChar: u1D6F9
Encoding: 120569 120569 75
Width: 687
VWidth: 487
Flags: W
ItalicCorrection: 105
TopAccentHorizontal: 463
HStem: -1 28<223.75 307.695 407.439 478> 204 26<316.947 346 432 455.817> 595 21<128.247 161.182 734.408 771.974> 618 29<337 407.266 506.051 589.951>
VStem: 169 71<294.357 521.177> 182 71<390.962 585.101>
DStem2: 323 71 403 71 0.174232 0.984705<2.13251 134.973 178.513 522.49>
LayerCount: 2
Fore
SplineSet
723 616 m 1
 751 616 l 2
 763 616 772 614 772 606 c 0
 772 597 763 595 755 593 c 0
 733 586 693 575 675 473 c 0
 641 285 526 219 427 205 c 1
 403 71 l 2
 402 67 402 63 402 59 c 0
 402 37 417 27 450 27 c 2
 477 27 l 2
 481 27 484 24 483 19 c 2
 480 0 l 1
 478 -1 l 1
 478 -1 391 1 352 1 c 0
 316 1 223 -1 223 -1 c 1
 221 0 l 1
 225 19 l 2
 226 24 229 27 234 27 c 2
 260 27 l 2
 301 27 318 43 323 71 c 2
 346 204 l 1
 257 213 169 259 169 388 c 0
 169 407 171 427 175 450 c 0
 180 478 182 501 182 519 c 0
 182 583 156 590 140 595 c 0
 133 597 128 598 128 603 c 0
 128 616 142 616 150 616 c 2
 181 616 l 1
 229 615 253 584 253 525 c 0
 253 508 251 488 247 466 c 0
 242 438 240 414 240 392 c 0
 240 281 296 241 351 230 c 1
 411 574 l 2
 412 579 412 583 412 586 c 0
 412 608 398 618 364 618 c 2
 338 618 l 2
 333 618 330 621 331 626 c 2
 334 645 l 1
 337 647 l 1
 337 647 423 644 462 644 c 0
 498 644 592 647 592 647 c 1
 593 645 l 1
 590 626 l 2
 589 621 585 618 581 618 c 2
 554 618 l 2
 513 618 497 602 492 574 c 2
 432 233 l 1
 565 267 601 441 607 477 c 0
 616 525 627 566 663 595 c 0
 680 609 701 615 723 616 c 1
EndSplineSet
EndChar

StartChar: u1D6FA
Encoding: 120570 120570 76
Width: 693
VWidth: 487
Flags: W
ItalicCorrection: 48
TopAccentHorizontal: 468
HStem: 0 59<90.8594 255 462 629.4> 626 35<376.97 538.904>
VStem: 62 26<104.188 119> 112 87<231.839 434.197> 633 88<322.854 535.598> 647 26<89.25 119>
DStem2: 255 59 280 16 0.109572 0.993979<0 61.7519>
LayerCount: 2
Fore
SplineSet
478 117 m 1
 462 59 l 1
 560 59 l 2
 608 59 631 62 647 119 c 1
 673 119 l 1
 645 0 l 1
 437 0 l 2
 425 0 421 6 424 16 c 2
 455 143 l 1
 556 196 609 271 628 379 c 0
 631 399 633 418 633 437 c 0
 633 548 570 626 459 626 c 0
 321 626 228 508 205 380 c 0
 201 357 199 336 199 317 c 0
 199 242 229 192 294 143 c 1
 280 16 l 2
 279 6 271 0 260 0 c 2
 49 0 l 1
 62 119 l 1
 88 119 l 1
 88 113 87 108 87 104 c 0
 87 65 107 59 154 59 c 2
 255 59 l 1
 261 117 l 1
 174 149 112 226 112 329 c 0
 112 345 114 362 117 379 c 0
 140 511 269 661 466 661 c 0
 640 661 721 559 721 434 c 0
 721 416 719 397 716 379 c 0
 694 259 595 154 478 117 c 1
EndSplineSet
EndChar

StartChar: u1D6FB
Encoding: 120571 120571 77
Width: 584
VWidth: 487
Flags: W
ItalicCorrection: 127
TopAccentHorizontal: 391
HStem: -13 21G<232.5 387> 577 26<177 596>
DStem2: 177 577 128 588 0.211417 -0.977396<0 520.882> 283 67 315 -13 0.525282 0.850928<0 598.387>
LayerCount: 2
Fore
SplineSet
283 67 m 1
 596 577 l 1
 177 577 l 1
 283 67 l 1
258 -13 m 1
 207 221 128 588 128 588 c 2
 126 594 126 597 126 599 c 0
 126 602 132 603 144 603 c 2
 676 603 l 1
 688 603 l 1
 691 602 692 601 691 599 c 0
 691 597 689 594 686 588 c 2
 686 588 459 221 315 -13 c 1
 258 -13 l 1
EndSplineSet
EndChar

StartChar: u1D6FC
Encoding: 120572 120572 78
Width: 522
VWidth: 999
Flags: W
ItalicCorrection: 86
TopAccentHorizontal: 333
HStem: -12 61<427.443 483.269> -12 34<165.816 247.819> 408 34<265.87 354.15> 414 20G<490.592 509 574.286 582>
VStem: 66 77<40.0733 231.576> 381 40<53.8743 128 292 381.884>
LayerCount: 2
Fore
SplineSet
420 189 m 1x1c
 419 131 l 2
 419 130 419 129 419 128 c 0
 419 77 432 49 452 49 c 0
 476 49 488 56 511 86 c 1
 534 77 l 1
 498 14 469 -12 429 -12 c 0x9c
 395 -12 378 18 378 81 c 0
 378 84 378 86 378 89 c 2
 379 128 l 1
 310 29 258 -12 194 -12 c 0
 104 -12 66 37 66 115 c 0
 66 140 70 167 77 196 c 0
 120 380 246 442 331 442 c 0x6c
 399 442 421 390 421 302 c 0
 421 299 421 296 421 293 c 2
 421 292 l 1
 502 434 l 1
 516 434 532 429 546 429 c 0
 560 429 576 434 588 434 c 1
 420 189 l 1x1c
317 408 m 0x6c
 222 408 143 256 143 118 c 0
 143 60 161 22 207 22 c 0
 249 22 302 83 356 179 c 1
 380 220 l 1
 380 241 l 2
 380 248 381 254 381 260 c 0
 381 346 370 408 317 408 c 0x6c
EndSplineSet
EndChar

StartChar: u1D6FD
Encoding: 120573 120573 79
Width: 472
VWidth: 488
Flags: W
ItalicCorrection: 74
TopAccentHorizontal: 403
HStem: -235 21G<-4 53.6129> -12 29<191.783 292.352> 370 58<274.14 348.022> 668 30<341.102 429.055>
VStem: 411 75<159.52 342.178> 456 70<510.385 648.106>
AnchorPoint: "unten_punkt" 275 -114 basechar 0
LayerCount: 2
Fore
SplineSet
358 416 m 1xf8
 396 424 456 510 456 583 c 0xf4
 456 630 433 668 389 668 c 0
 350 668 287 646 250 490 c 1
 154.3 73.7 l 1
 165.9 45.4 194.2 17 250 17 c 0
 320 17 411 141 411 272 c 0
 411 326 395 375 349 385 c 1
 328 375 316 370 301 370 c 0
 286 370 272 378 272 394 c 0
 272 414 287 428 306 428 c 0
 320 428 335 426 358 416 c 1xf8
141.9 20 m 1
 124 -58 l 2
 110 -117 99 -164 82 -204 c 1
 2 -235 l 1
 -4 -217 l 1
 16 -183 39 -131 67 -7 c 2
 167 429 l 1
 207 597 272 698 405 698 c 0
 469 698 526 662 526 592 c 0xf4
 526 516 475 448 384 402 c 1
 416 390 486 360 486 263 c 0xf8
 486 132 375 -12 250 -12 c 0
 198.9 -12 163.9 -3.2 141.9 20 c 1
EndSplineSet
EndChar

StartChar: u1D6FE
Encoding: 120574 120574 80
Width: 458
VWidth: 999
Flags: W
ItalicCorrection: 115
TopAccentHorizontal: 340
HStem: -235 39<172.715 202.678> 380 62<137 229>
VStem: 135 37<-195.88 -94.2502> 222 58<-156.751 -29>
LayerCount: 2
Fore
SplineSet
184 -196 m 0
 215 -196 222 -99 222 -38 c 0
 222 -35 222 -32 222 -29 c 1
 193 -82 172 -127 172 -171 c 0
 172 -187 176 -196 184 -196 c 0
280 36 m 1
 279 -63 275 -235 176 -235 c 0
 146 -235 135 -205 135 -172 c 0
 135 -118 169 -57 182 -36 c 2
 221 27 l 1
 215 132 196 253 178 344 c 0
 171 377 157 380 142 380 c 0
 132 380 123 379 106 375 c 1
 108 405 l 1
 183 420 195 442 224 442 c 0
 234 442 238 437 239 429 c 0
 256 328 273 223 279 118 c 1
 407 334 l 2
 426 368 448 409 457 436 c 1
 466 432 492 429 500 429 c 0
 513 429 525 431 548 438 c 1
 553 436 l 1
 520 402 495 373 466 332 c 2
 280 66 l 1
 280 36 l 1
EndSplineSet
EndChar

StartChar: u1D6FF
Encoding: 120575 120575 81
Width: 450
VWidth: 999
Flags: W
ItalicCorrection: 87
TopAccentHorizontal: 349
HStem: -12 30<185.573 285.644> 665 33<299.769 389.08>
VStem: 72 73<54.5651 234.016> 225 53<551.88 642.022> 399 77<174.42 347.998>
LayerCount: 2
Fore
SplineSet
72 136 m 0
 72 312 257 407 311 430 c 1
 299 442 l 1
 249 498 225 534 225 574 c 0
 225 633 273 698 350 698 c 0
 391 698 431 677 458 661 c 0
 482 647 517 626 517 608 c 0
 517 594 500 569 468 569 c 0
 404 569 419 665 350 665 c 0
 285 665 278 615 278 603 c 0
 278 575 301 545 351 493 c 1
 405 440 l 2
 448 398 476 341 476 275 c 0
 476 157 375 -12 215 -12 c 0
 121 -12 72 51 72 136 c 0
232 18 m 0
 347 18 399 188 399 253 c 0
 399 298 384 349 355 381 c 2
 332 407 l 1
 259 372 145 301 145 143 c 0
 145 79 168 18 232 18 c 0
EndSplineSet
EndChar

StartChar: u1D700
Encoding: 120576 120576 82
Width: 369
VWidth: 999
Flags: W
ItalicCorrection: 64
TopAccentHorizontal: 304
HStem: -12 34<160.485 271.525> 210 29<210.083 323.329> 413 29<248.826 324.614>
VStem: 64 74<38.6491 159.24> 130 65<247.096 362.69>
LayerCount: 2
Fore
SplineSet
245 210 m 0
 170 210 138 139 138 93 c 0
 138 52 163 22 209 22 c 0
 252 22 292 40 335 67 c 1
 345 48 l 1
 307 17 250 -12 192 -12 c 0
 90 -12 64 37 64 83 c 0
 64 136 91 197 180 227 c 1
 148 242 130 262 130 294 c 0
 130 356 190 442 303 442 c 0
 369 442 413 412 413 379 c 0
 413 356 394 333 370 333 c 0
 323 333 356 413 291 413 c 0
 240 413 195 357 195 291 c 0
 195 250 221 239 253 239 c 0
 254 239 296 244 302 244 c 0
 316 244 324 239 324 230 c 0
 324 223 321 204 292 204 c 0
 284 204 253 210 245 210 c 0
EndSplineSet
EndChar

StartChar: u1D701
Encoding: 120577 120577 83
Width: 402
VWidth: 999
Flags: W
ItalicCorrection: 141
TopAccentHorizontal: 348
HStem: -229 41<155.5 258.146> -6 63<174.374 313.836> 551 31<270.453 358.792> 678 20G<243 263>
VStem: 74 71<82.4376 228.364> 193 61<592.694 676.588> 324 34<-117.059 -20.3392>
LayerCount: 2
Fore
SplineSet
358 -39 m 0
 358 -146 271 -229 181 -229 c 0
 130 -229 100 -210 100 -187 c 0
 100 -172 116 -149 140 -149 c 0
 164 -149 181 -161 188 -175 c 0
 194 -187 215 -188 229 -188 c 0
 278 -188 324 -118 324 -62 c 0
 324 -32 308 -6 260 -6 c 0
 115 -6 74 51 74 124 c 0
 74 213 121 349 353 568 c 1
 329 559 297 551 278 551 c 0
 227 551 193 587 193 649 c 0
 193 652 193 655 193 658 c 1
 217 682 231 688 255 698 c 1
 263 698 l 1
 260 688 254 667 254 646 c 0
 254 603 279 582 300 582 c 0
 320 582 356 591 387 604 c 1
 433 646 473 675 495 675 c 0
 515 675 523 668 523 655 c 0
 523 624 487 610 395 579 c 1
 179 355 145 201 145 138 c 0
 145 92 169 57 263 57 c 0
 328 57 358 19 358 -39 c 0
EndSplineSet
EndChar

StartChar: u1D702
Encoding: 120578 120578 84
Width: 490
VWidth: 999
Flags: MW
TopAccentHorizontal: 339
HStem: -235 21G<269 322.471> -10 21G<116.083 151.007> 380 59<344.297 437.5> 395 28<105.549 149>
DStem2: 33.7617 -235 109.797 -235 0.21644 0.976296<258.697 543.299 575.531 621.029> 279.567 -235 353.161 -235 0.21644 0.976296<49.5208 590.802>
LayerCount: 2
Fore
SplineSet
472 283 m 2xe0
 404 -3 l 2
 392 -54 383 -102 374 -141 c 0
 368 -165 363 -185 355 -201 c 1
 276 -235 l 1
 269 -217 l 1
 289 -183 306 -118 331 -3 c 1
 394 275 l 2
 402 309 405 329 405 343 c 0
 405 374 391 380 370 380 c 0xe0
 334 380 279 320 216 238 c 1
 177.9 72 l 2
 169 34 170 -10 132 -10 c 0
 100.2 -10 89.1 0.5 89.1 17.2 c 0
 89.1 27 97 52 101.8 72 c 2
 158 321 l 2
 164 349 167 362.9 167 372 c 0
 167 382 161 391 149 392 c 2
 109 395 l 1
 103 404 101.3 415 108 423 c 1xd0
 155 429 202 436 234 436 c 0
 247.2 436 254.5 428.6 254.5 414.9 c 0
 254.5 397.8 242 359 232.3 320.2 c 2
 230 311 l 1
 231 310 l 1
 323 418 366 439 418 439 c 0
 457 439 484 419 484 359 c 0
 484 341 480 318 472 283 c 2xe0
EndSplineSet
EndChar

StartChar: u1D703
Encoding: 120579 120579 85
Width: 447
VWidth: 999
Flags: W
ItalicCorrection: 83
TopAccentHorizontal: 389
HStem: -12 34<197.503 270.62> 326 34<192 414> 664 34<333.894 407.459>
VStem: 94 71<59.5188 324.62> 441 69<361.876 622.606>
CounterMasks: 1 e0
LayerCount: 2
Fore
SplineSet
422 360 m 1
 434 415 441 469 441 515 c 0
 441 601 419 664 374 664 c 0
 296 664 222 489 192 360 c 1
 422 360 l 1
414 326 m 1
 184 326 l 1
 172 273 165 219 165 171 c 0
 165 87 185 22 231 22 c 0
 303 22 380 181 414 326 c 1
116 344 m 0
 171 584 296 698 388 698 c 0
 445 698 510 646 510 502 c 0
 510 458 504 406 490 344 c 0
 427 70 292 -12 218 -12 c 0
 158 -12 94 36 94 177 c 0
 94 223 101 278 116 344 c 0
EndSplineSet
EndChar

StartChar: u1D704
Encoding: 120580 120580 86
Width: 258
VWidth: 999
Flags: W
ItalicCorrection: 30
TopAccentHorizontal: 209
HStem: -10 65<114 187.824> 411 20G<161 166 245 248.625>
VStem: 88 180
DStem2: 77.4304 -10 152.347 -10 0.207912 0.978148<96.0994 416.776>
LayerCount: 2
Fore
SplineSet
180 55 m 0
 191 55 219 70 245 100 c 1
 259 100 265 92 268 83 c 1
 222 24 177 -10 129 -10 c 0
 99 -10 88 4 88 23 c 0
 88 42 96 81.2 104 115 c 2
 153 322 l 2
 157.7 342.1 164 371 164 399 c 0
 164 409 163 419 161 429 c 1
 164 431 l 1
 168 430 188 429 199 429 c 0
 217 429 237 433 253 439 c 1
 253 439 239 375 232 343 c 2
 180.4 122 l 2
 174.4 96.2 170.4 78.7 170.4 68 c 0
 170.4 59.1 173.2 55 180 55 c 0
EndSplineSet
EndChar

StartChar: u1D705
Encoding: 120581 120581 87
Width: 506
VWidth: 999
Flags: W
ItalicCorrection: 48
TopAccentHorizontal: 343
HStem: -10 46<379 460.239> 205.3 35.7<215.043 246.375> 368 71<428.958 508.927> 395 28<106.543 150>
VStem: 168 87.5<322.014 423.918>
AnchorPoint: "unten_punkt" 226 -108 basechar 0
LayerCount: 2
Fore
SplineSet
158.9 322 m 2xe8
 165 350 168 362.9 168 372 c 0
 168 382 162 391 150 392 c 2
 110 395 l 1
 104 404 102.3 415 109 423 c 1xd8
 156 429 203 436 235 436 c 0
 248.2 436 255.5 428.6 255.5 414.9 c 0
 255.5 397.8 242 359 233.3 320.2 c 2
 215 241 l 1
 236 241 250 256 264 271.7 c 1
 330 337 l 2
 395 401 453 439 485 439 c 0
 512 439 534 432 534 404 c 0
 534 373 502 354 488 354 c 0
 454 354 458 368 432 368 c 0
 412 368 393 356 346 306 c 2
 295 252 l 1
 394 80 l 2
 413 47 411 36 425 36 c 0
 436 36 460 51 476 76 c 1
 487 76 494 70 501 62 c 1
 478 18 442 -10 395 -10 c 0
 363 -10 354 8 320 65 c 2
 244 193 l 2
 242 198.1 233.3 205.3 224.4 205.3 c 0
 210.5 205.3 210 197 203 187 c 1
 176.9 72 l 2
 168 35 169 -10 131 -10 c 0
 99.2 -10 90.1 0.5 90.1 17.2 c 0
 90.1 27 98 52 102.8 72 c 2
 158.9 322 l 2xe8
EndSplineSet
EndChar

StartChar: u1D706
Encoding: 120582 120582 88
Width: 494
VWidth: 999
Flags: W
ItalicCorrection: 25
TopAccentHorizontal: 287
HStem: -12 61<398.068 452.374> 637 61<226.932 296.646>
VStem: 327 39<435 589.895>
LayerCount: 2
Fore
SplineSet
499 60 m 1
 473 21 432 -12 405 -12 c 0
 358 -12 346 33 342 126 c 2
 330 363 l 1
 114 0 l 1
 88 -1 63 -4 41 -12 c 1
 21 0 l 1
 327 435 l 1
 325 478 l 2
 318 616 287 637 261 637 c 0
 237 637 211 627 189 612 c 1
 177 629 l 1
 210 667 247 698 284 698 c 0
 311 698 361 687 366 569 c 2
 383 214 l 2
 390 83 393 49 422 49 c 0
 442 49 456 51 482 77 c 1
 499 60 l 1
EndSplineSet
EndChar

StartChar: u1D707
Encoding: 120583 120583 89
Width: 451
VWidth: 999
Flags: W
ItalicCorrection: 44
TopAccentHorizontal: 305
HStem: -235 21G<-13 44.9677> -12 47<151.732 246.612 343.5 413.11> 411 20G<140 142.5 212 215.479 394 397.5 467 469.583>
VStem: 312 74<14.0862 100.344>
DStem2: 0.537106 -235 70.0492 -235 0.207912 0.978148<49.2668 254.702 347.945 680.335> 252.296 -235 321.692 -235 0.207912 0.978148<311.132 683.658>
LayerCount: 2
Fore
SplineSet
449 343 m 2
 398 124 l 2
 391 91 386 68 386 54 c 0
 386 41 390 35 398 35 c 0
 410 35 422 45 444 79 c 1
 461 65 l 1
 428 13 392 -12 356 -12 c 0
 331 -12 312 4 312 36 c 0
 312 43 313 51 315 60 c 1
 268 16 220 -12 163 -12 c 0
 146 -12 129 -7 120 0 c 1
 113 -7 106 -127 73 -204 c 1
 -6 -235 l 1
 -13 -217 l 1
 8 -183 21 -131 49 -7 c 0
 55 20 62 38 67 59 c 0
 70 70 72 93 77 112 c 2
 125 322 l 2
 131 348 140 393 140 424 c 0
 140 426 140 429 140 431 c 1
 145 430 160 429 171 429 c 0
 189 429 204 433 220 439 c 1
 154 147 l 2
 149 126 146 106 146 89 c 0
 146 55 158 33 191 33 c 0
 242 33 296 66 324 99 c 1
 375 322 l 2
 382 350 393 399 395 431 c 1
 400 430 415 429 426 429 c 0
 444 429 459 433 475 439 c 1
 475 439 457 375 449 343 c 2
EndSplineSet
EndChar

StartChar: u1D708
Encoding: 120584 120584 90
Width: 440
VWidth: 999
Flags: W
ItalicCorrection: 80
TopAccentHorizontal: 332
HStem: -12 21G<198.82 307.5> 380 62<138 230.5>
VStem: 417 83<334.307 430.815>
DStem2: 240 429 179 344 0.0553168 -0.998469<45.0744 361.554>
LayerCount: 2
Fore
SplineSet
179 344 m 2
 177 379 158 380 143 380 c 0
 133 380 124 379 107 375 c 1
 109 405 l 1
 184 420 196 442 225 442 c 0
 236 442 240 437 240 429 c 2
 260 68 l 1
 371 201 404 251 412 286 c 0
 416 305 417 318 417 329 c 0
 417 346 414 356 414 372 c 0
 414 380 415 389 417 401 c 0
 421 418 442 442 470 442 c 0
 491 442 500 426 500 405 c 0
 500 399 499 393 498 387 c 0
 481 313 393 177 222 -12 c 1
 200 -12 l 1
 179 344 l 2
EndSplineSet
EndChar

StartChar: u1D709
Encoding: 120585 120585 91
Width: 391
VWidth: 999
Flags: W
ItalicCorrection: 124
TopAccentHorizontal: 338
HStem: -228 69<100.357 190.691> -6 64<162.688 311.583> 321 67<322.622 404.382> 323 35<242.341 346.998> 561 30<261.684 339.984> 678 20G<238.5 259>
VStem: 70 66<82.9155 213.086> 169 65<362.562 458.15> 193 66<646.243 673.057> 193 56<597.276 672.632> 325 30<-106.665 -26.0268>
LayerCount: 2
Fore
SplineSet
70 119 m 0
 70 177 97 281 220 336 c 1
 189 348 169 362 169 394 c 0
 169 461 234 510 321 568 c 1
 299 562 290 561 271 561 c 0
 221 561 193 577 193 635 c 0
 193 639 193 642 193 646 c 1
 208 668 227 688 250 698 c 1
 259 698 l 1
 249 668 249 651 249 646 c 0
 249 606 272 591 292 591 c 0
 313 591 329 591 360 604 c 1
 419 648 453 670 476 670 c 0
 489 670 495 664 495 652 c 0
 495 623 468 609 372 579 c 1
 244 486 234 441 234 406 c 0
 234 372 253 358 275 358 c 0
 325 358 364 388 391 388 c 0
 404 388 413 380 413 367 c 0
 413 349 396 321 359 321 c 0
 346 321 331 323 318 323 c 0
 288 323 261 318 235 311 c 1
 169 281 136 193 136 140 c 0
 136 97 159 58 242 58 c 0
 309 58 355 27 355 -38 c 0
 355 -132 272 -228 160 -228 c 0
 124 -228 96 -222 96 -198 c 0
 96 -175 115 -159 137 -159 c 0
 177 -159 176 -188 237 -188 c 0
 280 -188 325 -102 325 -61 c 0
 325 -23 291 -6 239 -6 c 0
 108 -6 70 53 70 119 c 0
EndSplineSet
EndChar

StartChar: u1D70A
Encoding: 120586 120586 92
Width: 447
VWidth: 999
Flags: W
ItalicCorrection: 38
TopAccentHorizontal: 329
HStem: -10 37<199.174 296.264> 406 33<250.797 346.617>
VStem: 78 83<66.1742 274.021> 382 83<164.675 372.962>
LayerCount: 2
Fore
SplineSet
161 170 m 0
 161 65 204 27 233 27 c 0
 270.5 27 311 45 339 88 c 0
 375.5 144 382 230.4 382 270 c 0
 382 300.4 379.3 336.6 366.5 362 c 0
 352.3 390.1 336 406 306 406 c 0
 200 406 161 260 161 170 c 0
78 162 m 0
 78 282 157 439 324 439 c 0
 447 439 465 349 465 277 c 0
 465 158.8 397.1 52.9 310 9 c 0
 280.6 -5.8 250.3 -10 218 -10 c 0
 91 -10 78 109 78 162 c 0
EndSplineSet
EndChar

StartChar: u1D70B
Encoding: 120587 120587 93
Width: 525
VWidth: 999
Flags: W
ItalicCorrection: 94
TopAccentHorizontal: 354
HStem: -12 78<61.0007 127.855> -12 53<365.109 446.027> 361 68<166.432 234 279.37 397 449.177 570.163>
VStem: 234 48<280.582 361> 324 63<21.5 149.392>
LayerCount: 2
Fore
SplineSet
591 429 m 1
 599 417 l 1
 575 383 554 361 520 361 c 2
 455 361 l 1
 444 325 424 244 393 106 c 0
 389 91 387 78 387 68 c 0
 387 50 393 41 407 41 c 0
 419 41 458 48 501 86 c 1
 514 70 l 1
 486 39 432 -12 389 -12 c 0
 343 -12 324 3 324 40 c 0
 324 54 327 71 332 92 c 0
 345 150 368 246 397 361 c 1
 282 361 l 1
 226 119 163 -12 72 -12 c 0
 62 -12 48 -7 48 11 c 0
 48 15 49 18 50 22 c 0
 52 32 66 61 91 66 c 0
 119 72 171 89 234 361 c 1
 217 361 l 2
 171 361 136 339 106 282 c 1
 89 285 l 1
 110 345 164 429 212 429 c 2
 591 429 l 1
EndSplineSet
EndChar

StartChar: u1D70C
Encoding: 120588 120588 94
Width: 482
VWidth: 999
Flags: W
ItalicCorrection: 44
TopAccentHorizontal: 357
HStem: -235 21G<0 57.9677> -11 30<195.541 307.389> 404 38<274.972 384.621>
VStem: 423 83<181.902 369.481>
LayerCount: 2
Fore
SplineSet
506 283 m 0
 506 173 413 -11 228 -11 c 0
 188 -11 167 -1 145 16 c 1
 128 -58 l 2
 115 -116 103 -164 86 -204 c 1
 7 -235 l 1
 0 -217 l 1
 21 -183 42 -131 71 -7 c 2
 115 184 l 2
 147 322 182 356 212 383 c 0
 261 426 310 442 354 442 c 0
 448 442 506 373 506 283 c 0
249 19 m 0
 388 19 423 210 423 286 c 0
 423 371 383 404 327 404 c 0
 287 404 228 374 194 228 c 2
 158 71 l 1
 179 41 207 19 249 19 c 0
EndSplineSet
EndChar

StartChar: u1D70D
Encoding: 120589 120589 95
Width: 410
VWidth: 999
Flags: W
ItalicCorrection: 71
TopAccentHorizontal: 309
HStem: -229 41<161 260.176> -6 76<153.611 303.126> 389 53<259.178 359.951>
VStem: 67 54<101.128 231.453> 328 40<-110.885 9.5>
LayerCount: 2
Fore
SplineSet
67 132 m 0
 67 264 193 442 352 442 c 0
 435 442 461 414 461 388 c 0
 461 366 439 333 407 333 c 0
 362 333 376 389 305 389 c 0
 214 389 121 263 121 158 c 0
 121 86 175 70 276 70 c 0
 321 70 368 39 368 -20 c 0
 368 -39 363 -60 358 -83 c 0
 341 -157 268 -229 186 -229 c 0
 136 -229 104 -210 104 -188 c 0
 104 -170 123 -149 145 -149 c 0
 169 -149 186 -161 193 -175 c 0
 199 -187 220 -188 234 -188 c 0
 274 -188 328 -120 328 -68 c 0
 328 -24 276 -10 185 -6 c 0
 103 -2 67 59 67 132 c 0
EndSplineSet
EndChar

StartChar: u1D70E
Encoding: 120590 120590 96
Width: 521
VWidth: 999
Flags: W
ItalicCorrection: 100
TopAccentHorizontal: 318
HStem: -12 34<190.404 302.058> 361 68<256.85 365.746 396 571.666>
VStem: 74 69<63.5905 237.798> 397 66<135.243 311.285>
LayerCount: 2
Fore
SplineSet
74 140 m 0
 74 247 150 429 369 429 c 2
 593 429 l 1
 601 417 l 1
 576 383 556 361 521 361 c 2
 396 361 l 1
 434 336 463 287 463 223 c 0
 463 119 379 -12 233 -12 c 0
 129 -12 74 48 74 140 c 0
349 361 m 1
 182 361 143 204 143 145 c 0
 143 85 170 22 247 22 c 0
 337 22 397 143 397 241 c 0
 397 291 379 325 349 361 c 1
EndSplineSet
EndChar

StartChar: u1D70F
Encoding: 120591 120591 97
Width: 410
VWidth: 999
Flags: W
ItalicCorrection: 108
TopAccentHorizontal: 297
HStem: -12 53<210.5 290.793> 361 68<165.681 260 306.753 468.372>
VStem: 170 65<21 140.889>
LayerCount: 2
Fore
SplineSet
170 41 m 0
 170 96 251 335 260 361 c 1
 208 361 l 2
 162 361 147 344 112 283 c 1
 92 288 l 1
 111 341 155 429 214 429 c 2
 490 429 l 1
 498 417 l 1
 473 383 452 361 418 361 c 2
 313 361 l 1
 268 218 235 100 235 68 c 0
 235 49 241 41 254 41 c 0
 271 41 298 45 346 87 c 1
 359 69 l 1
 318 25 271 -12 230 -12 c 0
 191 -12 170 1 170 41 c 0
EndSplineSet
EndChar

StartChar: u1D710
Encoding: 120592 120592 98
Width: 455
VWidth: 999
Flags: W
ItalicCorrection: 47
TopAccentHorizontal: 325
HStem: -10 39<201.857 313.298> 395 28<105.549 149> 416 20G<216 238.624 416.5 442>
VStem: 115 72<42.3706 218> 167 85.5<313.916 424.006> 436 46<215.888 358.01>
DStem2: 83.6438 -10 157.846 -10 0.21644 0.976296<131.885 390.566>
LayerCount: 2
Fore
SplineSet
123.5 170 m 2
 158 321 l 2
 164 349 167 362.9 167 372 c 0
 167 382 161 391 149 392 c 2
 109 395 l 1
 103 404 101.3 415 108 423 c 1
 155 429 200 436 232 436 c 0
 245.2 436 252.5 428.6 252.5 414.9 c 0
 252.5 397.8 241 359 232.3 320.2 c 2
 201.1 185 l 2
 193 152 187 126 187 101 c 0
 187 56 202 29 260 29 c 0
 357 29 436 203 436 299 c 0
 436 375 384 360 384 402 c 0
 384 433 410 442 423 442 c 0
 461 442 482 407 482 346 c 0
 482 204 397 -10 252 -10 c 0
 157 -10 115 29 115 93 c 0
 115 117 116.6 139.6 123.5 170 c 2
EndSplineSet
EndChar

StartChar: u1D711
Encoding: 120593 120593 99
Width: 537
VWidth: 999
Flags: W
ItalicCorrection: 47
TopAccentHorizontal: 438
HStem: -235 21G<165 215.516> -11.5 29.9<204.764 242 295.1 351.223> 412.6 28.8<288.577 345.2 392.1 426.033> 670 20G<392.25 429 429 468.205>
VStem: 73 71<70.5143 253.484> 492 72<180.105 360.896>
LayerCount: 2
Fore
SplineSet
240 -204 m 1
 171 -235 l 1
 165 -217 l 1
 188.7 -177.4 217.6 -92.4 242 -11.5 c 1
 137.6 -5.5 73 53.4 73 149 c 0
 73 249.5 146.7 429.3 351 441.4 c 1
 367.7 523.9 384.5 609.6 400 690 c 1
 429 688 l 1
 475 698 l 1
 422 542 l 2
 413.3 515.8 403 480.8 392.1 441.5 c 1
 500.5 436.1 564 383.4 564 286 c 0
 564 155.4 462 5.2 290.1 -10.6 c 1
 277.4 -81.6 263.3 -148.9 240 -204 c 1
295.1 17.8 m 1
 421.8 27.7 465 127.2 484 206 c 0
 489 230 492 253 492 276 c 0
 492 344.1 464 401.5 383.9 411.5 c 1
 363.5 335.8 342.1 249.5 326 181 c 0
 313.6 127.5 304.5 71.9 295.1 17.8 c 1
345.2 412.6 m 1
 194.2 403.6 144 235.8 144 155 c 0
 144 89.1 172.4 28.3 250.8 18.4 c 1
 275.6 103.1 294 176 294 176 c 1
 309.7 242.6 327.3 325.1 345.2 412.6 c 1
EndSplineSet
EndChar

StartChar: u1D712
Encoding: 120594 120594 100
Width: 469
VWidth: 487
Flags: W
ItalicCorrection: 105
TopAccentHorizontal: 342
HStem: -228 59<318.628 376.71> 383 59<139.655 198.126> 413 20G<452.469 488>
DStem2: 273 259 221 255 0.0878938 -0.99613<-118.741 82.3858 127.563 136.939 194.07 426.352>
LayerCount: 2
Fore
SplineSet
221 255 m 1
 215 350 199 383 155 383 c 0
 145 383 126 377 108 361 c 1
 97 379 l 1
 129 408 152 442 187 442 c 0
 249 442 263 371 273 259 c 2
 281 177 l 1
 467 433 l 1
 467 433 481 429 488 429 c 0
 510 429 554 436 554 436 c 1
 464 332 l 1
 285 132 l 1
 300 -47 l 1
 311 -163 323 -169 360 -169 c 0
 377 -169 396 -156 411 -141 c 1
 425 -157 l 1
 396 -193 358 -228 335 -228 c 0
 272 -228 263 -180 249 -47 c 2
 237 61 l 1
 118 -122 l 1
 33 -231 l 1
 -8 -221 l 1
 -32 -220 l 1
 -25 -204 l 1
 233 118 l 1
 221 255 l 1
EndSplineSet
EndChar

StartChar: u1D713
Encoding: 120595 120595 101
Width: 584
VWidth: 999
Flags: MW
ItalicCorrection: 122
TopAccentHorizontal: 480
HStem: -235 10G<214 239> -10 27<261 292> 380 62<147 249> 681 10G<414 475 475 517>
DStem2: 174 263 230 271 0.199368 0.979925<-101.302 91.0699> 505 219 538 171 0.382352 0.924017<-147.842 231.69>
LayerCount: 2
Fore
SplineSet
300 17 m 1
 336 150 381 352 446 690 c 1
 475 688 l 1
 521 698 l 1
 468 542 l 2
 451 491 372 219 342 17 c 1
 411 39 460 108 505 219 c 2
 540 304 l 2
 554 339 580 409 589 436 c 1
 598 432 625 429 632 429 c 0
 646 429 658 431 681 438 c 1
 686 436 l 1
 652 402 623 380 603 332 c 2
 538 171 l 2
 506 93 432 9 336 -10 c 1
 335 -17 317 -129 286 -204 c 1
 218 -235 l 1
 211 -217 l 1
 231 -183 263 -116 292 -10 c 1
 191 -8 160 52 160 138 c 0
 160 175 166 218 174 263 c 2
 188 344 l 2
 189 347 189 350 189 353 c 0
 189 378 166 380 152 380 c 0
 142 380 133 379 117 375 c 1
 119 405 l 1
 193 420 214 442 244 442 c 0
 254 442 260 438 259 429 c 2
 230 271 l 1
 223 226 218 185 218 149 c 0
 218 75 239 24 300 17 c 1
EndSplineSet
EndChar

StartChar: u1D714
Encoding: 120596 120596 102
Width: 630
VWidth: 999
Flags: W
ItalicCorrection: 42
TopAccentHorizontal: 423
HStem: -12 34<159.004 249.845 388.273 487.63> 422 20G<258 316 512 544>
VStem: 64 72<39.2215 214.754> 329 80<193.763 254.504> 582 70<154.366 342.959>
LayerCount: 2
Fore
SplineSet
652 256 m 0
 652 180 593 -12 438 -12 c 0
 390 -12 343 14 334 93 c 1
 286 18 241 -12 188 -12 c 0
 120 -12 64 18 64 107 c 0
 64 272 207 388 309 442 c 1
 316 422 l 1
 283 405 178 319 146 184 c 0
 139 153 136 126 136 105 c 0
 136 48 160 22 210 22 c 0
 250 22 286 57 330 128 c 1
 329 136 329 143 329 151 c 0
 329 214 352 284 386 284 c 0
 404 284 409 278 409 266 c 0
 409 239 378 165 357 131 c 1
 364 61 381 22 434 22 c 0
 521 22 554 115 576 212 c 0
 579 226 582 243 582 262 c 0
 582 305 568 361 512 423 c 1
 530 442 l 1
 558 427 652 370 652 256 c 0
EndSplineSet
EndChar

StartChar: u1D715
Encoding: 120597 120597 103
Width: 462
VWidth: 488
Flags: W
ItalicCorrection: 55
TopAccentHorizontal: 345
HStem: -11 33<168.731 257.858> 331 38<251.634 363.293> 584 32<268.834 374.29>
LayerCount: 2
Fore
SplineSet
312 331 m 0
 236 331 155 233 136 138 c 0
 126 85 157 22 212 22 c 0
 294 22 359 168 393 278 c 1
 381 297 356 331 312 331 c 0
297 369 m 0
 345 369 381 352 405 314 c 1
 409 324 412 337 416 354 c 0
 431 435 421 584 334 584 c 0
 285 584 271 573 264 564 c 0
 250 546 231 528 213 528 c 0
 194 528 184 539 188 556 c 0
 194 589 262 616 335 616 c 0
 459 616 521 487 489 327 c 0
 458 169 359 -11 204 -11 c 0
 108 -11 41 59 62 166 c 1
 85 290 203 369 297 369 c 0
EndSplineSet
EndChar

StartChar: u1D716
Encoding: 120598 120598 104
Width: 421
VWidth: 999
Flags: W
ItalicCorrection: 62
TopAccentHorizontal: 346
HStem: -8 44<203.429 331.011> 208 44<172 380> 400 44<257.794 427.351>
VStem: 79 80<82.0627 207.546>
LayerCount: 2
Fore
SplineSet
357 400 m 2
 342 400 l 2
 314 400 278 397 240 366 c 0
 213 345 188 304 172 252 c 1
 391 252 l 1
 380 208 l 1
 163 208 l 1
 160 192 159 178 159 165 c 0
 159 127 168 96 187 73 c 0
 206 50 232 36 271 36 c 0
 294 36 315 41 337 50 c 0
 357 59 376 70 394 84 c 1
 405 69 l 1
 391 53 374 40 353 26 c 0
 318 4 279 -8 237 -8 c 0
 175 -8 133 13 106 54 c 0
 87 83 79 115 79 152 c 0
 79 171 81 192 86 214 c 0
 101 279 135 335 186 379 c 0
 237 423 302 444 343 444 c 0
 387 444 419 433 443 410 c 0
 451 403 458 396 463 388 c 1
 443 367 l 1
 435 374 426 380 416 386 c 0
 399 395 382 400 357 400 c 2
EndSplineSet
EndChar

StartChar: u1D717
Encoding: 120599 120599 105
Width: 507
VWidth: 999
Flags: W
ItalicCorrection: 106
TopAccentHorizontal: 378
HStem: -12 31<206.982 293.615> 375 39<338.04 453 531 561.621> 664 34<328.057 427.985>
VStem: 114 69<34.9409 210.856> 208 65<467.67 613.298> 474 67<415.569 609.782>
LayerCount: 2
Fore
SplineSet
390 664 m 0
 291 664 273 573 273 538 c 0
 273 512 281 482 303 457 c 0
 322 435 365 414 462 414 c 1
 471 452 474 485 474 514 c 0
 474 618 425 664 390 664 c 0
208 524 m 0
 208 650 309 698 377 698 c 0
 496 698 541 605 541 503 c 0
 541 474 538 443 531 414 c 1
 563 414 582 411 593 402 c 1
 580 390 571 374 562 361 c 1
 554 368 541 375 521 375 c 1
 471 154 375 -12 237 -12 c 0
 154 -12 114 20 114 89 c 0
 114 108 117 129 122 152 c 2
 136 212 l 2
 139 224 140 233 140 239 c 0
 140 253 134 257 125 257 c 0
 113 257 102 255 85 252 c 1
 87 281 l 1
 182 295 194 318 215 318 c 2
 229 318 l 1
 191 153 l 2
 186 131 183 112 183 95 c 0
 183 42 210 19 257 19 c 0
 348 19 426 260 453 375 c 1
 326 375 269 395 238 437 c 0
 217 466 208 492 208 524 c 0
EndSplineSet
EndChar

StartChar: u1D718
Encoding: 120600 120600 106
Width: 507
VWidth: 999
Flags: W
ItalicCorrection: 46
TopAccentHorizontal: 349
HStem: -12 73<378.839 435.692> 334 74<163.335 220.294>
VStem: 64 96<-7.93347 46.4356> 221 40<237.64 366.5> 338 40<29 158.714> 438 95<344.564 398.481>
LayerCount: 2
Fore
SplineSet
217 273 m 0
 220 285 221 295 221 303 c 0
 221 324 212 334 194 334 c 0
 168 334 139 320 104 291 c 1
 101 290 l 1
 100 291 l 1
 88 306 l 1
 87 307 l 1
 89 309 l 1
 137 371 181 408 216 408 c 0
 247 408 261 387 261 346 c 0
 261 327 258 302 251 273 c 0
 244 240 229 198 206 143 c 1
 242 170 281 204 323 246 c 0
 387 308 428 354 438 374 c 0
 449 397 469 408 497 408 c 0
 521 408 533 399 533 381 c 0
 533 377 533 373 532 369 c 0
 526 342 493 313 435 278 c 1
 409 213 391 162 382 122 c 0
 379 110 378 101 378 93 c 0
 378 71 387 61 405 61 c 0
 431 61 460 75 496 104 c 1
 498 106 l 1
 500 104 l 1
 511 90 l 1
 512 88 l 1
 510 87 l 1
 462 25 418 -12 383 -12 c 0
 353 -12 338 9 338 49 c 0
 338 69 341 93 348 122 c 0
 355 153 368 193 387 244 c 1
 353 217 315 185 275 145 c 1
 210 83 170 37 160 17 c 0
 149 -7 129 -17 101 -17 c 0
 77 -17 64 -8 64 10 c 0
 64 14 65 18 66 22 c 0
 72 48 103 77 157 109 c 1
 186 173 207 229 217 273 c 0
EndSplineSet
EndChar

StartChar: u1D719
Encoding: 120601 120601 107
Width: 546
VWidth: 999
Flags: W
ItalicCorrection: 43
TopAccentHorizontal: 383
HStem: -235 21G<227.059 275> -10 29<194.545 237> 403 39<402.658 480.718> 415 20G<245 280.429>
VStem: 79 70<58.2641 255.374> 204 63<-201 -59.1891> 496 73<193.808 392.187>
LayerCount: 2
Fore
SplineSet
297 20 m 1xee
 451 41 496 223 496 319 c 0
 496 370 481 403 445 403 c 0
 410 403 380 377 356 276 c 2
 297 20 l 1xee
281 414 m 1
 188 347 149 218 149 129 c 0
 149 69 172 26 244 19 c 1
 299 260 l 2
 303 274 330 442 455 442 c 0xee
 536 442 569 381 569 306 c 0
 569 284 566 261 561 237 c 0
 516 42 354 -4 292 -10 c 1
 274 -85 267 -132 267 -166 c 0
 267 -187 270 -203 275 -217 c 1
 260 -235 l 1
 204 -201 l 1
 204 -159 217 -95 237 -10 c 1
 128 -3 79 55 79 147 c 0
 79 172 83 198 89 227 c 0
 113 330 221 413 269 435 c 1xde
 281 414 l 1
EndSplineSet
EndChar

StartChar: u1D71A
Encoding: 120602 120602 108
Width: 454
VWidth: 999
Flags: W
ItalicCorrection: 50
TopAccentHorizontal: 316
HStem: -176 69<120.75 294.395> 8 34<172.749 288.078> 397 36<248.37 369.223>
VStem: 39 41<-69.6705 87.9732> 310 23<-225 -209.281> 410 74<174.936 359.367>
LayerCount: 2
Fore
SplineSet
152 79 m 0
 170 55 194 42 228 42 c 0
 256 42 290 54 329 86 c 0
 364 115 389 160 404 226 c 0
 408 243 410 260 410 276 c 0
 410 300 406 324 396 346 c 0
 380 380 351 397 313 397 c 0
 280 397 250 387 216 354 c 0
 185 323 162 277 147 211 c 0
 140 183 137 158 137 137 c 0
 137 112 142 92 152 79 c 0
458 376 m 0
 476 352 484 322 484 287 c 0
 484 267 482 245 476 221 c 0
 461 156 432 104 386 65 c 0
 340 26 286 8 222 8 c 0
 160 8 115 36 86 90 c 1
 82 62 80 36 80 13 c 0
 80 -26 86 -57 101 -71 c 0
 127 -96 170 -107 234 -107 c 0
 323 -107 334 -168 334 -209 c 0
 334 -215 333 -220 333 -225 c 1
 310 -225 l 1
 306 -217 308 -176 208 -176 c 0
 142 -176 90 -161 62 -124 c 0
 45 -103 39 -71 39 -30 c 0
 39 26 52 98 69 173 c 0
 93 276 119 329 161 368 c 0
 203 407 259 433 318 433 c 0
 382 433 430 415 458 376 c 0
EndSplineSet
EndChar

StartChar: u1D71B
Encoding: 120603 120603 109
Width: 642
VWidth: 999
Flags: W
ItalicCorrection: 46
TopAccentHorizontal: 417
HStem: -12 34<161.207 252.087 393.721 499.649> 420 49<240 517.04>
VStem: 66 72<39.9706 212.723> 331 80<192.139 252.481> 595 73<173.725 350.008>
LayerCount: 2
Fore
SplineSet
411 266 m 0
 411 239 381 167 359 131 c 1
 366 61 388 22 440 22 c 0
 516 22 556 75 588 217 c 0
 593 238 595 256 595 273 c 0
 595 378 511 420 421 420 c 2
 285 420 l 2
 250 420 236 424 227 458 c 1
 240 469 l 1
 452 469 l 2
 588 469 668 380 668 275 c 0
 668 170 570 -12 439 -12 c 0
 392 -12 345 14 336 93 c 1
 288 18 243 -12 190 -12 c 0
 122 -12 66 18 66 108 c 0
 66 284 225 374 288 402 c 1
 295 382 l 1
 261 365 180 319 149 184 c 0
 142 153 138 126 138 105 c 0
 138 48 163 22 212 22 c 0
 253 22 288 57 333 128 c 1
 331 136 331 144 331 152 c 0
 331 214 354 284 389 284 c 0
 406 284 411 278 411 266 c 0
EndSplineSet
EndChar

StartChar: u1D463.alt
Encoding: 1114112 -1 110
Width: 540
VWidth: 0
Flags: W
ItalicCorrection: 51
TopAccentHorizontal: 400
HStem: -6 52<260.046 381.937> 378 51<160.475 270.993> 419 20G<503.5 525>
VStem: 151 79<77.3497 204.678> 271 74<357 419> 521 50<235.543 354.53>
LayerCount: 2
Fore
SplineSet
521 298 m 0
 521 310 519 322 516 331 c 0
 508 356 475 371 475 403 c 0
 475 423 493 439 514 439 c 0
 536 439 571 419 571 353 c 0
 571 296 546 132 397 25 c 0
 369 5 333 -6 294 -6 c 0
 259 -6 225 1 198 20 c 0
 167 41 151 75 151 116 c 0
 151 167 166 213 252 328 c 1
 264 342 271 353 271 361 c 0
 271 370 262 378 231 378 c 2
 207 378 l 2
 188 378 170 371 160 364 c 0
 152 358 134 338 122 300 c 1
 109 294 100 300 94 307 c 1
 106 355 126 392 151 418 c 0
 159 426 166 429 182 429 c 2
 326 429 l 2
 339 429 345 423 345 415 c 0
 345 394 329 379 278 307 c 1
 238 253 230 200 230 141 c 0
 230 109 243 82 265 63 c 0
 280 50 296 46 338 46 c 0
 411 46 521 205 521 298 c 0
EndSplineSet
EndChar

StartChar: uni210E.inferior
Encoding: 1114113 -1 111
Width: 307
VWidth: 917
Flags: W
HStem: -112 23<1.40625 15.9 114.9 126.1 157.406 175.9 275.9 282.1> 121 34<174.717 227.184> 225 21<63.9 96.5797>
VStem: -0.9 286.7
LayerCount: 2
Fore
SplineSet
146.1 188 m 2
 129 104 l 1
 146.3 120 188.4 155 224.4 155 c 0
 269.4 155 294.3 130 280.7 63 c 2
 255.4 -61 l 2
 251.5 -80 256.8 -84.7 275.9 -88 c 2
 281.7 -89 l 2
 285.5 -90 286.2 -92 285.8 -94 c 2
 282.1 -112 l 1
 282.1 -112 244.3 -111 220.3 -111 c 0
 195.3 -111 155.1 -112 155.1 -112 c 1
 158.7 -94 l 2
 159.1 -92 160.7 -89 164.7 -89 c 2
 175.9 -88 l 2
 195.1 -86.3 202.1 -82 206.4 -61 c 2
 229.6 53 l 2
 240 104 223.5 121 193.5 121 c 0
 172.5 121 147 99 123.3 76 c 1
 95.4 -61 l 2
 91.1 -82 97.4 -86.4 114.9 -88 c 2
 125.7 -89 l 2
 127.7 -89 130.5 -90 129.7 -94 c 2
 126.1 -112 l 1
 126.1 -112 86.3 -111 60.3 -111 c 0
 36.3 -111 -0.9 -112 -0.9 -112 c 1
 2.7 -94 l 2
 3.1 -92 3.7 -89 7.7 -89 c 2
 15.9 -88 l 2
 40.1 -85 42.1 -82 46.4 -61 c 2
 94.4 175 l 2
 102.9 217 98.4 224 85.4 224 c 2
 64.6 225 l 2
 62.6 225 60.8 226 61.2 228 c 2
 63.9 246 l 1
 90.3 248 138 256 155.4 263 c 1
 161.4 263 162.9 261 161.9 256 c 2
 161.9 256 154.6 230 146.1 188 c 2
EndSplineSet
EndChar

StartChar: u1D44E.inferior
Encoding: 1114114 -1 112
Width: 307
VWidth: 999
Flags: W
HStem: -117 31<79.7084 144.702 201.1 256.916> 137 24<127.937 203.28>
VStem: 22.6 53.2<-83.6268 -15.0065> 58.9 52.6<64.2774 120.703> 213.6 51.5<51.3692 133.556>
LayerCount: 2
Fore
SplineSet
58.9 82.2 m 0xd8
 58.9 124.1 137 161 179.7 161 c 0
 221.1 161 265.1 146.7 265.1 85.5 c 0
 265.1 74.3 263.6 61.5 260.4 47 c 2
 243.8 -28 l 2
 239.7 -46.6 237.7 -60.1 237.7 -69.4 c 0
 237.7 -80.1 240.4 -85 245.2 -85 c 0
 249.2 -85 254.6 -83 258.3 -80 c 1
 264.7 -96 l 1
 253.7 -105 232.1 -117 214.1 -117 c 0
 188.1 -117 178.5 -97 179.7 -78 c 1
 140 -108 120.1 -117 87.1 -117 c 0
 49.5 -117 22.6 -96.4 22.6 -63.2 c 0xe8
 22.6 -2.5 95.9 25.6 147.4 38 c 2
 208.8 53 l 1
 212.2 68.2 213.6 80.7 213.6 90.9 c 0
 213.6 131.3 191 137 173.4 137 c 0
 132.6 137 105.4 118.8 111.5 97 c 1
 116.3 86.2 106.3 63 80 63 c 0
 67.2 63 58.9 70.2 58.9 82.2 c 0xd8
203 27 m 1
 142.1 11.6 75.8 -6.1 75.8 -55.8 c 0
 75.8 -72.4 85.6 -86 112.9 -86 c 0
 133.9 -86 153.2 -76 185.5 -52 c 1
 203 27 l 1
EndSplineSet
EndChar

StartChar: u1D44F.inferior
Encoding: 1114115 -1 113
Width: 285
VWidth: 917
Flags: W
HStem: -118 26<96.505 164.16> 124 31<144.507 208.336> 219 22<62 85.716>
VStem: 220 53<-18.576 118.577>
DStem2: 23.097 -118 70.657 -118 0.207912 0.978148<80.1221 253.112 263.975 338.947>
LayerCount: 2
Fore
SplineSet
95 197 m 2
 96 203 97 209 97 213 c 0
 97 219 95 223 86 223 c 0
 80 223 70 222 59 219 c 1
 62 241 l 1
 95 245 117 251 143 263 c 1
 157 263 l 1
 126 130 l 1
 153 146 178 155 202 155 c 0
 250 155 273 116 273 67 c 0
 273 53 271 39 268 25 c 0
 251 -49 182 -118 120 -118 c 0
 92 -118 69 -108 58 -94 c 1
 50 -102 40 -111 33 -118 c 1
 21 -114 l 1
 26 -99 29 -88 35 -62 c 2
 95 197 l 2
119 102 m 1
 90 -27 l 2
 88 -35 87 -43 87 -50 c 0
 87 -83 110 -92 127 -92 c 0
 149 -92 192 -80 213 13 c 0
 218 32 220 48 220 62 c 0
 220 103 203 124 181 124 c 0
 156 124 143 118 119 102 c 1
EndSplineSet
EndChar

StartChar: u1D450.inferior
Encoding: 1114116 -1 114
Width: 270
VWidth: 609
Flags: W
HStem: -118 32<92.967 174.199> -63 20<200 227> 134 27<140.168 206.193>
VStem: 22 53<-73.819 61.809> 210 54<85 132.765>
LayerCount: 2
Fore
SplineSet
185 161 m 0
 238 161 264 135 264 106 c 0
 264 102 263 98 263 94 c 0
 258 74 244 65 231 65 c 0
 219 65 209 71 209 85 c 0
 209 86 209 87 209 88 c 0
 209 94 210 99 210 104 c 0
 210 120 204 134 176 134 c 0
 146 134 98 101 80 20 c 0
 77 7 75 -7 75 -19 c 0
 75 -30 76 -40 79 -48 c 0
 88 -71 107 -86 128 -86 c 0
 164 -86 188 -65 212 -43 c 1
 227 -59 l 1
 195 -94 159 -118 116 -118 c 0
 50 -118 22 -78 22 -25 c 0
 22 -12 23 2 27 16 c 0
 44 89 103 161 185 161 c 0
EndSplineSet
EndChar

StartChar: u1D451.inferior
Encoding: 1114117 -1 115
Width: 295
VWidth: 917
Flags: W
HStem: -114 25<94.417 156.303> -96 22<245.284 269> 129 26<135.588 202.348> 219 22<216 238.716>
VStem: 29 52<-83.041 59.222>
DStem2: 176.247 -118 222.971 -118 0.207912 0.978148<61.1444 233.852 258.293 338.916>
LayerCount: 2
Fore
SplineSet
189 -58 m 1
 223 90 l 1
 212 109 196 129 171 129 c 0
 139 129 106 102 89 28 c 0
 83 5 81 -14 81 -30 c 0
 81 -74 100 -89 125 -89 c 0
 146 -89 164 -79 189 -58 c 1
183 -85 m 1
 161 -101 136 -114 113 -114 c 0
 61 -114 29 -80 29 -25 c 0
 29 -13 30 -1 33 13 c 0
 48 77 101 155 175 155 c 0
 200 155 222 148 233 134 c 1
 247 197 l 2
 249 203 250 209 250 213 c 0
 250 219 247 223 239 223 c 0
 233 223 223 222 212 219 c 1
 216 241 l 1
 247 245 270 251 296 263 c 1
 310 263 l 1
 237 -52 l 2
 235 -58 234 -63 234 -68 c 0
 234 -74 237 -78 245 -78 c 0
 251 -78 261 -77 272 -74 c 1
 269 -96 l 1
 237 -100 214 -105 188 -118 c 1
 175 -118 l 1
 183 -85 l 1
EndSplineSet
EndChar

StartChar: u1D452.inferior
Encoding: 1114118 -1 116
Width: 307
VWidth: 609
Flags: W
HStem: -117 31<110.371 193.408> 42 28<107.519 219.932> 136 25<150.941 212.404>
VStem: 33.1 54.9<-70.5418 40.7587> 220.8 51.8<70 133.584>
LayerCount: 2
Fore
SplineSet
217.5 70 m 1
 219.7 80.1 220.8 88.7 220.8 96.1 c 0
 220.8 127.4 202.6 136 183.2 136 c 0
 152.2 136 118.9 99 107.5 70 c 1
 217.5 70 l 1
88 -16.9 m 0
 88 -68 125.2 -86 144.9 -86 c 0
 182.9 -86 207.6 -65 231.5 -43 c 1
 247.9 -59 l 1
 214.1 -94 179.1 -117 133.1 -117 c 0
 63.6 -117 33.1 -76.9 33.1 -22.4 c 0
 33.1 66.6 107.2 161 189.7 161 c 0
 254.7 161 272.6 127.7 272.6 84.3 c 0
 272.6 70.9 270.8 56.6 268.3 42 c 1
 98.3 42 l 1
 95.9 36.9 88 6.6 88 -16.9 c 0
EndSplineSet
EndChar

StartChar: u1D453.inferior
Encoding: 1114119 -1 117
Width: 242
VWidth: 999
Flags: W
HStem: -112 23<-2.5 41.391 93.646 132> 93 29<43.312 83 137 201.902> 238 25<178.432 229.441>
VStem: 234 49<192.811 220.906>
DStem2: 37.16 -112 83.16 -112 0.207912 0.978148<50.8742 210.051 249.645 329.486>
LayerCount: 2
Fore
SplineSet
48 -61 m 2
 83 93 l 1
 42 93 l 2
 40 93 40 94 40 96 c 2
 44 110 l 2
 45 115 49 122 59 122 c 2
 90 122 l 1
 112 218 173 263 223 263 c 0
 245 263 259 257 271 246 c 0
 279 239 284 230 284 221 c 0
 284 219 283 217 283 215 c 0
 280 203 267 192 256 192 c 0
 244 192 237 200 234 211 c 1
 231 231 223 238 206 238 c 0
 186 238 161 227 139 132 c 1
 137 122 l 1
 202 122 l 2
 205 122 206 121 206 119 c 2
 202 101 l 2
 200 95 192 93 186 93 c 2
 130 93 l 1
 94 -61 l 2
 94 -65 93 -69 93 -72 c 0
 93 -83 99 -89 113 -89 c 2
 133 -89 l 2
 135 -89 137 -90 137 -94 c 2
 133 -111 l 1
 132 -112 l 1
 132 -112 80 -111 57 -111 c 0
 36 -111 -4 -112 -4 -112 c 1
 -5 -111 l 1
 -1 -94 l 2
 0 -90 2 -89 5 -89 c 2
 16 -89 l 2
 36 -89 44 -79 48 -61 c 2
EndSplineSet
EndChar

StartChar: u1D454.inferior
Encoding: 1114120 -1 118
Width: 315
VWidth: 523
Flags: W
HStem: -244 30<36.543 155.627> -113 38<71.375 192.912> -22 22<116.066 180.827> 141 22<137.27 202.997> 147 28<249.586 307.239>
VStem: -15 42<-206.621 -141.238> 31 40<-74.397 -24.244> 57 48<3.754 111.615> 211 38<-180.176 -131.247> 214 48<28.024 134.796>
LayerCount: 2
Fore
SplineSet
296 126 m 0
 286 126 281 131 280 138 c 0
 279 144 274 147 266 147 c 0
 259 147 251 139 247 133 c 1
 256 119 262 107 262 90 c 0
 262 84 261 77 259 69 c 0
 246 9 188 -22 139 -22 c 0
 116 -22 100 -18 88 -10 c 1
 79 -20 75 -31 72 -44 c 0
 71 -48 71 -51 71 -54 c 0
 71 -71 86 -75 99 -75 c 0
 102 -75 110 -74 118 -73 c 0
 131 -72 147 -70 156 -70 c 0
 177 -70 215 -74 234 -96 c 0
 244 -107 249 -118 249 -132 c 0
 249 -136 248 -141 247 -146 c 0
 232 -213 141 -244 65 -244 c 0
 27 -244 -15 -233 -15 -193 c 0
 -15 -188 -14 -182 -13 -176 c 0
 -7 -150 18 -124 52 -104 c 1
 41 -98 31 -86 31 -69 c 0
 31 -66 32 -63 32 -59 c 0
 37 -38 57 -13 76 2 c 1
 66 15 57 29 57 52 c 0
 57 58 58 64 59 71 c 0
 72 128 131 163 181 163 c 0
 209 163 225 154 233 148 c 1
 253 166 271 175 293 175 c 0
 314 175 323 165 323 154 c 0
 323 153 323 151 323 150 c 0
 320 136 307 126 296 126 c 0
62 -109 m 1
 40 -127 34 -143 29 -164 c 0
 28 -168 27 -172 27 -176 c 0
 27 -211 70 -214 89 -214 c 0
 139 -214 200 -207 210 -162 c 0
 211 -159 211 -157 211 -154 c 0
 211 -144 204 -138 187 -128 c 0
 173 -119 155 -113 127 -113 c 0
 122 -113 115 -113 107 -114 c 1
 98 -114 89 -115 83 -115 c 0
 75 -115 67 -112 62 -109 c 1
210 67 m 0
 212 78 214 88 214 97 c 0
 214 127 199 141 172 141 c 0
 140 141 120 125 109 77 c 0
 106 67 105 56 105 46 c 0
 105 21 114 0 147 0 c 0
 167 0 195 5 210 67 c 0
EndSplineSet
EndChar

StartChar: u1D456.inferior
Encoding: 1114121 -1 119
Width: 194
VWidth: 952
Flags: W
HStem: -111 23<1.475 52.912 128.239 145.919> 123 21<59.451 92.188> 205 58<119.935 172.672>
VStem: 116.7 59.6<208.488 260.108>
DStem2: 47.918 -111 96.918 -111 0.21644 0.976296<52.5251 221.673>
LayerCount: 2
Fore
SplineSet
143.7 100 m 2
 108.7 -58 l 2
 107.6 -62.9 107 -67.1 107 -70.5 c 0
 107 -83 114.2 -86.2 128.2 -87 c 2
 146 -88 l 2
 148 -88 150.6 -90 149.9 -93 c 2
 145.9 -111 l 1
 145.9 -111 101.1 -110 72.1 -110 c 0
 44.1 -110 -1.1 -111 -1.1 -111 c 1
 2.9 -93 l 2
 3.6 -90 5 -88 10 -88 c 2
 28.2 -87 l 2
 48.4 -86 54.8 -80 59.7 -58 c 2
 88.7 73 l 2
 92.1 88.3 93.7 98.9 93.7 106.3 c 0
 93.7 119.2 88.9 122 80.6 122 c 2
 59.8 123 l 2
 57.8 123 56.1 124 56.5 126 c 2
 59.5 144 l 1
 85.9 146 133.6 154 151.2 161 c 1
 164.4 161 155.4 152.9 143.7 100 c 2
116.7 227.8 m 0
 116.7 236.6 123.9 263 152.8 263 c 0
 170 263 176.3 252.9 176.3 241.6 c 0
 176.3 220.6 157.5 205 140 205 c 0
 125.4 205 116.7 215.3 116.7 227.8 c 0
EndSplineSet
EndChar

StartChar: u1D457.inferior
Encoding: 1114122 -1 120
Width: 207
VWidth: 952
Flags: W
HStem: -213 19<14.763 44.125> 123 21<84.141 116.806> 206 57<140.916 196.365>
VStem: -32.8 47.2<-193.594 -155.418>
DStem2: 55.169 -213 103.987 -213 0.207912 0.978148<42.6798 337.917 435.07 490.184>
LayerCount: 2
Fore
SplineSet
174.4 263 m 0
 196.4 263 201.3 248 198.5 234 c 0
 195.4 219 179.8 206 162.8 206 c 0
 145.8 206 135.4 219 138.5 234 c 0
 141.8 250 155.4 263 174.4 263 c 0
114.7 73 m 2
 123.2 115 118.7 122 105.7 122 c 2
 84.9 123 l 2
 82.9 123 81.1 124 81.5 126 c 2
 84.1 144 l 1
 110.5 146 158.2 154 175.6 161 c 1
 181.6 161 183.2 159 182.2 154 c 2
 182.2 154 174.7 127 169.2 100 c 2
 139.5 -46 l 2
 122.2 -131 111.7 -158 78.6 -188 c 0
 58.9 -206 37.5 -213 21.5 -213 c 0
 -5.5 -213 -36.9 -200 -32.8 -180 c 0
 -29.5 -164 -18.7 -155 -6.7 -155 c 0
 8.3 -155 13.2 -170 14.4 -184 c 0
 14.2 -190 17.4 -194 22.4 -194 c 0
 51.4 -194 67.5 -159 86.4 -66 c 2
 114.7 73 l 2
EndSplineSet
EndChar

StartChar: u1D458.inferior
Encoding: 1114123 -1 121
Width: 305
VWidth: 917
Flags: W
HStem: -112 23<0.561996 40.199 90.184 117 237.293 269> 132 22<208 222.085 266.501 316.951> 219 22<73 96.67>
VStem: -2 321
DStem2: 183 40 140 -3 0.386727 -0.922194<-6.30351 133.869>
LayerCount: 2
Fore
SplineSet
110.5 18.4 m 1
 92 -62 l 2
 91 -67 90 -71 90 -75 c 0
 90 -86 97 -89 110 -89 c 2
 117 -89 l 2
 120 -89 122 -90 121 -94 c 2
 117 -112 l 1
 117 -112 81 -111 57 -111 c 0
 34 -111 -2 -112 -2 -112 c 1
 2 -94 l 2
 2 -92 3 -89 8 -89 c 2
 15 -89 l 1
 38 -88 40 -83 45 -62 c 2
 105 197 l 2
 106 203 107 209 107 213 c 0
 107 219 105 223 97 223 c 0
 90 223 81 222 69 219 c 1
 73 241 l 1
 105 245 127 251 154 263 c 1
 167 263 l 1
 115.4 39.5 l 1
 144.3 51.4 168.4 67 208 104 c 0
 217 112 221 119 222 123 c 0
 224 131 214 132 206 132 c 0
 203 132 202 135 203 137 c 2
 206 154 l 1
 208 155 l 1
 208 155 236 154 257 154 c 0
 280 154 319 155 319 155 c 1
 321 154 l 1
 317 137 l 2
 316 134 312 132 310 132 c 0
 287 132 257 121 231 97 c 2
 186 55 l 2
 184 53 182 50 182 48 c 0
 181 45 181 42 183 40 c 1
 222 -53 l 2
 226 -63 236 -89 268 -89 c 0
 272 -89 275 -91 274 -94 c 2
 271 -110 l 1
 269 -112 l 1
 269 -112 233 -111 210 -111 c 0
 189 -111 173 -112 173 -112 c 1
 172 -110 l 1
 176 -94 l 2
 177 -88 176 -84 168 -67 c 2
 140 -3 l 2
 135 8 129 19 116 19 c 0
 114.3 19 112.5 18.8 110.5 18.4 c 1
EndSplineSet
EndChar

StartChar: u1D459.inferior
Encoding: 1114124 -1 122
Width: 161
VWidth: 917
Flags: W
HStem: -112 23<-12.5973 1.939 100.939 109.057> 225 21<49.893 82.559>
VStem: -14.9 162.9
DStem2: 21.593 -112 70.593 -112 0.207912 0.978148<39.7825 338.912>
LayerCount: 2
Fore
SplineSet
80.4 175 m 2
 88.9 217 84.4 224 71.4 224 c 2
 50.6 225 l 2
 48.6 225 46.8 226 47.2 228 c 2
 49.9 246 l 1
 76.3 248 124 256 141.4 263 c 1
 147.4 263 149 261 148 256 c 2
 148 256 140.6 230 132.1 188 c 2
 81.4 -61 l 2
 77.2 -81.5 84 -85.8 100.9 -88 c 2
 108.7 -89 l 2
 110.6 -89.2 113.5 -90 112.7 -94 c 2
 109.1 -112 l 1
 109.1 -112 70.9 -111 46.3 -111 c 0
 22.5 -111 -14.9 -112 -14.9 -112 c 1
 -11.3 -94 l 2
 -10.9 -92 -10.4 -89.5 -6.3 -89 c 2
 1.9 -88 l 2
 26.8 -85 28.1 -82 32.4 -61 c 2
 80.4 175 l 2
EndSplineSet
EndChar

StartChar: u1D45A.inferior
Encoding: 1114125 -1 123
Width: 464
VWidth: 917
Flags: W
HStem: -112 23<11.203 50.861 101.249 130 161.562 203.969 254.005 280 311.203 353.969 404.004 430> 127 34<186.994 237.717 336.686 386.833>
VStem: 391 50<42.8 124.46>
DStem2: 44.372 -112 91.372 -112 0.207912 0.978148<49.0815 228.26> 198.372 -112 245.372 -112 0.207912 0.978148<45.94 205.31> 348.372 -112 395.372 -112 0.207912 0.978148<45.985 205.057>
LayerCount: 2
Fore
SplineSet
60 139 m 1
 92 143 114 149 141 161 c 1
 154 161 l 1
 142 109 l 1
 159 126 201 161 236 161 c 0
 268.9 161 290.5 147 291.9 109.9 c 1
 309.5 127.2 351.6 161 385 161 c 0
 419 161 441 146 441 106 c 0
 441 96 439 83 436 69 c 2
 406 -62 l 2
 404 -68 404 -73 404 -77 c 0
 404 -88 410 -89 424 -89 c 2
 430 -89 l 2
 435 -89 435 -92 434 -94 c 2
 430 -112 l 1
 430 -112 394 -111 370 -111 c 0
 346 -111 308 -112 308 -112 c 1
 313 -94 l 2
 313 -92 314 -89 318 -89 c 2
 329 -89 l 1
 348 -88 354 -86 359 -62 c 2
 387 59 l 2
 390 70 391 80 391 89 c 0
 391 117 377 127 355 127 c 0
 336.5 127 312.8 108.2 290.3 87.1 c 1
 289.4 81.4 288.3 75.3 287 69 c 2
 256 -62 l 2
 255 -69 254 -74 254 -77 c 0
 254 -88 261 -89 274 -89 c 2
 281 -89 l 2
 285 -89 285 -92 285 -94 c 2
 280 -112 l 1
 280 -112 244 -111 221 -111 c 0
 197 -111 159 -112 159 -112 c 1
 163 -94 l 2
 164 -92 165 -89 168 -89 c 2
 179 -89 l 1
 198 -88 204 -86 209 -62 c 2
 237 59 l 2
 240 71 242 81 242 89 c 0
 242 117 227 127 205 127 c 0
 185 127 159 105 136 82 c 1
 102 -62 l 2
 101 -67 101 -71 101 -74 c 0
 101 -86 108 -89 120 -89 c 2
 131 -89 l 2
 133 -89 136 -90 135 -94 c 2
 130 -112 l 1
 130 -112 92 -111 67 -111 c 0
 44 -111 8 -112 8 -112 c 1
 13 -94 l 2
 13 -92 14 -89 18 -89 c 2
 25 -89 l 1
 49 -88 51 -83 55 -62 c 2
 92 95 l 2
 93 101 94 107 94 111 c 0
 94 117 92 121 84 121 c 0
 77 121 67 120 57 117 c 1
 60 139 l 1
EndSplineSet
EndChar

StartChar: u1D45B.inferior
Encoding: 1114126 -1 124
Width: 329
VWidth: 917
Flags: W
HStem: -112 23<25.742 64.936 138.018 148.697 181.254 199.018> 123 21<70.451 103.188> 127 34<203.986 256.562>
VStem: 261.2 51.1<41.641 123.368>
DStem2: 58.697 -112 107.697 -112 0.21644 0.976296<51.9839 222.698> 219.697 -112 267.697 -112 0.21644 0.976296<51.7019 203.362>
LayerCount: 2
Fore
SplineSet
156.9 110 m 1
 158.7 109 l 1
 176.5 126 217.2 161 253.2 161 c 0
 289.9 161 312.3 145 312.3 104.6 c 0
 312.3 94.3 310.8 82.6 307.8 69 c 2
 279 -61 l 2
 278 -65.4 277.5 -69 277.5 -72 c 0
 277.5 -93.4 311 -83.6 308.7 -94 c 2
 304.7 -112 l 1
 304.7 -112 266.9 -111 242.9 -111 c 0
 217.9 -111 178.7 -112 178.7 -112 c 1
 182.7 -94 l 2
 183.1 -92 184.8 -89 187.8 -89 c 2
 199 -88 l 2
 220.4 -86 225.9 -84 231 -61 c 2
 257.6 59 l 2
 260 70 261.2 79.5 261.2 87.5 c 0
 261.2 116.6 246 127 221.7 127 c 0
 200.7 127 174.8 105 150.7 82 c 1
 119 -61 l 2
 118 -65.3 117.6 -69 117.6 -72 c 0
 117.6 -84.5 125.3 -87.2 138 -88 c 2
 148.8 -89 l 2
 150.8 -89 153.6 -90 152.7 -94 c 2
 148.7 -112 l 1
 148.7 -112 108.9 -111 82.9 -111 c 0
 58.9 -111 21.7 -112 21.7 -112 c 1
 25.7 -94 l 2
 26.8 -88.9 29.8 -89.3 39 -88 c 0
 63.7 -85 65.3 -82 70 -61 c 2
 99.7 73 l 2
 103.1 88.3 104.7 98.9 104.7 106.3 c 0
 104.7 119.2 99.9 122 91.6 122 c 2
 70.8 123 l 2
 68.8 123 67.1 124 67.5 126 c 2
 70.5 144 l 1
 96.9 146 144.6 154 162.2 161 c 1
 174.4 161 166.8 154.8 156.9 110 c 1
EndSplineSet
EndChar

StartChar: u1D45C.inferior
Encoding: 1114127 -1 125
Width: 307
VWidth: 608
Flags: W
HStem: -117 25<109.2 173.097> 136 25<142.084 204.837>
VStem: 25.9 59.8<-79.3426 66.407> 225.4 61.7<-27.0468 124.762>
LayerCount: 2
Fore
SplineSet
141.6 -92 m 0
 186.9 -92 225.4 -24.6 225.4 55 c 0
 225.4 103.9 207.4 136 176.2 136 c 0
 114.5 136 85.7 34.8 85.7 -17.3 c 0
 85.7 -66.4 109.2 -92 141.6 -92 c 0
25.9 -16.1 m 0
 25.9 35.1 67.6 161 187.7 161 c 0
 266.9 161 287.1 110.4 287.1 62.3 c 0
 287.1 -38.2 212.3 -117 125.1 -117 c 0
 57.2 -117 25.9 -69.2 25.9 -16.1 c 0
EndSplineSet
EndChar

StartChar: u1D45D.inferior
Encoding: 1114128 -1 126
Width: 305
VWidth: 442
Flags: W
HStem: -243 23<-26.9531 11.165 61.25 91> -112 26<109.495 179.641> 117 22<50 73.716> 124 31<161.804 221.157>
VStem: 231 53<-21.298 120.496>
DStem2: 5.372 -243 52.372 -243 0.207912 0.978148<48.8737 164.464 214.647 362.635>
LayerCount: 2
Fore
SplineSet
83 95 m 2
 84 101 85 107 85 111 c 0
 85 117 82 121 74 121 c 0
 68 121 58 120 47 117 c 1
 50 139 l 1
 83 143 105 149 131 161 c 1
 145 161 l 1
 144 156 l 1
 136 125 l 1
 160 140 187 155 215 155 c 0
 260 155 284 115 284 64 c 0
 284 52 283 38 280 25 c 0
 263 -49 195 -112 133 -112 c 0
 114 -112 97 -104 86 -92 c 1
 63 -193 l 2
 62 -198 61 -202 61 -205 c 0
 61 -217 68 -220 81 -220 c 2
 91 -220 l 2
 94 -220 96 -221 95 -225 c 2
 91 -243 l 1
 91 -243 53 -242 28 -242 c 0
 5 -242 -31 -243 -31 -243 c 1
 -27 -224 l 2
 -26 -222 -25 -220 -21 -220 c 2
 -14 -220 l 1
 10 -219 11 -213 16 -193 c 2
 83 95 l 2
103 -21 m 2
 101 -30 100 -37 100 -44 c 0
 100 -77 123 -86 140 -86 c 0
 162 -86 203 -80 225 13 c 0
 229 33 231 50 231 64 c 0
 231 104 216 124 197 124 c 0
 172 124 151 110 129 92 c 1
 103 -21 l 2
EndSplineSet
EndChar

StartChar: u1D45E.inferior
Encoding: 1114129 -1 127
Width: 308
VWidth: 442
Flags: W
HStem: -243 23<110.048 151.374 202.003 228> -112 26<96.258 160.791> 129 26<135.588 202.588>
VStem: 29 53<-78.927 59.222>
LayerCount: 2
Fore
SplineSet
189 -58 m 1
 223 90 l 1
 212 109 196 129 171 129 c 0
 139 129 106 102 89 28 c 0
 84 7 82 -11 82 -25 c 0
 82 -72 104 -86 129 -86 c 0
 150 -86 164 -79 189 -58 c 1
267 153 m 2
 270 156 278 161 281 161 c 0
 283 161 284 159 284 156 c 0
 284 155 284 154 284 152 c 2
 205 -193 l 2
 203 -200 202 -205 202 -209 c 0
 202 -216 206 -219 222 -220 c 1
 229 -220 l 2
 233 -220 233 -222 233 -224 c 2
 228 -243 l 1
 228 -243 193 -242 170 -242 c 0
 145 -242 106 -243 106 -243 c 1
 110 -225 l 2
 111 -221 114 -220 117 -220 c 2
 127 -220 l 2
 143 -220 152 -215 158 -193 c 2
 183 -85 l 1
 161 -101 140 -112 118 -112 c 0
 64 -112 29 -78 29 -23 c 0
 29 -12 30 0 33 13 c 0
 48 77 101 155 175 155 c 0
 203 155 226 146 237 129 c 1
 267 153 l 2
EndSplineSet
EndChar

StartChar: u1D45F.inferior
Encoding: 1114130 -1 128
Width: 246
VWidth: 952
Flags: W
HStem: -111 23<-5.394 21.143 121.143 139.26> 121 40<176.77 236.233> 123 21<48.141 80.806>
VStem: -7.7 261
DStem2: 40.814 -111 89.814 -111 0.207912 0.978148<39.6075 233.645>
LayerCount: 2
Fore
SplineSet
135.6 102 m 1
 157.7 127 191.6 161 222.6 161 c 0
 249.6 161 257 148 253.3 130 c 0
 249.8 113 237 104 219 104 c 0
 207 104 199.8 108 195.2 115 c 0
 192 119 187.5 121 183.5 121 c 0
 176.5 121 159 109 138.3 86 c 0
 133.3 81 127.5 72 125.9 64 c 2
 100.2 -62 l 2
 96.1 -82 102.3 -85.9 121.1 -87 c 2
 138.9 -88 l 2
 140.9 -88 143.5 -90 142.9 -93 c 2
 139.3 -111 l 1
 139.3 -111 94.5 -110 65.5 -110 c 0
 37.5 -110 -7.7 -111 -7.7 -111 c 1
 -4.1 -93 l 2
 -3.5 -90 -2.1 -88 2.9 -88 c 2
 21.1 -87 l 2
 44.5 -85.7 47.3 -81 51.2 -62 c 2
 78.7 73 l 2
 87.2 115 82.7 122 69.7 122 c 2
 48.9 123 l 2
 46.9 123 45.1 124 45.5 126 c 2
 48.1 144 l 1
 74.5 146 122.2 154 139.6 161 c 1
 145.6 161 147.2 159 146.2 154 c 2
 146.2 154 139.3 130.2 133.8 103 c 1
 135.6 102 l 1
EndSplineSet
EndChar

StartChar: u1D460.inferior
Encoding: 1114131 -1 129
Width: 253
VWidth: 625
Flags: W
HStem: -118 25<54.519 131.894> 136 25<110.066 178.912>
VStem: 14.2 22<-73.325 -18> 199.7 23.2<69 112.34>
LayerCount: 2
Fore
SplineSet
14.2 -18 m 1
 36.2 -18 l 1
 34.4 -32 34.9 -59 47.6 -75 c 0
 53.4 -81 69.9 -93 92.9 -93 c 0
 116.9 -93 143.2 -82 148.7 -55 c 0
 153 -34 149 -14 103.3 7 c 0
 61.2 26 33.3 42 42.5 87 c 0
 51 129 102.6 161 151.6 161 c 0
 182.6 161 219.5 151 229.1 144 c 1
 222.9 69 l 1
 199.7 68 l 1
 197.5 126 165.5 136 146.5 136 c 0
 121.5 136 97.9 123 92.4 96 c 0
 87.5 72 95.6 63 126.8 49 c 0
 173.5 28 215.7 9 205.5 -41 c 0
 193.1 -102 123.8 -118 89.8 -118 c 0
 59.8 -118 40.7 -104 20.7 -104 c 0
 17.7 -104 7.5 -105 1.3 -106 c 1
 6.2 -82 10.7 -50 14.2 -18 c 1
EndSplineSet
EndChar

StartChar: u1D461.inferior
Encoding: 1114132 -1 130
Width: 197
VWidth: 999
Flags: W
HStem: -118 35<63 132.608> 126 29<44.188 81.381 136 199.947>
VStem: 37 50<-82.74 24.328>
DStem2: 40 -57 94 -27 0.256435 0.966561<3.76454 187.651 229.565 304.171>
LayerCount: 2
Fore
SplineSet
129 126 m 1
 94 -27 l 2
 90 -44 87 -57 87 -66 c 0
 87 -78 91 -83 100 -83 c 0
 116 -83 127 -78 145 -66 c 1
 156 -83 l 1
 125 -110 101 -118 74 -118 c 0
 52 -118 37 -107 37 -80 c 0
 37 -73 38 -65 40 -57 c 2
 82 126 l 1
 44 126 l 2
 42 126 41 126 41 128 c 2
 47 152 l 2
 47 154 48 155 50 155 c 0
 89 155 104 179 116 226 c 1
 118 237 l 1
 158 250 l 1
 136 155 l 1
 200 155 l 2
 203 155 205 153 204 151 c 2
 200 133 l 2
 199 128 190 126 184 126 c 2
 129 126 l 1
EndSplineSet
EndChar

StartChar: u1D462.inferior
Encoding: 1114133 -1 131
Width: 306
VWidth: 917
Flags: W
HStem: -118 35<101.957 152.316> -96 22<256.284 280> 132 23<60 84.996 210 238.75>
VStem: 48 50<-81.247 48>
DStem2: 33.445 -118 80.319 -118 0.207912 0.978148<84.2168 243.379> 185.947 -118 237.185 -118 0.207912 0.978148<61.4146 240.757>
LayerCount: 2
Fore
SplineSet
141 154 m 1
 102 -16 l 2
 99 -28 98 -38 98 -46 c 0
 98 -74 112 -83 134 -83 c 0
 155 -83 180 -61 204 -39 c 1
 237 106 l 2
 238 110 239 114 239 117 c 0
 239 129 232 132 219 132 c 2
 209 132 l 2
 207 132 204 133 205 137 c 2
 209 154 l 1
 210 155 l 1
 210 155 248 154 272 154 c 0
 281 154 294 155 294 155 c 1
 295 154 l 1
 248 -52 l 2
 246 -58 245 -63 245 -68 c 0
 245 -74 248 -78 256 -78 c 0
 262 -78 272 -77 283 -74 c 1
 280 -96 l 1
 248 -100 225 -105 199 -118 c 1
 186 -118 l 1
 197 -66 l 1
 180 -83 138 -118 104 -118 c 0
 69 -118 48 -102 48 -63 c 0
 48 -53 49 -40 53 -26 c 2
 83 106 l 2
 85 112 85 117 85 120 c 0
 85 131 79 132 65 132 c 2
 59 132 l 2
 54 132 54 135 55 137 c 2
 59 154 l 1
 60 155 l 1
 60 155 96 154 119 154 c 0
 127 154 140 155 140 155 c 1
 141 154 l 1
EndSplineSet
EndChar

StartChar: u1D463.inferior
Encoding: 1114134 -1 132
Width: 301
VWidth: 633
Flags: W
HStem: 132 23<46 65.931 118.716 151.998 230 255 286.323 319.951>
VStem: 41 282
DStem2: 118 101 73 92 0.160335 -0.987063<-16.5561 155.51> 146 -52 138 -104 0.542031 0.840358<0 201.694>
LayerCount: 2
Fore
SplineSet
105 -105 m 2
 73 92 l 2
 67 127 63 132 45 132 c 0
 42 132 40 133 41 137 c 2
 45 154 l 1
 46 155 l 1
 46 155 83 154 101 154 c 2
 155 155 l 1
 156 154 l 1
 152 137 l 2
 152 134 149 132 146 132 c 2
 136 132 l 2
 128 132 120 128 118 118 c 0
 117 113 117 108 118 101 c 2
 146 -52 l 1
 244 98 l 2
 250 107 253 113 255 118 c 0
 255 119 255 120 255 121 c 0
 255 130 246 132 228 132 c 0
 226 132 225 135 225 137 c 2
 229 154 l 1
 230 155 l 1
 230 155 263 154 284 154 c 0
 302 154 323 155 323 155 c 1
 324 154 l 1
 320 137 l 2
 319 133 315 132 312 132 c 0
 299 132 288 128 267 96 c 2
 138 -104 l 2
 131 -115 121 -118 115 -118 c 0
 110 -118 106 -112 105 -105 c 2
EndSplineSet
EndChar

StartChar: u1D464.inferior
Encoding: 1114135 -1 133
Width: 445
VWidth: 633
Flags: W
HStem: 132 23<55.378 79.205 132.938 167.013 202.378 224.589 278.561 314.013 372.378 403.744 437.168 471.675>
DStem2: 134.392 101 85.188 100 0.164986 -0.986296<-21.725 155.337> 161.264 -52 153.685 -104 0.500161 0.865932<0 120.94> 279.392 101 234.509 77 0.164986 -0.986296<-19.6985 16.266 50.4737 155.172> 305.264 -52 298.685 -104 0.513517 0.858079<0 195.31>
LayerCount: 2
Fore
SplineSet
165.7 137 m 2
 165.1 134 162.7 132 160.7 132 c 2
 151.7 132 l 2
 140.7 132 134.3 130 132.9 123 c 0
 131.9 118 132.4 111 134.4 101 c 2
 161.3 -52 l 1
 234.5 77 l 1
 230.2 100 l 2
 225.7 127 219.7 132 201.7 132 c 0
 198.7 132 196.9 133 197.7 137 c 2
 201.2 154 l 1
 202.4 155 l 1
 202.4 155 240.2 154 259.2 154 c 2
 314.4 155 l 1
 316.2 154 l 1
 312.7 137 l 2
 312.1 134 309.7 132 306.7 132 c 0
 288.7 132 280.5 131 278.5 121 c 0
 277.7 117 278.2 110 279.4 101 c 2
 305.3 -52 l 1
 394.8 98 l 2
 399.4 106 402.6 112 403.6 117 c 0
 405.8 128 397.7 132 379.7 132 c 2
 370.7 132 l 2
 368.7 132 367.3 135 367.7 137 c 2
 371.2 154 l 1
 372.4 155 l 1
 372.4 155 412.2 154 433.2 154 c 0
 452.2 154 474.4 155 474.4 155 c 1
 475.2 154 l 1
 471.7 137 l 2
 470.9 133 466.7 132 463.7 132 c 0
 449.7 132 435.3 125 418.4 96 c 2
 298.7 -104 l 2
 291.5 -115 281.8 -118 274.8 -118 c 0
 269.8 -118 265.9 -113 264.5 -105 c 2
 238.6 43 l 1
 153.7 -104 l 2
 147.5 -115 137.8 -118 129.8 -118 c 0
 124.8 -118 120.9 -113 119.5 -105 c 2
 85.2 100 l 2
 80.1 129 72.7 132 56.7 132 c 0
 53.7 132 50.1 134 50.7 137 c 2
 54.2 154 l 1
 55.4 155 l 1
 55.4 155 82.2 154 106.2 154 c 0
 132.2 154 168.4 155 168.4 155 c 1
 169.2 154 l 1
 165.7 137 l 2
EndSplineSet
EndChar

StartChar: u1D465.inferior
Encoding: 1114136 -1 134
Width: 307
VWidth: 608
Flags: W
HStem: -112 24<-10.1381 38.4054 93.0074 99.3916 148.83 172.826 239.838 275.835> 134 22<50.584 80.2417 147.443 173.204 220.141 231.345 279.839 326.128>
DStem2: 55.2549 -62 89.4814 -70 0.699536 0.714598<13.3989 97.7077 164.9 255.236> 174.528 52 134.882 13 0.433469 -0.901169<-80.4953 0 47.0661 119.838>
LayerCount: 2
Fore
SplineSet
-9.3 -96 m 2
 -7.7 -89 -3.5 -88 3.5 -88 c 0
 22.5 -88 30.2 -85 55.3 -62 c 2
 55.3 -62 131.2 10 134.9 13 c 1
 86.3 114 l 2
 80 126 70.7 134 58.7 134 c 0
 46.7 134 45.2 136 46.3 141 c 2
 49.1 154 l 1
 50.6 156 l 1
 70.4 155 86.4 155 110.4 155 c 0
 130.4 155 151.4 155 175.6 156 c 1
 175.9 153 l 1
 173.3 141 l 2
 172.2 136 166.7 134 157.7 134 c 0
 139.8 134 147.2 114.5 148.7 107 c 1
 174.5 52 l 1
 236.2 118 l 1
 245.8 125.9 244.9 134 225.7 134 c 0
 219.7 134 216 135 217.3 141 c 2
 220.1 154 l 1
 221.6 156 l 1
 239.4 155 255.1 154 272.1 154 c 0
 292.1 154 306.4 155 327.6 156 c 1
 327.9 153 l 1
 325.5 142 l 2
 324.2 136 323.7 134 311.7 134 c 0
 290.7 134 284.6 129 258.8 103 c 2
 185.8 26 l 1
 229.7 -60 l 2
 236.6 -74 245.5 -88 267.5 -88 c 0
 279.5 -88 279.6 -92 278.7 -96 c 2
 275.8 -109 l 1
 274.2 -112 l 1
 255.6 -110 237.6 -110 218.6 -110 c 0
 195.6 -110 161.4 -111 147.2 -112 c 1
 146.6 -110 l 1
 148.8 -100 l 2
 150.1 -94 153.5 -88 162.5 -88 c 0
 179.7 -88 179.7 -82.7 175.3 -71 c 1
 175.3 -71 149.1 -22 145.9 -14 c 1
 89.5 -70 l 1
 73.8 -87.7 79.1 -88 96.5 -88 c 0
 104.5 -88 104.8 -91 103.7 -96 c 2
 101.1 -108 l 1
 99.4 -111 l 1
 79.6 -110 63.6 -110 47.6 -110 c 0
 24.6 -110 6.4 -111 -11.8 -112 c 1
 -12.2 -109 l 1
 -9.3 -96 l 2
EndSplineSet
EndChar

StartChar: u1D466.inferior
Encoding: 1114137 -1 135
Width: 338
VWidth: 141
Flags: W
HStem: -238 41<4.207 74.728> 132 24<40.582 67.235 127.542 163.879 241.582 267.538 308.308 348.141>
DStem2: 128.02 109 74.578 97 0.239106 -0.970994<-11.6963 155.055> 111.005 -127 125.104 -156 0.541211 0.840887<-90.1283 36.4593 99.7769 293.079>
LayerCount: 2
Fore
SplineSet
163.9 138 m 2
 163.1 134 158.7 132 155.7 132 c 0
 137.7 132 129.1 129 127.5 121 c 0
 127.1 119 127 113.1 128 109 c 2
 163.3 -42 l 1
 261.6 107 l 2
 264.4 111 266.9 118 267.5 121 c 0
 269.3 130 258.7 132 244.7 132 c 2
 241.7 132 l 2
 238.7 132 236.3 135 236.7 137 c 2
 240.2 154 l 1
 241.6 156 l 1
 241.6 156 283.2 154 305.2 154 c 0
 322.2 154 348.6 156 348.6 156 c 1
 350.2 154 l 1
 346.9 138 l 2
 346.1 134 343.7 132 338.7 132 c 0
 314.7 132 298.9 113 287.2 95 c 0
 239 25 199.7 -35 125.1 -156 c 0
 97.1 -200 66.4 -238 22.4 -238 c 0
 10.4 -238 -18.6 -228 -13.9 -205 c 0
 -10.2 -187 10.6 -178 20.6 -178 c 0
 29.6 -178 35 -181 38 -186 c 0
 42.8 -192 46.8 -197 52.8 -197 c 0
 61.8 -197 87.3 -165 111 -127 c 0
 115.6 -119 117.7 -114 118.9 -108 c 0
 120.3 -101 118.6 -85 116.2 -72 c 2
 74.6 97 l 2
 68.3 122.4 66.7 132 39.7 132 c 0
 36.7 132 34.3 135 34.7 137 c 2
 38.2 154 l 1
 40.6 156 l 1
 40.6 156 76.2 154 95.2 154 c 0
 124.2 154 166.6 156 166.6 156 c 1
 167.2 154 l 1
 163.9 138 l 2
EndSplineSet
EndChar

StartChar: u1D467.inferior
Encoding: 1114138 -1 136
Width: 262
VWidth: 999
Flags: W
HStem: -112 30<69 186.408> 126 29<91.004 198>
VStem: 71 20<155.454 162>
DStem2: 8 -92 69 -82 0.657034 0.753861<47.6177 289.178>
LayerCount: 2
Fore
SplineSet
105 155 m 2
 218 155 l 2
 236 155 264 157 266 157 c 0
 269 157 273 157 272 154 c 1
 272 153 l 2
 272 151 270 147 254 128 c 2
 69 -82 l 1
 140 -82 l 2
 174 -82 186 -74 207 -41 c 1
 219 -24 l 1
 239 -28 l 1
 220 -64 207 -93 200 -112 c 1
 11 -112 l 2
 3 -112 -1 -109 -1 -106 c 0
 -1 -100 6 -94 8 -92 c 2
 198 126 l 1
 124 126 l 2
 106 126 85 120 63 76 c 1
 42 77 l 1
 55 107 64 134 71 162 c 1
 91 162 l 1
 91 159 96 155 105 155 c 2
EndSplineSet
EndChar

StartChar: uni210E.superior
Encoding: 1114139 -1 137
Width: 307
VWidth: 917
Flags: W
HStem: 364 23<94.4062 108.9 207.9 219.1 250.406 268.9 368.9 375.1> 597 34<267.717 320.184> 701 21<156.9 189.58>
VStem: 92.1 286.7
LayerCount: 2
Fore
SplineSet
239.1 664 m 2
 222 580 l 1
 239.3 596 281.4 631 317.4 631 c 0
 362.4 631 387.3 606 373.7 539 c 2
 348.4 415 l 2
 344.5 396 349.8 391.3 368.9 388 c 2
 374.7 387 l 2
 378.5 386 379.2 384 378.8 382 c 2
 375.1 364 l 1
 375.1 364 337.3 365 313.3 365 c 0
 288.3 365 248.1 364 248.1 364 c 1
 251.7 382 l 2
 252.1 384 253.7 387 257.7 387 c 2
 268.9 388 l 2
 288.1 389.7 295.1 394 299.4 415 c 2
 322.6 529 l 2
 333 580 316.5 597 286.5 597 c 0
 265.5 597 240 575 216.3 552 c 1
 188.4 415 l 2
 184.1 394 190.4 389.6 207.9 388 c 2
 218.7 387 l 2
 220.7 387 223.5 386 222.7 382 c 2
 219.1 364 l 1
 219.1 364 179.3 365 153.3 365 c 0
 129.3 365 92.1 364 92.1 364 c 1
 95.7 382 l 2
 96.1 384 96.7 387 100.7 387 c 2
 108.9 388 l 2
 133.1 391 135.1 394 139.4 415 c 2
 187.4 651 l 2
 195.9 693 191.4 700 178.4 700 c 2
 157.6 701 l 2
 155.6 701 153.8 702 154.2 704 c 2
 156.9 722 l 1
 183.3 724 231 732 248.4 739 c 1
 254.4 739 255.9 737 254.9 732 c 2
 254.9 732 247.6 706 239.1 664 c 2
EndSplineSet
EndChar

StartChar: u1D44E.superior
Encoding: 1114140 -1 138
Width: 276
VWidth: 999
Flags: W
HStem: 358 32<173.789 233.679 286 337.767> 612 25<222.976 293.792>
VStem: 121 50<391.248 462.074> 158 49<539.883 597.094> 266 55<375.124 446.508> 302 48<527.489 610.048>
DStem2: 257.59 358 308.047 358 0.21644 0.976296<59.0499 147.818 175.477 215.106>
LayerCount: 2
Fore
SplineSet
291 502 m 1
 206 480 180 462 172 431 c 0
 171 426 171 422 171 418 c 0
 171 402 180 390 205 390 c 0
 224 390 242 400 272 423 c 1
 291 502 l 1
297 358 m 0
 275 358 266 376 266 393 c 0
 266 395 266 396 267 397 c 1
 228 367 209 358 179 358 c 0
 145 358 121 378 121 411 c 0
 121 416 122 422 123 428 c 0
 133 470 177 498 239 514 c 2
 297 529 l 1
 301 545 302 558 302 569 c 0
 302 607 282 612 266 612 c 0
 234 612 212 601 209 585 c 0
 208 581 207 577 207 575 c 0
 207 574 207 573 207 572 c 0
 208 571 208 570 208 568 c 0
 208 565 208 563 207 560 c 0
 205 552 195 539 178 539 c 0
 166 539 158 546 158 557 c 0
 158 559 159 562 159 564 c 0
 168 604 233 637 272 637 c 0
 310 637 350 623 350 564 c 0
 350 552 349 539 345 523 c 2
 328 448 l 2
 323 427 321 413 321 404 c 0
 321 395 323 391 328 391 c 0
 331 391 336 393 340 396 c 1
 345 380 l 1
 335 370 314 358 297 358 c 0
EndSplineSet
EndChar

StartChar: u1D44F.superior
Encoding: 1114141 -1 139
Width: 285
VWidth: 917
Flags: W
HStem: 358 26<206.505 274.16> 600 31<254.507 318.336> 695 22<172 195.716>
VStem: 330 53<457.424 594.577>
DStem2: 133.097 358 180.657 358 0.207912 0.978148<80.1221 253.112 263.975 338.947>
LayerCount: 2
Fore
SplineSet
205 673 m 2
 206 679 207 685 207 689 c 0
 207 695 205 699 196 699 c 0
 190 699 180 698 169 695 c 1
 172 717 l 1
 205 721 227 727 253 739 c 1
 267 739 l 1
 236 606 l 1
 263 622 288 631 312 631 c 0
 360 631 383 592 383 543 c 0
 383 529 381 515 378 501 c 0
 361 427 292 358 230 358 c 0
 202 358 179 368 168 382 c 1
 160 374 150 365 143 358 c 1
 131 362 l 1
 136 377 139 388 145 414 c 2
 205 673 l 2
229 578 m 1
 200 449 l 2
 198 441 197 433 197 426 c 0
 197 393 220 384 237 384 c 0
 259 384 302 396 323 489 c 0
 328 508 330 524 330 538 c 0
 330 579 313 600 291 600 c 0
 266 600 253 594 229 578 c 1
EndSplineSet
EndChar

StartChar: u1D450.superior
Encoding: 1114142 -1 140
Width: 270
VWidth: 609
Flags: W
HStem: 358 32<204.967 286.199> 413 20G<312 339> 610 27<252.168 318.193>
VStem: 134 53<402.181 537.809> 322 54<561 608.765>
LayerCount: 2
Fore
SplineSet
297 637 m 0
 350 637 376 611 376 582 c 0
 376 578 375 574 375 570 c 0
 370 550 356 541 343 541 c 0
 331 541 321 547 321 561 c 0
 321 562 321 563 321 564 c 0
 321 570 322 575 322 580 c 0
 322 596 316 610 288 610 c 0
 258 610 210 577 192 496 c 0
 189 483 187 469 187 457 c 0
 187 446 188 436 191 428 c 0
 200 405 219 390 240 390 c 0
 276 390 300 411 324 433 c 1
 339 417 l 1
 307 382 271 358 228 358 c 0
 162 358 134 398 134 451 c 0
 134 464 135 478 139 492 c 0
 156 565 215 637 297 637 c 0
EndSplineSet
EndChar

StartChar: u1D451.superior
Encoding: 1114143 -1 141
Width: 295
VWidth: 917
Flags: W
HStem: 362 25<201.417 263.303> 380 22<352.284 376> 605 26<242.588 309.348> 695 22<323 345.716>
VStem: 136 52<392.959 535.222>
DStem2: 283.247 358 329.971 358 0.207912 0.978148<61.1444 233.852 258.293 338.916>
LayerCount: 2
Fore
SplineSet
296 418 m 1
 330 566 l 1
 319 585 303 605 278 605 c 0
 246 605 213 578 196 504 c 0
 190 481 188 462 188 446 c 0
 188 402 207 387 232 387 c 0
 253 387 271 397 296 418 c 1
290 391 m 1
 268 375 243 362 220 362 c 0
 168 362 136 396 136 451 c 0
 136 463 137 475 140 489 c 0
 155 553 208 631 282 631 c 0
 307 631 329 624 340 610 c 1
 354 673 l 2
 356 679 357 685 357 689 c 0
 357 695 354 699 346 699 c 0
 340 699 330 698 319 695 c 1
 323 717 l 1
 354 721 377 727 403 739 c 1
 417 739 l 1
 344 424 l 2
 342 418 341 413 341 408 c 0
 341 402 344 398 352 398 c 0
 358 398 368 399 379 402 c 1
 376 380 l 1
 344 376 321 371 295 358 c 1
 282 358 l 1
 290 391 l 1
EndSplineSet
EndChar

StartChar: u1D452.superior
Encoding: 1114144 -1 142
Width: 307
VWidth: 609
Flags: W
HStem: 359 31<223.371 306.408> 518 28<220.519 332.932> 612 25<263.941 325.404>
VStem: 146.1 54.9<405.458 516.759> 333.8 51.8<546 609.584>
LayerCount: 2
Fore
SplineSet
330.5 546 m 1
 332.7 556.1 333.8 564.7 333.8 572.1 c 0
 333.8 603.4 315.6 612 296.2 612 c 0
 265.2 612 231.9 575 220.5 546 c 1
 330.5 546 l 1
201 459.2 m 0
 201 408.1 238.2 390 257.9 390 c 0
 295.9 390 320.6 411 344.5 433 c 1
 360.9 417 l 1
 327.1 382 292.1 359 246.1 359 c 0
 176.6 359 146.1 399.1 146.1 453.6 c 0
 146.1 542.6 220.2 637 302.7 637 c 0
 367.7 637 385.6 603.7 385.6 560.3 c 0
 385.6 546.9 383.8 532.6 381.3 518 c 1
 211.3 518 l 1
 208.9 512.9 201 482.7 201 459.2 c 0
EndSplineSet
EndChar

StartChar: u1D453.superior
Encoding: 1114145 -1 143
Width: 242
VWidth: 999
Flags: W
HStem: 364 23<114.5 158.391 210.646 249> 569 29<160.312 200 254 318.902> 714 25<295.432 346.441>
VStem: 351 49<668.811 696.906>
DStem2: 154.16 364 200.16 364 0.207912 0.978148<50.8742 210.051 249.645 329.486>
LayerCount: 2
Fore
SplineSet
165 415 m 2
 200 569 l 1
 159 569 l 2
 157 569 157 570 157 572 c 2
 161 586 l 2
 162 591 166 598 176 598 c 2
 207 598 l 1
 229 694 290 739 340 739 c 0
 362 739 376 733 388 722 c 0
 396 715 401 706 401 697 c 0
 401 695 400 693 400 691 c 0
 397 679 384 668 373 668 c 0
 361 668 354 676 351 687 c 1
 348 707 340 714 323 714 c 0
 303 714 278 703 256 608 c 1
 254 598 l 1
 319 598 l 2
 322 598 323 597 323 595 c 2
 319 577 l 2
 317 571 309 569 303 569 c 2
 247 569 l 1
 211 415 l 2
 211 411 210 407 210 404 c 0
 210 393 216 387 230 387 c 2
 250 387 l 2
 252 387 254 386 254 382 c 2
 250 365 l 1
 249 364 l 1
 249 364 197 365 174 365 c 0
 153 365 113 364 113 364 c 1
 112 365 l 1
 116 382 l 2
 117 386 119 387 122 387 c 2
 133 387 l 2
 153 387 161 397 165 415 c 2
EndSplineSet
EndChar

StartChar: u1D454.superior
Encoding: 1114146 -1 144
Width: 302
VWidth: 999
Flags: W
HStem: 230 30<134.543 253.627> 361 38<169.375 290.912> 452 22<214.066 278.827> 615 22<235.27 300.997> 621 28<347.586 405.239>
VStem: 83 42<267.379 332.762> 129 40<399.603 449.756> 155 48<477.754 585.615> 309 38<293.824 342.753> 312 48<502.024 608.796>
LayerCount: 2
Fore
SplineSet
394 600 m 0
 384 600 379 605 378 612 c 0
 377 618 372 621 364 621 c 0
 357 621 349 613 345 607 c 1
 354 593 360 581 360 564 c 0
 360 558 359 551 357 543 c 0
 344 483 286 452 237 452 c 0
 214 452 198 456 186 464 c 1
 177 454 173 443 170 430 c 0
 169 426 169 423 169 420 c 0
 169 403 184 399 197 399 c 0
 200 399 208 400 216 401 c 0
 229 402 245 404 254 404 c 0
 275 404 313 400 332 378 c 0
 342 367 347 356 347 342 c 0
 347 338 346 333 345 328 c 0
 330 261 239 230 163 230 c 0
 125 230 83 241 83 281 c 0
 83 286 84 292 85 298 c 0
 91 324 116 350 150 370 c 1
 139 376 129 388 129 405 c 0
 129 408 130 411 130 415 c 0
 135 436 155 461 174 476 c 1
 164 489 155 503 155 526 c 0
 155 532 156 538 157 545 c 0
 170 602 229 637 279 637 c 0
 307 637 323 628 331 622 c 1
 351 640 369 649 391 649 c 0
 412 649 421 639 421 628 c 0
 421 627 421 625 421 624 c 0
 418 610 405 600 394 600 c 0
160 365 m 1
 138 347 132 331 127 310 c 0
 126 306 125 302 125 298 c 0
 125 263 168 260 187 260 c 0
 237 260 298 267 308 312 c 0
 309 315 309 317 309 320 c 0
 309 330 302 336 285 346 c 0
 271 355 253 361 225 361 c 0
 220 361 213 361 205 360 c 1
 196 360 187 359 181 359 c 0
 173 359 165 362 160 365 c 1
308 541 m 0
 310 552 312 562 312 571 c 0
 312 601 297 615 270 615 c 0
 238 615 218 599 207 551 c 0
 204 541 203 530 203 520 c 0
 203 495 212 474 245 474 c 0
 265 474 293 479 308 541 c 0
EndSplineSet
EndChar

StartChar: u1D456.superior
Encoding: 1114147 -1 145
Width: 194
VWidth: 952
Flags: W
HStem: 365 23<113.475 164.912 240.239 257.919> 599 21<171.451 204.188> 681 58<231.935 284.672>
VStem: 228.7 59.6<684.488 736.108>
DStem2: 159.918 365 208.918 365 0.21644 0.976296<52.5251 221.673>
LayerCount: 2
Fore
SplineSet
255.7 576 m 2
 220.7 418 l 2
 219.6 413.1 219 408.9 219 405.5 c 0
 219 393 226.2 389.8 240.2 389 c 2
 258 388 l 2
 260 388 262.6 386 261.9 383 c 2
 257.9 365 l 1
 257.9 365 213.1 366 184.1 366 c 0
 156.1 366 110.9 365 110.9 365 c 1
 114.9 383 l 2
 115.6 386 117 388 122 388 c 2
 140.2 389 l 2
 160.4 390 166.8 396 171.7 418 c 2
 200.7 549 l 2
 204.1 564.3 205.7 574.9 205.7 582.3 c 0
 205.7 595.2 200.9 598 192.6 598 c 2
 171.8 599 l 2
 169.8 599 168.1 600 168.5 602 c 2
 171.5 620 l 1
 197.9 622 245.6 630 263.2 637 c 1
 276.4 637 267.4 628.9 255.7 576 c 2
228.7 703.8 m 0
 228.7 712.6 235.9 739 264.8 739 c 0
 282 739 288.3 728.9 288.3 717.6 c 0
 288.3 696.6 269.5 681 252 681 c 0
 237.4 681 228.7 691.3 228.7 703.8 c 0
EndSplineSet
EndChar

StartChar: u1D457.superior
Encoding: 1114148 -1 146
Width: 207
VWidth: 952
Flags: W
HStem: 263 19<107.763 137.125> 599 21<177.141 209.806> 682 57<233.916 289.365>
VStem: 60.2 47.2<282.406 320.582>
DStem2: 148.169 263 196.987 263 0.207912 0.978148<42.6798 337.917 435.07 490.184>
LayerCount: 2
Fore
SplineSet
267.4 739 m 0
 289.4 739 294.3 724 291.5 710 c 0
 288.4 695 272.8 682 255.8 682 c 0
 238.8 682 228.4 695 231.5 710 c 0
 234.8 726 248.4 739 267.4 739 c 0
207.7 549 m 2
 216.2 591 211.7 598 198.7 598 c 2
 177.9 599 l 2
 175.9 599 174.1 600 174.5 602 c 2
 177.1 620 l 1
 203.5 622 251.2 630 268.6 637 c 1
 274.6 637 276.2 635 275.2 630 c 2
 275.2 630 267.7 603 262.2 576 c 2
 232.5 430 l 2
 215.2 345 204.7 318 171.6 288 c 0
 151.9 270 130.5 263 114.5 263 c 0
 87.5 263 56.1 276 60.2 296 c 0
 63.5 312 74.3 321 86.3 321 c 0
 101.3 321 106.2 306 107.4 292 c 0
 107.2 286 110.4 282 115.4 282 c 0
 144.4 282 160.5 317 179.4 410 c 2
 207.7 549 l 2
EndSplineSet
EndChar

StartChar: u1D458.superior
Encoding: 1114149 -1 147
Width: 305
VWidth: 917
Flags: W
HStem: 364 23<103.562 143.199 193.184 220 340.293 372> 608 22<311 325.085 369.501 419.951> 695 22<176 199.67>
VStem: 101 321
DStem2: 286 516 243 473 0.386727 -0.922194<-6.30351 133.869>
LayerCount: 2
Fore
SplineSet
213.5 494.4 m 1
 195 414 l 2
 194 409 193 405 193 401 c 0
 193 390 200 387 213 387 c 2
 220 387 l 2
 223 387 225 386 224 382 c 2
 220 364 l 1
 220 364 184 365 160 365 c 0
 137 365 101 364 101 364 c 1
 105 382 l 2
 105 384 106 387 111 387 c 2
 118 387 l 1
 141 388 143 393 148 414 c 2
 208 673 l 2
 209 679 210 685 210 689 c 0
 210 695 208 699 200 699 c 0
 193 699 184 698 172 695 c 1
 176 717 l 1
 208 721 230 727 257 739 c 1
 270 739 l 1
 218.4 515.5 l 1
 247.3 527.4 271.4 543 311 580 c 0
 320 588 324 595 325 599 c 0
 327 607 317 608 309 608 c 0
 306 608 305 611 306 613 c 2
 309 630 l 1
 311 631 l 1
 311 631 339 630 360 630 c 0
 383 630 422 631 422 631 c 1
 424 630 l 1
 420 613 l 2
 419 610 415 608 413 608 c 0
 390 608 360 597 334 573 c 2
 289 531 l 2
 287 529 285 526 285 524 c 0
 284 521 284 518 286 516 c 1
 325 423 l 2
 329 413 339 387 371 387 c 0
 375 387 378 385 377 382 c 2
 374 366 l 1
 372 364 l 1
 372 364 336 365 313 365 c 0
 292 365 276 364 276 364 c 1
 275 366 l 1
 279 382 l 2
 280 388 279 392 271 409 c 2
 243 473 l 2
 238 484 232 495 219 495 c 0
 217.3 495 215.5 494.8 213.5 494.4 c 1
EndSplineSet
EndChar

StartChar: u1D459.superior
Encoding: 1114150 -1 148
Width: 161
VWidth: 917
Flags: W
HStem: 364 23<94.4027 108.939 207.939 216.057> 701 21<156.893 189.559>
VStem: 92.1 162.9
DStem2: 128.593 364 177.593 364 0.207912 0.978148<39.7825 338.912>
LayerCount: 2
Fore
SplineSet
187.4 651 m 2
 195.9 693 191.4 700 178.4 700 c 2
 157.6 701 l 2
 155.6 701 153.8 702 154.2 704 c 2
 156.9 722 l 1
 183.3 724 231 732 248.4 739 c 1
 254.4 739 256 737 255 732 c 2
 255 732 247.6 706 239.1 664 c 2
 188.4 415 l 2
 184.2 394.5 191 390.2 207.9 388 c 2
 215.7 387 l 2
 217.6 386.8 220.5 386 219.7 382 c 2
 216.1 364 l 1
 216.1 364 177.9 365 153.3 365 c 0
 129.5 365 92.1 364 92.1 364 c 1
 95.7 382 l 2
 96.1 384 96.6 386.5 100.7 387 c 2
 108.9 388 l 2
 133.8 391 135.1 394 139.4 415 c 2
 187.4 651 l 2
EndSplineSet
EndChar

StartChar: u1D45A.superior
Encoding: 1114151 -1 149
Width: 464
VWidth: 917
Flags: W
HStem: 364 23<114.203 153.861 204.249 233 264.562 306.969 357.005 383 414.203 456.969 507.004 533> 603 34<289.994 340.717 439.686 489.833>
VStem: 494 50<518.8 600.46>
DStem2: 147.372 364 194.372 364 0.207912 0.978148<49.0815 228.26> 301.372 364 348.372 364 0.207912 0.978148<45.94 205.31> 451.372 364 498.372 364 0.207912 0.978148<45.985 205.057>
LayerCount: 2
Fore
SplineSet
163 615 m 1
 195 619 217 625 244 637 c 1
 257 637 l 1
 245 585 l 1
 262 602 304 637 339 637 c 0
 371.9 637 393.5 623 394.9 585.9 c 1
 412.5 603.2 454.6 637 488 637 c 0
 522 637 544 622 544 582 c 0
 544 572 542 559 539 545 c 2
 509 414 l 2
 507 408 507 403 507 399 c 0
 507 388 513 387 527 387 c 2
 533 387 l 2
 538 387 538 384 537 382 c 2
 533 364 l 1
 533 364 497 365 473 365 c 0
 449 365 411 364 411 364 c 1
 416 382 l 2
 416 384 417 387 421 387 c 2
 432 387 l 1
 451 388 457 390 462 414 c 2
 490 535 l 2
 493 546 494 556 494 565 c 0
 494 593 480 603 458 603 c 0
 439.5 603 415.8 584.2 393.3 563.1 c 1
 392.4 557.4 391.3 551.3 390 545 c 2
 359 414 l 2
 358 407 357 402 357 399 c 0
 357 388 364 387 377 387 c 2
 384 387 l 2
 388 387 388 384 388 382 c 2
 383 364 l 1
 383 364 347 365 324 365 c 0
 300 365 262 364 262 364 c 1
 266 382 l 2
 267 384 268 387 271 387 c 2
 282 387 l 1
 301 388 307 390 312 414 c 2
 340 535 l 2
 343 547 345 557 345 565 c 0
 345 593 330 603 308 603 c 0
 288 603 262 581 239 558 c 1
 205 414 l 2
 204 409 204 405 204 402 c 0
 204 390 211 387 223 387 c 2
 234 387 l 2
 236 387 239 386 238 382 c 2
 233 364 l 1
 233 364 195 365 170 365 c 0
 147 365 111 364 111 364 c 1
 116 382 l 2
 116 384 117 387 121 387 c 2
 128 387 l 1
 152 388 154 393 158 414 c 2
 195 571 l 2
 196 577 197 583 197 587 c 0
 197 593 195 597 187 597 c 0
 180 597 170 596 160 593 c 1
 163 615 l 1
EndSplineSet
EndChar

StartChar: u1D45B.superior
Encoding: 1114152 -1 150
Width: 329
VWidth: 917
Flags: W
HStem: 364 23<113.742 152.936 226.018 236.697 269.254 287.018> 599 21<158.451 191.188> 603 34<291.986 344.562>
VStem: 349.2 51.1<517.641 599.368>
DStem2: 146.697 364 195.697 364 0.21644 0.976296<51.9839 222.698> 307.697 364 355.697 364 0.21644 0.976296<51.7019 203.362>
LayerCount: 2
Fore
SplineSet
244.9 586 m 1
 246.7 585 l 1
 264.5 602 305.2 637 341.2 637 c 0
 377.9 637 400.3 621 400.3 580.6 c 0
 400.3 570.3 398.8 558.6 395.8 545 c 2
 367 415 l 2
 366 410.6 365.5 407 365.5 404 c 0
 365.5 382.6 399 392.4 396.7 382 c 2
 392.7 364 l 1
 392.7 364 354.9 365 330.9 365 c 0
 305.9 365 266.7 364 266.7 364 c 1
 270.7 382 l 2
 271.1 384 272.8 387 275.8 387 c 2
 287 388 l 2
 308.4 390 313.9 392 319 415 c 2
 345.6 535 l 2
 348 546 349.2 555.5 349.2 563.5 c 0
 349.2 592.6 334 603 309.7 603 c 0
 288.7 603 262.8 581 238.7 558 c 1
 207 415 l 2
 206 410.7 205.6 407 205.6 404 c 0
 205.6 391.5 213.3 388.8 226 388 c 2
 236.8 387 l 2
 238.8 387 241.6 386 240.7 382 c 2
 236.7 364 l 1
 236.7 364 196.9 365 170.9 365 c 0
 146.9 365 109.7 364 109.7 364 c 1
 113.7 382 l 2
 114.8 387.1 117.8 386.7 127 388 c 0
 151.7 391 153.3 394 158 415 c 2
 187.7 549 l 2
 191.1 564.3 192.7 574.9 192.7 582.3 c 0
 192.7 595.2 187.9 598 179.6 598 c 2
 158.8 599 l 2
 156.8 599 155.1 600 155.5 602 c 2
 158.5 620 l 1
 184.9 622 232.6 630 250.2 637 c 1
 262.4 637 254.8 630.8 244.9 586 c 1
EndSplineSet
EndChar

StartChar: u1D45C.superior
Encoding: 1114153 -1 151
Width: 307
VWidth: 608
Flags: W
HStem: 359 25<215.2 279.097> 612 25<248.084 310.837>
VStem: 131.9 59.8<396.657 542.407> 331.4 61.7<448.953 600.762>
LayerCount: 2
Fore
SplineSet
247.6 384 m 0
 292.9 384 331.4 451.4 331.4 531 c 0
 331.4 579.9 313.4 612 282.2 612 c 0
 220.5 612 191.7 510.8 191.7 458.7 c 0
 191.7 409.6 215.2 384 247.6 384 c 0
131.9 459.9 m 0
 131.9 511.1 173.6 637 293.7 637 c 0
 372.9 637 393.1 586.4 393.1 538.3 c 0
 393.1 437.8 318.3 359 231.1 359 c 0
 163.2 359 131.9 406.8 131.9 459.9 c 0
EndSplineSet
EndChar

StartChar: u1D45D.superior
Encoding: 1114154 -1 152
Width: 291
VWidth: 917
Flags: W
HStem: 233 23<76.0469 114.165 164.25 194> 364 26<212.495 282.641> 593 22<153 176.716> 600 31<264.804 324.157>
VStem: 334 53<454.702 596.496>
DStem2: 108.372 233 155.372 233 0.207912 0.978148<48.8737 164.464 214.647 362.635>
LayerCount: 2
Fore
SplineSet
186 571 m 2
 187 577 188 583 188 587 c 0
 188 593 185 597 177 597 c 0
 171 597 161 596 150 593 c 1
 153 615 l 1
 186 619 208 625 234 637 c 1
 248 637 l 1
 247 632 l 1
 239 601 l 1
 263 616 290 631 318 631 c 0
 363 631 387 591 387 540 c 0
 387 528 386 514 383 501 c 0
 366 427 298 364 236 364 c 0
 217 364 200 372 189 384 c 1
 166 283 l 2
 165 278 164 274 164 271 c 0
 164 259 171 256 184 256 c 2
 194 256 l 2
 197 256 199 255 198 251 c 2
 194 233 l 1
 194 233 156 234 131 234 c 0
 108 234 72 233 72 233 c 1
 76 252 l 2
 77 254 78 256 82 256 c 2
 89 256 l 1
 113 257 114 263 119 283 c 2
 186 571 l 2
206 455 m 2
 204 446 203 439 203 432 c 0
 203 399 226 390 243 390 c 0
 265 390 306 396 328 489 c 0
 332 509 334 526 334 540 c 0
 334 580 319 600 300 600 c 0
 275 600 254 586 232 568 c 1
 206 455 l 2
EndSplineSet
EndChar

StartChar: u1D45E.superior
Encoding: 1114155 -1 153
Width: 294
VWidth: 917
Flags: W
HStem: 233 23<217.048 258.374 309.003 335> 364 26<203.258 267.791> 605 26<242.588 309.588>
VStem: 136 53<397.073 535.222>
LayerCount: 2
Fore
SplineSet
296 418 m 1
 330 566 l 1
 319 585 303 605 278 605 c 0
 246 605 213 578 196 504 c 0
 191 483 189 465 189 451 c 0
 189 404 211 390 236 390 c 0
 257 390 271 397 296 418 c 1
374 629 m 2
 377 632 385 637 388 637 c 0
 390 637 391 635 391 632 c 0
 391 631 391 630 391 628 c 2
 312 283 l 2
 310 276 309 271 309 267 c 0
 309 260 313 257 329 256 c 1
 336 256 l 2
 340 256 340 254 340 252 c 2
 335 233 l 1
 335 233 300 234 277 234 c 0
 252 234 213 233 213 233 c 1
 217 251 l 2
 218 255 221 256 224 256 c 2
 234 256 l 2
 250 256 259 261 265 283 c 2
 290 391 l 1
 268 375 247 364 225 364 c 0
 171 364 136 398 136 453 c 0
 136 464 137 476 140 489 c 0
 155 553 208 631 282 631 c 0
 310 631 333 622 344 605 c 1
 374 629 l 2
EndSplineSet
EndChar

StartChar: u1D45F.superior
Encoding: 1114156 -1 154
Width: 246
VWidth: 952
Flags: W
HStem: 365 23<101.606 128.143 228.143 246.26> 597 40<283.77 343.233> 599 21<155.141 187.806>
VStem: 99.3 261
DStem2: 147.814 365 196.814 365 0.207912 0.978148<39.6075 233.645>
LayerCount: 2
Fore
SplineSet
242.6 578 m 1
 264.7 603 298.6 637 329.6 637 c 0
 356.6 637 364 624 360.3 606 c 0
 356.8 589 344 580 326 580 c 0
 314 580 306.8 584 302.2 591 c 0
 299 595 294.5 597 290.5 597 c 0
 283.5 597 266 585 245.3 562 c 0
 240.3 557 234.5 548 232.9 540 c 2
 207.2 414 l 2
 203.1 394 209.3 390.1 228.1 389 c 2
 245.9 388 l 2
 247.9 388 250.5 386 249.9 383 c 2
 246.3 365 l 1
 246.3 365 201.5 366 172.5 366 c 0
 144.5 366 99.3 365 99.3 365 c 1
 102.9 383 l 2
 103.5 386 104.9 388 109.9 388 c 2
 128.1 389 l 2
 151.5 390.3 154.3 395 158.2 414 c 2
 185.7 549 l 2
 194.2 591 189.7 598 176.7 598 c 2
 155.9 599 l 2
 153.9 599 152.1 600 152.5 602 c 2
 155.1 620 l 1
 181.5 622 229.2 630 246.6 637 c 1
 252.6 637 254.2 635 253.2 630 c 2
 253.2 630 246.3 606.2 240.8 579 c 1
 242.6 578 l 1
EndSplineSet
EndChar

StartChar: u1D460.superior
Encoding: 1114157 -1 155
Width: 253
VWidth: 625
Flags: W
HStem: 358 25<161.519 238.894> 612 25<217.066 285.912>
VStem: 121.2 22<402.675 458> 306.7 23.2<545 588.34>
LayerCount: 2
Fore
SplineSet
121.2 458 m 1
 143.2 458 l 1
 141.4 444 141.9 417 154.6 401 c 0
 160.4 395 176.9 383 199.9 383 c 0
 223.9 383 250.2 394 255.7 421 c 0
 260 442 256 462 210.3 483 c 0
 168.2 502 140.3 518 149.5 563 c 0
 158 605 209.6 637 258.6 637 c 0
 289.6 637 326.5 627 336.1 620 c 1
 329.9 545 l 1
 306.7 544 l 1
 304.5 602 272.5 612 253.5 612 c 0
 228.5 612 204.9 599 199.4 572 c 0
 194.5 548 202.6 539 233.8 525 c 0
 280.5 504 322.7 485 312.5 435 c 0
 300.1 374 230.8 358 196.8 358 c 0
 166.8 358 147.7 372 127.7 372 c 0
 124.7 372 114.5 371 108.3 370 c 1
 113.2 394 117.7 426 121.2 458 c 1
EndSplineSet
EndChar

StartChar: u1D461.superior
Encoding: 1114158 -1 156
Width: 197
VWidth: 999
Flags: W
HStem: 358 35<175 244.608> 602 29<156.188 193.381 248 311.947>
VStem: 149 50<393.26 500.328>
DStem2: 152 419 206 449 0.256435 0.966562<3.76454 187.651 229.565 304.171>
LayerCount: 2
Fore
SplineSet
241 602 m 1
 206 449 l 2
 202 432 199 419 199 410 c 0
 199 398 203 393 212 393 c 0
 228 393 239 398 257 410 c 1
 268 393 l 1
 237 366 213 358 186 358 c 0
 164 358 149 369 149 396 c 0
 149 403 150 411 152 419 c 2
 194 602 l 1
 156 602 l 2
 154 602 153 602 153 604 c 2
 159 628 l 2
 159 630 160 631 162 631 c 0
 201 631 216 655 228 702 c 1
 230 713 l 1
 270 726 l 1
 248 631 l 1
 312 631 l 2
 315 631 317 629 316 627 c 2
 312 609 l 2
 311 604 302 602 296 602 c 2
 241 602 l 1
EndSplineSet
EndChar

StartChar: u1D462.superior
Encoding: 1114159 -1 157
Width: 306
VWidth: 917
Flags: W
HStem: 358 35<204.957 255.316> 380 22<359.284 383> 608 23<163 187.996 313 341.75>
VStem: 151 50<394.753 524>
DStem2: 136.445 358 183.319 358 0.207912 0.978148<84.2168 243.379> 288.947 358 340.185 358 0.207912 0.978148<61.4146 240.757>
LayerCount: 2
Fore
SplineSet
244 630 m 1
 205 460 l 2
 202 448 201 438 201 430 c 0
 201 402 215 393 237 393 c 0
 258 393 283 415 307 437 c 1
 340 582 l 2
 341 586 342 590 342 593 c 0
 342 605 335 608 322 608 c 2
 312 608 l 2
 310 608 307 609 308 613 c 2
 312 630 l 1
 313 631 l 1
 313 631 351 630 375 630 c 0
 384 630 397 631 397 631 c 1
 398 630 l 1
 351 424 l 2
 349 418 348 413 348 408 c 0
 348 402 351 398 359 398 c 0
 365 398 375 399 386 402 c 1
 383 380 l 1
 351 376 328 371 302 358 c 1
 289 358 l 1
 300 410 l 1
 283 393 241 358 207 358 c 0
 172 358 151 374 151 413 c 0
 151 423 152 436 156 450 c 2
 186 582 l 2
 188 588 188 593 188 596 c 0
 188 607 182 608 168 608 c 2
 162 608 l 2
 157 608 157 611 158 613 c 2
 162 630 l 1
 163 631 l 1
 163 631 199 630 222 630 c 0
 230 630 243 631 243 631 c 1
 244 630 l 1
EndSplineSet
EndChar

StartChar: u1D463.superior
Encoding: 1114160 -1 158
Width: 301
VWidth: 633
Flags: W
HStem: 608 23<158 177.931 230.716 263.998 342 367 398.323 431.951>
VStem: 153 282
DStem2: 230 577 185 568 0.160335 -0.987063<-16.5561 155.51> 258 424 250 372 0.542031 0.840358<0 201.694>
LayerCount: 2
Fore
SplineSet
217 371 m 2
 185 568 l 2
 179 603 175 608 157 608 c 0
 154 608 152 609 153 613 c 2
 157 630 l 1
 158 631 l 1
 158 631 195 630 213 630 c 2
 267 631 l 1
 268 630 l 1
 264 613 l 2
 264 610 261 608 258 608 c 2
 248 608 l 2
 240 608 232 604 230 594 c 0
 229 589 229 584 230 577 c 2
 258 424 l 1
 356 574 l 2
 362 583 365 589 367 594 c 0
 367 595 367 596 367 597 c 0
 367 606 358 608 340 608 c 0
 338 608 337 611 337 613 c 2
 341 630 l 1
 342 631 l 1
 342 631 375 630 396 630 c 0
 414 630 435 631 435 631 c 1
 436 630 l 1
 432 613 l 2
 431 609 427 608 424 608 c 0
 411 608 400 604 379 572 c 2
 250 372 l 2
 243 361 233 358 227 358 c 0
 222 358 218 364 217 371 c 2
EndSplineSet
EndChar

StartChar: u1D464.superior
Encoding: 1114161 -1 159
Width: 445
VWidth: 633
Flags: W
HStem: 608 23<141.378 165.205 218.938 253.013 288.378 310.589 364.561 400.013 458.378 489.744 523.168 557.675>
DStem2: 220.392 577 171.188 576 0.164986 -0.986296<-21.725 155.337> 247.264 424 239.685 372 0.500161 0.865932<0 120.94> 365.392 577 320.509 553 0.164986 -0.986296<-19.6985 16.266 50.4737 155.172> 391.264 424 384.685 372 0.513517 0.858079<0 195.31>
LayerCount: 2
Fore
SplineSet
251.7 613 m 2
 251.1 610 248.7 608 246.7 608 c 2
 237.7 608 l 2
 226.7 608 220.3 606 218.9 599 c 0
 217.9 594 218.4 587 220.4 577 c 2
 247.3 424 l 1
 320.5 553 l 1
 316.2 576 l 2
 311.7 603 305.7 608 287.7 608 c 0
 284.7 608 282.9 609 283.7 613 c 2
 287.2 630 l 1
 288.4 631 l 1
 288.4 631 326.2 630 345.2 630 c 2
 400.4 631 l 1
 402.2 630 l 1
 398.7 613 l 2
 398.1 610 395.7 608 392.7 608 c 0
 374.7 608 366.5 607 364.5 597 c 0
 363.7 593 364.2 586 365.4 577 c 2
 391.3 424 l 1
 480.8 574 l 2
 485.4 582 488.6 588 489.6 593 c 0
 491.8 604 483.7 608 465.7 608 c 2
 456.7 608 l 2
 454.7 608 453.3 611 453.7 613 c 2
 457.2 630 l 1
 458.4 631 l 1
 458.4 631 498.2 630 519.2 630 c 0
 538.2 630 560.4 631 560.4 631 c 1
 561.2 630 l 1
 557.7 613 l 2
 556.9 609 552.7 608 549.7 608 c 0
 535.7 608 521.3 601 504.4 572 c 2
 384.7 372 l 2
 377.5 361 367.8 358 360.8 358 c 0
 355.8 358 351.9 363 350.5 371 c 2
 324.6 519 l 1
 239.7 372 l 2
 233.5 361 223.8 358 215.8 358 c 0
 210.8 358 206.9 363 205.5 371 c 2
 171.2 576 l 2
 166.1 605 158.7 608 142.7 608 c 0
 139.7 608 136.1 610 136.7 613 c 2
 140.2 630 l 1
 141.4 631 l 1
 141.4 631 168.2 630 192.2 630 c 0
 218.2 630 254.4 631 254.4 631 c 1
 255.2 630 l 1
 251.7 613 l 2
EndSplineSet
EndChar

StartChar: u1D465.superior
Encoding: 1114162 -1 160
Width: 307
VWidth: 608
Flags: W
HStem: 364 24<90.5264 138.642 180.914 200.26 249.498 278.108 340.07 376.667> 610 22<146.582 176.84 242.519 269.479 316.175 338.523 376.438 422.328>
DStem2: 155.229 414 189.602 406 0.692786 0.721144<2.80284 96.8035 163.401 262.446> 272.423 528 233.488 489 0.446676 -0.894696<-79.3919 0 46.7985 122.338>
LayerCount: 2
Fore
SplineSet
91.3 380 m 2
 92.7 387 96.9 388 103.9 388 c 0
 122.9 388 130.5 391 155.2 414 c 2
 155.2 414 229.9 486 233.5 489 c 1
 183 590 l 2
 176.4 602 167.1 610 155.1 610 c 0
 143.1 610 141.5 612 142.5 617 c 2
 145.2 630 l 1
 146.6 632 l 1
 166.4 631 182.4 631 206.4 631 c 0
 226.4 631 247.4 631 271.6 632 c 1
 272 629 l 1
 269.5 617 l 2
 268.5 612 263.1 610 254.1 610 c 0
 247.1 610 243.3 606 242.5 602 c 0
 241.5 597 244 590 245.6 583 c 1
 272.4 528 l 1
 323.8 584 332.9 594 332.9 594 c 2
 336.5 597 338.1 600 338.5 602 c 0
 339.5 607 335.1 610 322.1 610 c 0
 316.1 610 312.3 611 313.5 617 c 2
 316.2 630 l 1
 317.6 632 l 1
 335.4 631 351.2 630 368.2 630 c 0
 388.2 630 402.4 631 423.6 632 c 1
 424 629 l 1
 421.7 618 l 2
 420.5 612 420.1 610 408.1 610 c 0
 387.1 610 381.1 605 355.8 579 c 2
 284.1 502 l 1
 329.6 416 l 2
 336.8 402 345.9 388 367.9 388 c 0
 379.9 388 380.1 384 379.3 380 c 2
 376.7 367 l 1
 375.1 364 l 1
 356.5 366 338.5 366 319.5 366 c 0
 296.5 366 262.3 365 248.1 364 c 1
 247.5 366 l 1
 249.5 376 l 2
 250.7 382 253.9 388 262.9 388 c 0
 269.9 388 277.2 389 278.2 394 c 0
 278.8 397 277.4 400 275.4 405 c 2
 275.4 405 248.4 454 245 462 c 1
 224.7 441 189.6 406 189.6 406 c 2
 184.4 400 181.6 396 181 393 c 0
 180 388 185.9 388 196.9 388 c 0
 204.9 388 205.3 385 204.3 380 c 2
 201.9 368 l 1
 200.3 365 l 1
 180.5 366 164.5 366 148.5 366 c 0
 125.5 366 107.3 365 89.1 364 c 1
 88.7 367 l 1
 91.3 380 l 2
EndSplineSet
EndChar

StartChar: u1D466.superior
Encoding: 1114163 -1 161
Width: 338
VWidth: 617
Flags: W
TeX: 57 0
HStem: 238 41<111.207 181.728> 608 24<147.582 174.235 234.542 270.879 348.582 374.538 415.308 455.141>
DStem2: 235.02 585 181.578 573 0.239106 -0.970994<-11.6963 155.055> 218.005 349 232.104 320 0.541211 0.840887<-90.1283 36.4593 99.7769 293.079>
LayerCount: 2
Fore
SplineSet
270.9 614 m 2
 270.1 610 265.7 608 262.7 608 c 0
 244.7 608 236.1 605 234.5 597 c 0
 234.1 595 234 589.1 235 585 c 2
 270.3 434 l 1
 368.6 583 l 2
 371.4 587 373.9 594 374.5 597 c 0
 376.3 606 365.7 608 351.7 608 c 2
 348.7 608 l 2
 345.7 608 343.3 611 343.7 613 c 2
 347.2 630 l 1
 348.6 632 l 1
 348.6 632 390.2 630 412.2 630 c 0
 429.2 630 455.6 632 455.6 632 c 1
 457.2 630 l 1
 453.9 614 l 2
 453.1 610 450.7 608 445.7 608 c 0
 421.7 608 405.9 589 394.2 571 c 0
 346 501 306.7 441 232.1 320 c 0
 204.1 276 173.4 238 129.4 238 c 0
 117.4 238 88.4 248 93.1 271 c 0
 96.8 289 117.6 298 127.6 298 c 0
 136.6 298 142 295 145 290 c 0
 149.8 284 153.8 279 159.8 279 c 0
 168.8 279 194.3 311 218 349 c 0
 222.6 357 224.7 362 225.9 368 c 0
 227.3 375 225.6 391 223.2 404 c 2
 181.6 573 l 2
 175.3 598.4 173.7 608 146.7 608 c 0
 143.7 608 141.3 611 141.7 613 c 2
 145.2 630 l 1
 147.6 632 l 1
 147.6 632 183.2 630 202.2 630 c 0
 231.2 630 273.6 632 273.6 632 c 1
 274.2 630 l 1
 270.9 614 l 2
EndSplineSet
EndChar

StartChar: u1D467.superior
Encoding: 1114164 -1 162
Width: 262
VWidth: 999
Flags: W
HStem: 364 30<176 293.408> 602 29<198.004 305>
VStem: 178 20<631.454 638>
DStem2: 115 384 176 394 0.657034 0.753861<47.6177 289.178>
LayerCount: 2
Fore
SplineSet
212 631 m 2
 325 631 l 2
 343 631 371 633 373 633 c 0
 376 633 380 633 379 630 c 1
 379 629 l 2
 379 627 377 623 361 604 c 2
 176 394 l 1
 247 394 l 2
 281 394 293 402 314 435 c 1
 326 452 l 1
 346 448 l 1
 327 412 314 383 307 364 c 1
 118 364 l 2
 110 364 106 367 106 370 c 0
 106 376 113 382 115 384 c 2
 305 602 l 1
 231 602 l 2
 213 602 192 596 170 552 c 1
 149 553 l 1
 162 583 171 610 178 638 c 1
 198 638 l 1
 198 635 203 631 212 631 c 2
EndSplineSet
EndChar
